<?xml version="1.0" standalone="no"?>
<!DOCTYPE svg PUBLIC "-//W3C//DTD SVG 1.1//EN" "http://www.w3.org/Graphics/SVG/1.1/DTD/svg11.dtd" >
<svg xmlns="http://www.w3.org/2000/svg">
<metadata></metadata>
<defs>
<font id="thirsty_softbold" horiz-adv-x="1167" >
<font-face units-per-em="2048" ascent="1638" descent="-410" />
<missing-glyph horiz-adv-x="512" />
<glyph unicode="Ti" horiz-adv-x="1968" d="M0 358q0 109 48 203.5t138 157t205 74.5q44 5 69 -17.5t25 -66.5v-41q0 -60 -18 -83t-76 -36q-53 -13 -87 -47t-46 -70t-12 -74q0 -88 61 -147t156 -59q73 0 134.5 30.5t113.5 93t94.5 141t87.5 189.5l274 680q30 71 -43 86q-32 8 -106.5 26t-109 26.5t-95 21.5t-97 19 t-79.5 11t-76 5q-66 0 -112 -16t-67 -42t-29.5 -49.5t-8.5 -48.5q0 -60 40.5 -98.5t102.5 -38.5q44 0 82 20q43 22 65 16t50 -46l23 -37q23 -34 15.5 -66.5t-42.5 -54.5q-92 -53 -201 -53q-150 0 -260 98.5t-110 261.5q0 60 16 115.5t52 107t89 89.5t132 60.5t175 22.5 q105 0 253.5 -28t277.5 -63t286.5 -69t270.5 -44q59 -6 82.5 4.5t60.5 58.5q49 66 129 66q68 0 116 -47.5t48 -120.5q0 -11 -0.5 -21t-6.5 -33.5t-17 -42t-34 -41.5t-54.5 -38.5t-82.5 -26t-114 -10.5q-114 0 -252 22q-40 5 -63.5 -8.5t-38.5 -50.5l-316 -783 q-52 -131 -119 -230t-131.5 -155.5t-137.5 -91t-132 -46t-121 -11.5q-114 0 -206.5 38t-150.5 101t-89 142t-31 165zM1310.5 245q10.5 101 63.5 234l203 496q19 47 48.5 67.5t80.5 20.5h100q46 0 61.5 -22.5t-1.5 -65.5l-228 -559q-26 -65 -40 -113.5t-16.5 -76t3 -44.5 t14.5 -22.5t23 -5.5q67 0 169 110.5t212 298.5q22 28 53.5 24t51 -36.5t1.5 -63.5q-295 -514 -583 -514q-70 0 -120 28t-78 85.5t-17.5 158.5z" />
<glyph unicode="Wh" horiz-adv-x="3328" d="M0 842q0 225 217 368q127 83 397 173q31 10 94 30q74 25 111 37q86 31 144 92q86 86 186 111q37 9 64.5 -6t39.5 -52q18 -54 12.5 -77t-42.5 -56q-71 -63 -111 -157l-348 -875q-28 -68 -42 -119t-16 -78.5t5.5 -44.5t17.5 -21.5t25 -4.5q79 0 184 120t176 296l332 821 q19 47 48.5 67.5t80.5 20.5h102q46 0 61.5 -22.5t-1.5 -65.5l-389 -969q-28 -69 -42 -119t-16.5 -78t4.5 -44.5t17.5 -21.5t25.5 -5q81 0 187 123.5t174 294.5l321 792q17 43 37.5 81t54 80t73 71.5t95 49t119.5 19.5q198 0 402 -147q74 -54 41 -142l-146 -360 q-11 -25 -1.5 -32.5t32.5 7.5q133 91 256 91q89 0 138.5 -45t49.5 -127q0 -83 -63 -238l-109 -264q-27 -68 -41.5 -118.5t-16 -77t5 -42.5t15 -20t21.5 -4q67 0 170 111t211 298q22 28 53.5 24.5t51 -36t1.5 -64.5q-66 -115 -130.5 -202.5t-138.5 -161t-155 -112t-166 -38.5 q-58 0 -101.5 18t-71.5 58t-36 99t9 145t59 192l47 117q7 18 22 55.5t21 53.5t14.5 39.5t11.5 37t3 23.5q0 21 -15 33t-40 12q-32 0 -82.5 -25.5t-102.5 -70.5q-48 -45 -71 -105l-232 -567q-19 -47 -48.5 -67.5t-80.5 -20.5h-100q-46 0 -61.5 22.5t1.5 65.5l504 1249 q13 32 1.5 55t-44.5 31q-139 37 -209 -129l-299 -739q-37 -92 -79.5 -174t-104.5 -168.5t-130 -148t-157.5 -101t-185.5 -39.5q-97 0 -155.5 38t-78.5 99q-11 31 -25.5 35t-39.5 -18q-170 -154 -346 -154q-86 0 -144 36.5t-85.5 108.5t-11.5 190.5t79 272.5l242 603 q11 30 -1 41.5t-42 1.5q-215 -73 -295 -115q-172 -92 -174 -211q0 -76 59 -115q65 -42 77.5 -65.5t12.5 -102.5v-10q0 -44 -25 -65t-69 -13q-138 28 -219.5 127t-79.5 234z" />
<glyph unicode="Wi" horiz-adv-x="2764" d="M0 842q0 225 217 368q127 83 397 173q31 10 94 30q74 25 111 37q86 31 144 92q86 86 186 111q37 9 64.5 -6t39.5 -52l2 -8q17 -48 11 -70t-43 -55q-71 -63 -111 -157l-348 -875q-28 -68 -42 -119t-16 -78.5t5.5 -44.5t17.5 -21.5t25 -4.5q77 0 179 118.5t181 297.5 l332 821q19 47 48.5 67.5t80.5 20.5h102q46 0 61.5 -22.5t-1.5 -65.5l-389 -969q-28 -69 -42 -119t-16.5 -78t4.5 -44.5t17.5 -21.5t25.5 -5q80 0 182.5 122t178.5 296l321 792q17 44 38.5 83.5t54 80.5t70.5 70.5t89.5 48t108.5 18.5q144 0 282 -110q10 -7 56.5 -35 t60.5 -41q55 -48 55 -121q0 -65 -47.5 -113.5t-113.5 -48.5q-63 0 -108.5 43t-51.5 109q-3 60 -64 76q-105 25 -172 -138l-299 -739q-37 -92 -79.5 -174t-104.5 -168.5t-130 -148t-157.5 -101t-185.5 -39.5q-97 0 -155.5 38t-78.5 99q-11 31 -25.5 35t-39.5 -18 q-170 -154 -346 -154q-86 0 -144 36.5t-85.5 108.5t-11.5 190.5t79 272.5l242 603q11 30 -1 41.5t-42 1.5q-215 -73 -295 -115q-172 -92 -174 -211q0 -76 59 -115q65 -42 77.5 -65.5t12.5 -102.5v-10q0 -44 -25 -65t-69 -13q-138 28 -219.5 127t-79.5 234zM2111.5 141 q-11.5 57 2.5 144t57 194l203 496q19 47 48.5 67.5t80.5 20.5h100q46 0 61 -22.5t-2 -65.5l-227 -559q-26 -65 -40 -113.5t-16.5 -76t3 -44.5t14.5 -22.5t23 -5.5q67 0 170 111t211 298q22 28 53.5 24.5t51 -36t1.5 -64.5q-295 -514 -584 -514q-53 0 -95.5 17t-73 55.5 t-42 95.5z" />
<glyph unicode="Kh" horiz-adv-x="3028" d="M-125 250q0 110 48 204.5t138.5 156t206.5 73.5q44 5 69 -17.5t25 -66.5v-41q0 -60 -18 -83t-76 -36q-53 -13 -87.5 -46.5t-47 -69.5t-12.5 -74q0 -83 62.5 -145t160.5 -62q141 0 244.5 116t193.5 339l267 663q12 31 1 44t-42 5q-24 -7 -64 -18t-64 -18t-59.5 -18 t-57.5 -19.5t-50.5 -21.5t-45.5 -25t-36 -28.5t-29.5 -34t-17 -39.5t-6.5 -46q0 -76 59 -115q65 -42 77.5 -65.5t12.5 -102.5v-8q0 -44 -25 -65t-69 -13q-138 28 -219.5 126t-79.5 233q0 55 12.5 103t32.5 85.5t53.5 71.5t68 59t84.5 49.5t93.5 41.5t104 37t107.5 33.5 t113.5 32.5t112.5 34q89 27 158 88q76 66 160 86q37 9 64.5 -6t39.5 -52q18 -55 12 -77.5t-45 -55.5q-69 -61 -106 -155l-203 -500q-14 -32 -1 -52.5t48 -21.5q107 -5 193.5 67.5t154.5 239.5l133 332q21 54 52 102.5t76.5 95.5t110 75t138.5 28q201 0 400 -145 q74 -57 41 -144l-146 -360q-11 -25 -1.5 -32.5t32.5 7.5q133 91 256 91q89 0 138.5 -45t49.5 -127q0 -83 -63 -238l-109 -264q-27 -68 -40.5 -118.5t-15.5 -77t5 -42.5t15.5 -20t21.5 -4q65 0 167 110.5t212 298.5q22 28 53.5 24.5t51 -36t1.5 -64.5q-65 -114 -129.5 -202.5 t-138 -161t-154.5 -111.5t-165 -39q-74 0 -124 29.5t-74.5 90t-11.5 160.5t66 232l47 117q7 18 22 55.5t21 53.5t14.5 39.5t11.5 37t3 23.5q0 21 -15 33t-40 12q-32 0 -82.5 -25.5t-102.5 -70.5q-48 -45 -71 -105l-232 -567q-19 -47 -48.5 -67.5t-80.5 -20.5h-100 q-46 0 -61.5 22.5t1.5 65.5l504 1247q13 32 1.5 55.5t-44.5 32.5q-137 37 -205 -129l-94 -233q-156 -378 -399 -463q-32 -12 -36.5 -28t17.5 -42q100 -117 52 -370l-58 -322q-13 -73 -4.5 -116t45.5 -60q63 -29 77.5 -52.5t14.5 -94.5q0 -46 -24 -70t-70 -23 q-170 6 -254.5 125.5t-54.5 290.5l49 277q33 191 12.5 286t-104.5 154q-8 6 -18.5 10.5t-22.5 3.5t-16 -12l-88 -217q-43 -109 -97 -196t-110.5 -143.5t-114 -96.5t-117.5 -61t-110.5 -29.5t-102.5 -8.5q-115 0 -208 38t-151 101.5t-89 142.5t-31 165z" />
<glyph unicode="Ki" horiz-adv-x="2457" d="M-125 250q0 166 106 288.5t277 145.5q49 6 76.5 -18t27.5 -74v-33q0 -60 -18 -83t-76 -36q-53 -13 -87.5 -46.5t-47 -69.5t-12.5 -74q0 -83 62.5 -145t160.5 -62q141 0 244.5 116t193.5 339l267 663q12 31 1 44t-42 5q-24 -7 -64 -18t-64 -18t-59.5 -18t-57.5 -19.5 t-50.5 -21.5t-45.5 -25t-36 -28.5t-29.5 -34t-17 -39.5t-6.5 -46q0 -90 79 -127q47 -22 58.5 -39.5t11.5 -68.5v-56q0 -44 -25 -65t-69 -13q-138 28 -219.5 126t-79.5 233q0 55 12.5 103t32.5 85.5t53.5 71.5t68 59t84.5 49.5t93.5 41.5t104 37t107.5 33.5t113.5 32.5 t112.5 34q89 27 158 88q76 66 160 86q37 9 64.5 -6t39.5 -52q18 -55 12 -77.5t-45 -55.5q-69 -61 -106 -155l-203 -500q-14 -32 -1 -52.5t48 -21.5q107 -5 193.5 67.5t154.5 239.5l133 332q22 55 51 102.5t72 95t104 75.5t132 28q143 0 270 -102q21 -17 66 -44.5t59 -39.5 q55 -48 55 -121q0 -65 -47.5 -113.5t-113.5 -48.5q-61 0 -107.5 43.5t-52.5 106.5q-6 61 -64 76q-101 24 -166 -136l-94 -233q-156 -378 -399 -463q-32 -12 -36.5 -28t17.5 -42q100 -117 52 -370l-58 -322q-13 -73 -4.5 -116t45.5 -60q63 -29 77.5 -52.5t14.5 -94.5 q0 -46 -24 -70t-70 -23q-170 6 -254.5 125.5t-54.5 290.5l49 277q33 193 12.5 287t-104.5 153q-8 6 -18.5 10.5t-22.5 3.5t-16 -12l-88 -217q-51 -126 -116.5 -223t-131 -155t-139.5 -94.5t-137 -49.5t-128 -13q-115 0 -208 38t-151 101.5t-89 142.5t-31 165zM1804.5 141 q-11.5 57 3.5 144t58 194l200 496q19 47 48.5 67.5t80.5 20.5h101q46 0 61 -22.5t-2 -65.5l-227 -559q-25 -65 -39 -113.5t-16.5 -76.5t3 -44.5t15 -22t23.5 -5.5q65 0 166.5 110.5t211.5 298.5q22 28 53.5 24.5t51.5 -36t2 -64.5q-295 -514 -582 -514q-53 0 -96 17 t-74 55.5t-42.5 95.5z" />
<glyph unicode="&#x20;r" horiz-adv-x="1437" d="M277.5 30q-12.5 27 7.5 52q72 69 191 262.5t249 470.5q22 45 21.5 74t-25.5 74q-19 32 -19 67q0 56 36 110.5t89 90.5q25 17 55.5 18t55.5 -14l16 -10q32 -20 40 -44t-5 -59l-16 -39q-26 -65 31 -108q6 -4 38.5 -27.5t43 -31t39.5 -30.5t41 -35.5t32.5 -35t29 -40 t16 -39.5t7.5 -44q0 -41 -24 -104l-68 -172q-27 -68 -40.5 -119t-14 -77.5t6.5 -42t15.5 -19.5t18.5 -4q46 0 126 101t202 308q22 28 53.5 24t51 -36.5t1.5 -63.5q-54 -94 -96 -159.5t-98 -137.5t-106 -116t-111.5 -72.5t-123.5 -28.5q-50 0 -92 15.5t-74 51.5t-45 90 t-0.5 138t54.5 187l67 172q19 49 19 69q0 33 -45 78q-57 54 -88 -16q-126 -271 -252.5 -481t-202.5 -277q-24 -21 -59.5 -9t-48 39z" />
<glyph unicode="&#x20;s" horiz-adv-x="1390" d="M258.5 4q-12.5 27 7.5 53q134 131 348 508q120 209 256 484q23 46 54 59.5t80 -0.5l59 -18q51 -13 68.5 -40.5t9.5 -78.5q-12 -92 -14 -196t2 -178t9 -156.5t5 -118.5q0 -42 -2 -58q-3 -29 10 -35.5t35 13.5q111 101 239 321q21 28 52 24.5t51.5 -36t3.5 -64.5 q-49 -88 -95 -156.5t-109.5 -138.5t-131 -115.5t-156 -74.5t-186.5 -29q-157 0 -262 76q-31 22 -29.5 53.5t33.5 53.5q42 26 70.5 30t58 -4t43.5 -8q56 0 83.5 54.5t27.5 195.5q0 38 -3.5 133t-3.5 148q0 26 -10 28.5t-22 -20.5q-91 -178 -119 -226q-104 -184 -202 -326 t-152 -188q-24 -20 -60 -8t-48.5 39z" />
<glyph unicode="Kl" horiz-adv-x="2478" d="M-125 250q0 110 48 204.5t138.5 156t206.5 73.5q44 5 69 -17.5t25 -66.5v-41q0 -60 -18 -83t-76 -36q-53 -13 -87.5 -46.5t-47 -69.5t-12.5 -74q0 -83 62.5 -145t160.5 -62q141 0 244.5 116t193.5 339l267 663q12 31 1 44t-42 5q-24 -7 -64 -18t-64 -18t-59.5 -18 t-57.5 -19.5t-50.5 -21.5t-45.5 -25t-36 -28.5t-29.5 -34t-17 -39.5t-6.5 -46q0 -76 59 -115q65 -42 77.5 -65.5t12.5 -102.5v-8q0 -44 -25 -65t-69 -13q-138 28 -219.5 126t-79.5 233q0 55 12.5 103t32.5 85.5t53.5 71.5t68 59t84.5 49.5t93.5 41.5t104 37t107.5 33.5 t113.5 32.5t112.5 34q89 27 158 88q76 66 160 86q37 9 64.5 -6t39.5 -52q18 -55 12 -77.5t-45 -55.5q-69 -61 -106 -155l-203 -500q-14 -32 -1 -52.5t48 -21.5q107 -5 193.5 67.5t154.5 239.5l133 332q21 54 52 102.5t76.5 95.5t110 75t138.5 28q201 0 400 -145 q74 -57 41 -144l-394 -968q-26 -67 -40 -116t-16.5 -76.5t3.5 -43.5t15.5 -21t23.5 -5q65 0 167 110.5t212 298.5q22 28 53.5 24.5t51 -36t1.5 -64.5q-295 -514 -581 -514q-53 0 -96.5 17t-74.5 55.5t-42.5 95.5t3.5 144t58 194l344 856q13 32 1.5 55.5t-44.5 32.5 q-137 37 -205 -129l-94 -233q-156 -378 -399 -463q-32 -12 -36.5 -28t17.5 -42q100 -117 52 -370l-58 -322q-13 -73 -4.5 -116t45.5 -60q63 -29 77.5 -52.5t14.5 -94.5q0 -46 -24 -70t-70 -23q-170 6 -254.5 125.5t-54.5 290.5l49 277q33 193 12.5 287t-104.5 153 q-8 6 -18.5 10.5t-22.5 3.5t-16 -12l-88 -217q-51 -126 -116.5 -223t-131 -155t-139.5 -94.5t-137 -49.5t-128 -13q-115 0 -208 38t-151 101.5t-89 142.5t-31 165z" />
<glyph unicode="Br" horiz-adv-x="2766" d="M-59 229q0 54 19.5 106t58 99t106.5 76t156 29q117 0 243 -74q63 -37 92 29q18 36 54 120l211 523q40 97 118 174t179 102q37 9 64.5 -6t39.5 -51l4 -10q15 -46 8.5 -67t-43.5 -54q-71 -63 -110 -158l-23 -55q-16 -47 33 -56q89 -15 173.5 12.5t142 97.5t57.5 167 q0 123 -94 206t-267 83q-99 0 -186 -29.5t-148 -77.5t-105.5 -109t-65.5 -125t-21 -124q0 -49 14 -103q15 -57 4.5 -86.5t-57.5 -64.5l-39 -29q-35 -26 -65.5 -17t-47.5 50q-45 112 -45 237q0 135 54.5 261t152 224.5t245.5 158t323 59.5q137 0 252 -40t192 -109 t119.5 -162.5t42.5 -200.5q0 -69 -18 -128.5t-44 -100t-62.5 -74t-67.5 -52t-64 -32.5t-36 -30.5t23 -41.5q148 -153 148 -362q0 -75 -18.5 -149t-58 -142.5t-95 -121.5t-136.5 -84.5t-177 -31.5q-113 0 -217 43.5t-224 130.5q-34 25 -58 23.5t-56 -29.5 q-149 -129 -334 -129q-85 0 -153 27t-109 71.5t-62.5 97.5t-21.5 109zM158 244q0 -41 35 -66.5t83 -25.5q72 0 142 57q29 23 27 49t-33 45q-72 43 -129 43q-56 0 -90.5 -30.5t-34.5 -71.5zM834 336q-33 -64 26 -105q138 -94 260 -94q67 0 121 27.5t85.5 71.5t48 94.5 t16.5 101.5q0 26 -4.5 53t-21.5 68t-46 77t-85 73t-130 61q-76 24 -103 -47q-77 -189 -90 -217q-47 -110 -77 -164zM1606.5 30q-12.5 27 7.5 52q72 69 191 262.5t249 470.5q22 45 21.5 74t-25.5 74q-18 30 -18 67q0 56 36 110.5t89 90.5q25 17 55 18t55 -14l17 -10 q32 -20 40 -44t-6 -59l-16 -39q-26 -65 31 -108q6 -4 38.5 -27.5t43 -31t39.5 -30.5t41 -35.5t32.5 -35t29 -40t16 -39.5t7.5 -44q0 -41 -24 -104l-68 -172q-27 -68 -40.5 -119t-14 -77.5t6.5 -42t15.5 -19.5t18.5 -4q46 0 126 101t202 308q22 28 53.5 24t51 -36.5 t1.5 -63.5q-45 -77 -80 -133.5t-80 -120t-86.5 -106.5t-88 -80.5t-97 -55.5t-102.5 -18q-50 0 -92 15.5t-74 51.5t-45.5 90t-1 138t54.5 187l68 172q18 46 18 69q0 33 -45 78q-57 54 -88 -16q-126 -271 -252.5 -481t-202.5 -277q-24 -21 -59.5 -9t-48 39z" />
<glyph unicode="Dr" horiz-adv-x="2897" d="M-61 227q0 53 19.5 106t58 100t105.5 76.5t152 29.5q139 0 297 -105q58 -38 95 25q31 60 55 119l209 518q40 97 118 174t179 102q37 9 64.5 -6t39.5 -51q18 -55 12.5 -77.5t-43.5 -55.5q-71 -63 -108 -156l-215 -532q-46 -116 -100 -203q-19 -32 -13.5 -55t37.5 -43 q108 -70 213 -70q116 0 224 79t182 202t118.5 274.5t44.5 296.5q0 110 -27 201.5t-82 162.5t-145.5 110.5t-209.5 39.5q-104 0 -196 -31.5t-156.5 -83t-111 -116.5t-69 -132.5t-22.5 -130.5q0 -48 14 -102q15 -57 4.5 -87t-57.5 -65l-39 -28q-35 -26 -65.5 -18t-47.5 48 q-45 112 -45 244q0 113 35.5 220t105.5 198.5t166 160t225.5 107.5t276.5 39q230 0 395.5 -92.5t249.5 -257.5t84 -387q0 -119 -25 -245t-72 -248t-120.5 -229.5t-164.5 -189.5t-210 -130t-250 -48q-109 0 -190 33.5t-174 104.5q-36 27 -60 27.5t-61 -23.5 q-150 -103 -336 -103q-96 0 -169.5 28t-114 73.5t-60.5 96.5t-20 105zM156 242q0 -43 36.5 -66.5t98.5 -23.5q73 0 147 41q31 19 32 43.5t-30 46.5q-89 63 -159 63q-56 0 -90.5 -31t-34.5 -73zM1737.5 30q-12.5 27 7.5 52q72 69 191 262.5t249 470.5q22 45 21.5 74t-25.5 74 q-18 30 -18 67q0 56 36 110.5t89 90.5q25 17 55 18t55 -14l17 -10q32 -20 40 -44t-6 -59l-16 -39q-26 -65 31 -108l38.5 -27.5t43.5 -31t40 -30.5t40.5 -35t32.5 -35.5t29 -40t16.5 -39.5t7.5 -44q0 -39 -25 -104l-68 -172q-27 -68 -40.5 -119t-14 -77.5t6.5 -42t15.5 -19.5 t18.5 -4q46 0 126 101t202 308q22 28 53.5 24t51 -36.5t1.5 -63.5q-45 -77 -80 -133.5t-80 -120t-86.5 -106.5t-88 -80.5t-97 -55.5t-102.5 -18q-50 0 -92 15.5t-74 51.5t-45.5 90t-1 138t54.5 187l68 172q18 46 18 69q0 33 -45 78q-57 54 -88 -16q-126 -271 -252.5 -481 t-202.5 -277q-24 -21 -59.5 -9t-48 39z" />
<glyph unicode="Er" horiz-adv-x="2316" d="M0 379q0 120 44.5 228.5t119 186.5t173.5 125.5t206 51.5q38 2 50.5 16.5t6.5 52.5q-8 50 -8 88q0 129 51 240q18 39 20.5 65t-8.5 68q-23 95 -26 205q-3 90 88 78q53 -7 74 -29t24 -72v-8q6 -77 72 -39q130 70 276 70q96 0 172 -29.5t120 -78t66.5 -105.5t22.5 -117 q-2 -141 -105.5 -243.5t-275.5 -102.5q-147 0 -258 82q-25 19 -38.5 10.5t-10.5 -39.5q8 -97 55 -172q34 -57 33.5 -86t-37.5 -84l-10 -16q-32 -50 -59 -58t-80 17q-84 35 -164 35q-140 0 -227.5 -94t-87.5 -240q0 -144 86.5 -242t232.5 -98q79 0 145.5 32.5t108.5 85 t62.5 119.5t13.5 136q-6 58 10 82t72 39l51 14q93 25 108 -68q27 -144 -9 -274.5t-117.5 -221.5t-201 -144.5t-253.5 -53.5q-167 0 -302.5 79t-210.5 213.5t-75 295.5zM954.5 1357q-1.5 -30 24.5 -52q76 -64 168 -64q66 0 108.5 32t42.5 77q0 44 -41.5 75t-111.5 31 q-86 0 -160 -49q-29 -20 -30.5 -50zM1156.5 30q-12.5 27 6.5 52q73 69 192.5 263t248.5 470q22 46 21 74t-26 74q-18 30 -18 67q0 56 36 110.5t89 90.5q25 17 55.5 18t55.5 -14l16 -10q32 -20 40 -44t-5 -59l-17 -39q-26 -65 31 -108l38.5 -27.5t43.5 -31t40 -30.5t40.5 -35 t32.5 -35.5t29 -40t16.5 -39.5t7.5 -44q0 -39 -25 -104l-67 -172q-27 -68 -40.5 -119t-14.5 -77.5t6 -42t15.5 -19.5t18.5 -4q46 0 126 101t202 308q22 28 53.5 24t51.5 -36.5t2 -63.5q-54 -94 -96 -159.5t-98 -137.5t-106 -116t-111.5 -72.5t-123.5 -28.5q-50 0 -92 15.5 t-74 51.5t-45.5 90t-1 138t54.5 187l68 172q18 46 18 69q0 33 -45 78q-57 54 -88 -16q-127 -272 -253 -482t-201 -276q-24 -21 -59.5 -9t-48 39z" />
<glyph unicode="Fr" horiz-adv-x="2420" d="M0 250q0 168 108.5 292t284.5 142q44 5 69 -17.5t25 -66.5v-41q0 -60 -18 -83t-76 -36q-41 -10 -71 -31t-46 -49t-23 -55t-7 -55q0 -87 61.5 -147t153.5 -60q137 0 240.5 117t193.5 338l53 131q25 67 -47 67h-31q-77 0 -49 72q17 41 41.5 58.5t67.5 17.5h31 q40 0 63.5 15.5t36.5 51.5l141 353q26 66 -45 75q-85 11 -279 57t-274 46q-111 0 -166 -52t-55 -122q0 -63 41 -99t98 -36q39 0 84 18q44 21 66.5 15t50.5 -48l20 -31q23 -35 15 -68.5t-45 -55.5q-94 -54 -201 -54q-149 0 -257 98.5t-108 256.5q0 77 28 147t82 127.5 t142.5 92t200.5 34.5q111 0 326 -49.5t299 -56.5q119 -10 217 51q53 32 104 43q37 9 65 -6t40 -52q17 -55 10.5 -77.5t-43.5 -55.5q-73 -65 -109 -155l-159 -396q-25 -67 47 -67h35q77 0 49 -72q-17 -41 -41.5 -58.5t-67.5 -17.5h-37q-40 0 -63.5 -15.5t-36.5 -51.5 l-117 -291q-53 -131 -120 -230.5t-131 -156t-137 -91.5t-131 -46t-120 -11q-115 0 -208.5 38t-151.5 101.5t-88.5 142.5t-30.5 165zM1260.5 30q-12.5 27 7.5 52q72 69 191 262.5t249 470.5q22 45 21.5 74t-25.5 74q-18 30 -18 67q0 56 35.5 110.5t88.5 90.5q25 17 55.5 18 t55.5 -14l16 -10q32 -20 40 -44t-5 -59l-16 -39q-26 -65 31 -108q6 -4 38.5 -27.5t43 -31t39.5 -30.5t41 -35.5t32.5 -35t29 -40t16 -39.5t7.5 -44q0 -41 -24 -104l-68 -172q-27 -68 -40.5 -119t-14 -77.5t6.5 -42t15.5 -19.5t18.5 -4q46 0 126 101t202 308q22 28 53.5 24 t51 -36.5t1.5 -63.5q-45 -77 -80 -133.5t-80 -120t-86.5 -106.5t-88 -80.5t-97 -55.5t-102.5 -18q-50 0 -92 15.5t-74 51.5t-45.5 90t-1 138t54.5 187l67 172q19 49 19 69q0 33 -45 78q-57 54 -88 -16q-126 -271 -252.5 -481t-202.5 -277q-24 -21 -59.5 -9t-48 39z" />
<glyph unicode="Ir" horiz-adv-x="2224" d="M-125 250q0 169 108.5 292.5t282.5 141.5q44 5 69 -17.5t25 -66.5v-41q0 -60 -18 -83t-76 -36q-40 -10 -70 -31t-45.5 -49t-22.5 -55t-7 -55q0 -83 62.5 -145t158.5 -62q140 0 244 116.5t196 338.5l291 723q11 30 -1 41.5t-42 1.5q-50 -17 -75 -26t-71 -26t-71 -28.5 t-62.5 -29.5t-58 -33.5t-46 -37t-38 -42t-21.5 -46.5t-9 -53q0 -76 59 -115q65 -42 77.5 -65.5t12.5 -102.5v-8q0 -44 -25 -65t-69 -13q-138 28 -219.5 126t-79.5 233q0 71 22.5 133.5t53.5 108t93 90.5t109 72.5t135.5 63t139.5 53t152 50.5q23 8 36.5 12t33.5 10.5 t36 12.5q87 32 153 90q71 65 160 86q37 9 65 -6t40 -51q17 -55 10.5 -77.5t-43.5 -55.5q-73 -64 -109 -156l-415 -1030q-51 -126 -117 -223t-131.5 -155t-139.5 -94.5t-137 -49.5t-129 -13q-114 0 -206.5 38t-150.5 101.5t-89 142.5t-31 165zM1063.5 30q-12.5 27 7.5 52 q72 69 191 262.5t249 470.5q22 45 21.5 74t-25.5 74q-18 30 -18 67q0 56 36 110.5t89 90.5q25 17 55 18t55 -14l17 -10q32 -20 40 -44t-5 -59l-17 -39q-26 -65 31 -108l38.5 -27.5t43.5 -31t40 -30.5t40.5 -35t32.5 -35.5t29 -40t16.5 -39.5t7.5 -44q0 -39 -25 -104 l-67 -172q-27 -68 -40.5 -119t-14.5 -77.5t6 -42t15.5 -19.5t18.5 -4q46 0 126 101t202 308q22 28 53.5 24t51 -36.5t1.5 -63.5q-45 -77 -80 -133.5t-80 -120t-86.5 -106.5t-88 -80.5t-97 -55.5t-102.5 -18q-50 0 -92 15.5t-74 51.5t-45.5 90t-1 138t54.5 187l68 172 q18 46 18 69q0 33 -45 78q-57 54 -88 -16q-126 -271 -252.5 -481t-202.5 -277q-24 -21 -59.5 -9t-48 39z" />
<glyph unicode="Kr" horiz-adv-x="2762" d="M-125 250q0 110 48 204.5t138.5 156t206.5 73.5q44 5 69 -17.5t25 -66.5v-41q0 -60 -18 -83t-76 -36q-53 -13 -87.5 -46.5t-47 -69.5t-12.5 -74q0 -83 62.5 -145t160.5 -62q74 0 137 31.5t116.5 94t97 141.5t87.5 188l267 663q12 31 1 44t-42 5q-24 -7 -64 -18t-64 -18 t-59.5 -18t-57.5 -19.5t-50.5 -21.5t-45.5 -25t-36 -28.5t-29.5 -34t-17 -39.5t-6.5 -46q0 -76 59 -115q65 -42 77.5 -65.5t12.5 -102.5v-8q0 -44 -25 -65t-69 -13q-138 28 -219.5 126t-79.5 233q0 55 12.5 103t32.5 85.5t53.5 71.5t68 59t84.5 49.5t93.5 41.5t104 37 t107.5 33.5t113.5 32.5t112.5 34q89 27 158 88q76 66 160 86q37 9 64.5 -6t39.5 -52q18 -55 12.5 -77.5t-43.5 -55.5q-72 -63 -108 -155l-203 -500q-14 -32 -1 -52.5t48 -21.5q108 -5 194 67t154 240l131 326q131 329 473 303q46 -3 65 -28.5t9 -69.5l-2 -10 q-12 -57 -36.5 -79t-82.5 -26q-51 -7 -90.5 -43t-75.5 -123l-94 -229q-153 -377 -399 -463q-32 -12 -36.5 -28t17.5 -42q94 -113 52 -370l-58 -322q-13 -73 -4.5 -116t45.5 -60q63 -29 77.5 -52.5t14.5 -94.5q0 -46 -24 -70t-70 -23q-170 6 -254.5 125.5t-54.5 290.5l49 277 q33 193 12.5 287t-104.5 153q-8 6 -18.5 10.5t-22.5 3.5t-16 -12l-88 -217q-51 -126 -116.5 -223t-131 -155t-139.5 -94.5t-137 -49.5t-128 -13q-115 0 -208 38t-151 101.5t-89 142.5t-31 165zM1602.5 30q-12.5 27 7.5 52q72 69 191 262.5t249 470.5q22 45 21.5 74t-25.5 74 q-18 30 -18 67q0 56 35.5 110.5t88.5 90.5q25 17 55.5 18t55.5 -14l16 -10q32 -20 40 -44t-5 -59l-16 -39q-26 -65 31 -108q6 -4 38.5 -27.5t43 -31t39.5 -30.5t41 -35.5t32.5 -35t29 -40t16 -39.5t7.5 -44q0 -41 -24 -104l-68 -172q-27 -68 -40.5 -119t-14 -77.5t6.5 -42 t15.5 -19.5t18.5 -4q46 0 126 101t202 308q22 28 53.5 24t51 -36.5t1.5 -63.5q-45 -77 -80 -133.5t-80 -120t-86.5 -106.5t-88 -80.5t-97 -55.5t-102.5 -18q-50 0 -92 15.5t-74 51.5t-45.5 90t-1 138t54.5 187l67 172q19 49 19 69q0 33 -45 78q-57 54 -88 -16 q-126 -271 -252.5 -481t-202.5 -277q-24 -21 -59.5 -9t-48 39z" />
<glyph unicode="Mr" horiz-adv-x="3186" d="M0 909q0 58 14.5 110t38 93.5t62.5 80t79 68t97 59.5t107.5 51t119.5 46.5t123 43.5t128 43t126 44q49 17 86 12t80 -36l80 -60q34 -26 60 -26.5t63 24.5q72 49 148.5 75t137.5 26q71 0 120.5 -34.5t68.5 -94.5q9 -31 24 -35t41 16q90 73 183.5 110.5t164.5 37.5 q92 0 144.5 -56t52.5 -145q0 -94 -76 -285l-434 -1073q-52 -132 2 -199q44 -54 48.5 -82.5t-21.5 -93.5l-10 -26q-17 -43 -48 -54t-71 11q-78 42 -126.5 97.5t-66.5 120t-11 136t38 149.5l369 914q9 22 27 67.5t26.5 66.5t19 51t15 48.5t4.5 30.5q0 53 -56 53 q-43 0 -111 -36t-134 -97q-50 -50 -74 -108l-397 -992q-19 -47 -48.5 -67.5t-80.5 -20.5h-101q-46 0 -61 22.5t2 65.5l366 916q8 19 20.5 49.5t20 48t17.5 42t15.5 40.5t11 33t8 29.5t2.5 21.5q0 53 -58 53q-43 0 -107 -34.5t-130 -92.5q-51 -44 -76 -106l-401 -1000 q-19 -47 -49 -67.5t-81 -20.5h-100q-46 0 -61 22.5t2 65.5l471 1170q11 31 -0.5 43t-42.5 2q-29 -10 -81.5 -28t-82.5 -28.5t-76.5 -27.5t-74.5 -29.5t-65.5 -30.5t-60 -33.5t-47.5 -36.5t-38 -42t-22 -46t-9 -52q0 -76 59 -115q65 -42 77.5 -65.5t12.5 -102.5v-10 q0 -44 -25 -65t-69 -13q-138 28 -219.5 125.5t-79.5 232.5zM2026.5 30q-12.5 27 7.5 52q72 69 191 262.5t249 470.5q22 45 21.5 74t-25.5 74q-19 32 -19 67q0 56 36 110.5t89 90.5q25 17 55.5 18t55.5 -14l16 -10q32 -20 40 -44t-5 -59l-16 -39q-26 -65 31 -108 q6 -4 38.5 -27.5t43 -31t39.5 -30.5t41 -35.5t32.5 -35t29 -40t16 -39.5t7.5 -44q0 -41 -24 -104l-68 -172q-27 -68 -40.5 -119t-14 -77.5t6.5 -42t15.5 -19.5t18.5 -4q46 0 126 101t202 308q22 28 53.5 24t51 -36.5t1.5 -63.5q-54 -94 -96 -159.5t-98 -137.5t-106 -116 t-111.5 -72.5t-123.5 -28.5q-50 0 -92 15.5t-74 51.5t-45 90t-0.5 138t54.5 187l67 172q19 49 19 69q0 33 -45 78q-57 54 -88 -16q-126 -271 -252.5 -481t-202.5 -277q-24 -21 -59.5 -9t-48 39z" />
<glyph unicode="Pr" horiz-adv-x="2324" d="M-4 1014q0 97 30.5 197t96.5 197t159 172t229 121t296 46q136 0 251 -34t196 -93t138.5 -138.5t85 -169.5t27.5 -186q0 -153 -65.5 -292t-182 -233t-276.5 -124.5t-350 33.5q-38 13 -61 3t-38 -48l-161 -404q-19 -47 -48.5 -67.5t-80.5 -20.5h-101q-46 0 -61 22.5t2 65.5 l434 1076q40 97 118 174t179 102q37 9 65 -6t40 -51q18 -55 12.5 -77.5t-43.5 -55.5q-71 -63 -109 -156l-116 -285q-26 -69 43 -90q81 -22 157 -14.5t143 47.5t117.5 98t79.5 136.5t29 162.5q0 58 -14.5 113t-47 108t-80.5 92t-120.5 63t-161.5 24q-107 0 -201.5 -32 t-160.5 -84.5t-114.5 -118.5t-71.5 -134.5t-23 -132.5q0 -48 14 -102q15 -57 4.5 -87t-57.5 -65l-35 -27q-37 -26 -67.5 -18t-47.5 49q-51 120 -51 244zM1164.5 30q-12.5 27 6.5 52q73 69 192.5 263t248.5 470q22 45 21.5 74t-25.5 74q-19 32 -19 67q0 56 36 110.5t89 90.5 q25 17 55.5 18t55.5 -14l16 -10q32 -20 40 -44t-5 -59l-16 -39q-26 -66 30 -108l38.5 -27.5t43.5 -31t40 -30.5t40.5 -35t32.5 -35.5t29 -40t16.5 -39.5t7.5 -44q0 -41 -24 -104l-68 -172q-27 -68 -40.5 -119t-14 -77.5t6.5 -42t15.5 -19.5t18.5 -4q46 0 125.5 101 t201.5 308q22 28 53.5 24t51.5 -36.5t2 -63.5q-54 -94 -96 -159.5t-98 -137.5t-106 -116t-111.5 -72.5t-123.5 -28.5q-50 0 -92 15.5t-74 51.5t-45 90t-0.5 138t54.5 187l67 172q19 49 19 69q0 33 -45 78q-28 26 -51 22t-38 -38q-127 -272 -253 -482t-201 -276 q-24 -21 -59.5 -9t-48 39z" />
<glyph unicode="Sr" horiz-adv-x="2371" d="M-96 -393q0 192 127 387q25 39 26.5 62.5t-20.5 62.5q-78 140 -78 309q0 88 21 168.5t59 144t89.5 115t113.5 85t129.5 51.5t140 16t141.5 -23q44 -12 59 -43t-3 -72l-15 -39q-22 -54 -48 -68t-83 -3q-142 26 -244 -70t-102 -252q0 -61 14 -110q10 -35 34 -41.5t50 18.5 q79 75 277 257t285 263q30 27 39.5 55t1.5 68q-35 182 -35 305q0 224 107 354t286 130q77 0 137 -26t96 -69.5t54 -95.5t18 -108q0 -66 -24 -133.5t-71.5 -135.5t-97.5 -125t-122 -129q-29 -28 -38 -55t-3 -67q35 -194 35 -316q0 -197 -85.5 -348t-234.5 -232t-338 -81 q-173 0 -323 75q-34 17 -57.5 11t-43.5 -37q-84 -127 -84 -258q0 -52 -20.5 -72t-73.5 -20h-4q-44 0 -68 24t-24 68zM439.5 118q5.5 -23 37.5 -32q53 -18 117 -18q173 0 284 118t111 303q0 35 -6 78q-3 34 -20.5 40t-40.5 -17l-463 -426q-25 -23 -19.5 -46zM1151 1276 q0 -44 6 -96q3 -33 21 -39t41 18q71 78 104 136t33 110q0 39 -19 64.5t-59 25.5q-45 0 -75 -36t-41 -83t-11 -100zM1211.5 30q-12.5 27 7.5 52q72 69 191 262.5t249 470.5q22 45 21.5 74t-25.5 74q-19 32 -19 67q0 56 36 110.5t89 90.5q25 17 55.5 18t55.5 -14l16 -10 q32 -20 40 -44t-5 -59l-16 -39q-26 -66 30 -108l38.5 -27.5t43.5 -31t40 -30.5t40.5 -35t32.5 -35.5t29 -40t16.5 -39.5t7.5 -44q0 -41 -24 -104l-68 -172q-27 -68 -40.5 -119t-14 -77.5t6.5 -42t15.5 -19.5t18.5 -4q46 0 125.5 101t201.5 308q22 28 53.5 24t51.5 -36.5 t2 -63.5q-54 -94 -96 -159.5t-98 -137.5t-106 -116t-111.5 -72.5t-123.5 -28.5q-50 0 -92 15.5t-74 51.5t-45 90t-0.5 138t54.5 187l67 172q19 49 19 69q0 33 -45 78q-57 54 -88 -16q-126 -271 -252.5 -481t-202.5 -277q-24 -21 -59.5 -9t-48 39z" />
<glyph unicode="Tr" horiz-adv-x="2316" d="M0 358q0 109 47 203t137 157t207 75q44 5 69 -17.5t25 -66.5v-41q0 -60 -18 -83t-76 -36q-53 -13 -87 -47t-46 -70.5t-12 -75.5q0 -87 61.5 -145.5t155.5 -58.5q141 0 240.5 113.5t191.5 340.5l281 694q26 66 -46 84q-25 5 -106.5 22.5t-111.5 24t-94.5 19t-99 17.5 t-78 9.5t-75.5 4.5q-113 0 -167 -45.5t-54 -112.5q0 -61 42.5 -97t100.5 -36q44 0 82 20q43 20 65 14t48 -46l25 -35q23 -36 15 -68.5t-44 -54.5q-96 -53 -205 -53q-150 0 -257 98t-107 260q0 60 16 116t53 107.5t90.5 90t134 61t179.5 22.5q108 0 273.5 -29.5t311 -64.5 t315 -64.5t283.5 -29.5q102 0 170 22q66 20 91 18t83 -36q28 -15 34 -44t-15 -62q-99 -140 -352 -140q-107 0 -230 15q-41 4 -64 -9.5t-38 -50.5l-326 -801q-44 -110 -98 -197t-110 -144t-112 -96.5t-114.5 -59.5t-107 -28.5t-99.5 -8.5q-114 0 -206.5 38t-150.5 101 t-89 142t-31 165zM1156.5 30q-12.5 27 6.5 52q73 69 192.5 263t248.5 470q22 46 21 74t-26 74q-18 30 -18 67q0 56 36 110.5t89 90.5q25 17 55.5 18t55.5 -14l16 -10q32 -20 40 -44t-5 -59l-17 -39q-26 -65 31 -108l38.5 -27.5t43.5 -31t40 -30.5t40.5 -35t32.5 -35.5 t29 -40t16.5 -39.5t7.5 -44q0 -39 -25 -104l-67 -172q-27 -68 -40.5 -119t-14.5 -77.5t6 -42t15.5 -19.5t18.5 -4q46 0 126 101t202 308q22 28 53.5 24t51.5 -36.5t2 -63.5q-54 -94 -96 -159.5t-98 -137.5t-106 -116t-111.5 -72.5t-123.5 -28.5q-50 0 -92 15.5t-74 51.5 t-45.5 90t-1 138t54.5 187l68 172q18 46 18 69q0 33 -45 78q-57 54 -88 -16q-127 -272 -253 -482t-201 -276q-24 -21 -59.5 -9t-48 39z" />
<glyph unicode="Wr" horiz-adv-x="3090" d="M0 842q0 225 217 368q127 83 397 173q31 10 94 30q74 25 111 37q86 31 144 92q86 86 186 111q37 9 64.5 -6t39.5 -52q18 -54 12.5 -77t-42.5 -56q-71 -63 -111 -157l-348 -875q-28 -68 -42 -119t-16 -78.5t5.5 -44.5t17.5 -21.5t25 -4.5q77 0 179 118.5t181 297.5 l332 821q19 47 48.5 67.5t80.5 20.5h102q46 0 61.5 -22.5t-1.5 -65.5l-389 -969q-28 -69 -42 -119t-16.5 -78t4.5 -44.5t17.5 -21.5t25.5 -5q81 0 187 123.5t174 294.5l321 792q130 327 471 297q46 -3 65 -28.5t9 -69.5l-2 -10q-12 -57 -36.5 -79t-82.5 -26 q-51 -5 -91 -40.5t-75 -121.5l-299 -739q-37 -92 -79.5 -174t-104.5 -168.5t-130 -148t-157.5 -101t-185.5 -39.5q-97 0 -155.5 38t-78.5 99q-11 31 -25.5 35t-39.5 -18q-170 -154 -346 -154q-86 0 -144 36.5t-85.5 108.5t-11.5 190.5t79 272.5l242 603q11 30 -1 41.5 t-42 1.5q-215 -73 -295 -115q-172 -92 -174 -211q0 -76 59 -115q65 -42 77.5 -65.5t12.5 -102.5v-10q0 -44 -25 -65t-69 -13q-138 28 -219.5 127t-79.5 234zM1930.5 30q-12.5 27 6.5 52q73 69 192.5 263t248.5 470q22 45 21.5 74t-25.5 74q-19 32 -19 67q0 56 36 110.5 t89 90.5q25 17 55.5 18t55.5 -14l16 -10q32 -20 40 -44t-5 -59l-16 -39q-26 -66 30 -108l38.5 -27.5t43.5 -31t40 -30.5t40.5 -35t32.5 -35.5t29 -40t16.5 -39.5t7.5 -44q0 -39 -25 -104l-67 -172q-27 -68 -40.5 -119t-14 -77.5t6.5 -42t15.5 -19.5t18.5 -4q46 0 125.5 101 t201.5 308q22 28 53.5 24t51.5 -36.5t2 -63.5q-54 -94 -96 -159.5t-98 -137.5t-106 -116t-111.5 -72.5t-123.5 -28.5q-50 0 -92 15.5t-74 51.5t-45 90t-0.5 138t54.5 187l67 172q19 49 19 69q0 32 -46 78q-57 54 -88 -16q-127 -272 -253 -482t-201 -276q-24 -21 -59.5 -9 t-48 39z" />
<glyph unicode="Es" horiz-adv-x="2267" d="M0 379q0 120 44.5 228.5t119 186.5t173.5 125.5t206 51.5q38 2 50.5 16.5t6.5 52.5q-8 50 -8 88q0 129 51 240q18 39 20.5 65t-8.5 68q-23 95 -26 205q-3 90 88 78q53 -7 74 -29t24 -72v-8q6 -77 72 -39q130 70 276 70q96 0 172 -29.5t120 -78t66.5 -105.5t22.5 -117 q-2 -141 -105.5 -243.5t-275.5 -102.5q-147 0 -258 82q-25 19 -38.5 10.5t-10.5 -39.5q8 -97 55 -172q34 -57 33.5 -86t-37.5 -84l-10 -16q-32 -50 -59 -58t-80 17q-84 35 -164 35q-140 0 -227.5 -94t-87.5 -240q0 -144 86.5 -242t232.5 -98q79 0 145.5 32.5t108.5 85 t62.5 119.5t13.5 136q-6 58 10 82t72 39l51 14q93 25 108 -68q27 -144 -9 -274.5t-117.5 -221.5t-201 -144.5t-253.5 -53.5q-167 0 -302.5 79t-210.5 213.5t-75 295.5zM954.5 1357q-1.5 -30 24.5 -52q76 -64 168 -64q66 0 108.5 32t42.5 77q0 44 -41.5 75t-111.5 31 q-86 0 -160 -49q-29 -20 -30.5 -50zM1134.5 4q-12.5 27 8.5 53q134 131 348 508q120 209 256 484q23 46 53 59t80 0l59 -18q51 -13 68.5 -40.5t9.5 -78.5q-12 -92 -14 -196t2 -178t9 -156.5t5 -118.5q0 -42 -2 -58q-3 -29 10 -35.5t35 13.5q113 103 240 321q21 28 52 24.5 t51 -36t3 -64.5q-49 -88 -95 -156.5t-109.5 -138.5t-131 -115.5t-155.5 -74.5t-186 -29q-158 0 -263 76q-31 22 -29 53.5t34 53.5q42 26 70.5 30t58 -4t43.5 -8q56 0 83 54.5t27 195.5q0 37 -3 132.5t-3 148.5q0 26 -10.5 28.5t-22.5 -20.5q-91 -178 -119 -226 q-104 -184 -202 -326t-152 -188q-24 -20 -60 -8t-48.5 39z" />
<glyph unicode="Is" horiz-adv-x="2166" d="M-125 250q0 169 108.5 292.5t282.5 141.5q44 5 69 -17.5t25 -66.5v-41q0 -60 -18 -83t-76 -36q-40 -10 -70 -31t-45.5 -49t-22.5 -55t-7 -55q0 -83 62.5 -145t158.5 -62q140 0 244 116.5t196 338.5l291 723q11 30 -1 41.5t-42 1.5q-50 -17 -75 -26t-71 -26t-71 -28.5 t-62.5 -29.5t-58 -33.5t-46 -37t-38 -42t-21.5 -46.5t-9 -53q0 -76 59 -115q65 -42 77.5 -65.5t12.5 -102.5v-8q0 -44 -25 -65t-69 -13q-138 28 -219.5 126t-79.5 233q0 71 22.5 133.5t53.5 108t93 90.5t109 72.5t135.5 63t139.5 53t152 50.5q23 8 36.5 12t33.5 10.5 t36 12.5q87 32 153 90q71 65 160 86q37 9 65 -6t40 -51q17 -55 10.5 -77.5t-43.5 -55.5q-73 -64 -109 -156l-415 -1030q-51 -126 -117 -223t-131.5 -155t-139.5 -94.5t-137 -49.5t-129 -13q-114 0 -206.5 38t-150.5 101.5t-89 142.5t-31 165zM1034.5 4q-12.5 27 7.5 53 q137 133 349 508q120 209 256 484q23 46 53 59t80 0l59 -18q51 -13 68.5 -40.5t9.5 -78.5q-12 -92 -14 -196t2 -178t9 -156.5t5 -118.5q0 -42 -2 -58q-3 -29 10 -35.5t35 13.5q113 103 240 321q21 28 52 24.5t51 -36t3 -64.5q-49 -88 -95 -156.5t-109.5 -138.5t-131 -115.5 t-156 -74.5t-186.5 -29q-157 0 -262 76q-31 22 -29.5 53.5t33.5 53.5q42 26 70.5 30t58 -4t43.5 -8q56 0 83.5 54.5t27.5 195.5q0 37 -3 132.5t-3 148.5q0 26 -10.5 28.5t-22.5 -20.5q-91 -178 -119 -226q-104 -184 -202 -326t-152 -188q-24 -20 -60 -8t-48.5 39z" />
<glyph unicode="Ms" horiz-adv-x="3139" d="M0 909q0 58 14.5 110t38 93.5t62.5 80t79 68t97 59.5t107.5 51t119.5 46.5t123 43.5t128 43t126 44q49 17 86 12t80 -36l80 -60q34 -26 60 -26.5t63 24.5q72 49 148.5 75t137.5 26q71 0 120.5 -34.5t68.5 -94.5q9 -31 24 -35t41 16q90 73 183.5 110.5t164.5 37.5 q92 0 144.5 -56t52.5 -145q0 -94 -76 -285l-434 -1073q-52 -132 2 -199q44 -54 48.5 -82.5t-21.5 -93.5l-10 -26q-17 -43 -48 -54t-71 11q-78 42 -126.5 97.5t-66.5 120t-11 136t38 149.5l369 914q9 22 27 67.5t26.5 66.5t19 51t15 48.5t4.5 30.5q0 53 -56 53 q-43 0 -111 -36t-134 -97q-50 -50 -74 -108l-397 -992q-19 -47 -48.5 -67.5t-80.5 -20.5h-101q-46 0 -61 22.5t2 65.5l366 916q8 19 20.5 49.5t20 48t17.5 42t15.5 40.5t11 33t8 29.5t2.5 21.5q0 53 -58 53q-43 0 -107 -34.5t-130 -92.5q-51 -44 -76 -106l-401 -1000 q-19 -47 -49 -67.5t-81 -20.5h-100q-46 0 -61 22.5t2 65.5l471 1170q11 31 -0.5 43t-42.5 2q-29 -10 -81.5 -28t-82.5 -28.5t-76.5 -27.5t-74.5 -29.5t-65.5 -30.5t-60 -33.5t-47.5 -36.5t-38 -42t-22 -46t-9 -52q0 -76 59 -115q65 -42 77.5 -65.5t12.5 -102.5v-10 q0 -44 -25 -65t-69 -13q-138 28 -219.5 125.5t-79.5 232.5zM2007.5 4q-12.5 27 7.5 53q134 131 348 508q120 209 256 484q23 46 54 59.5t80 -0.5l59 -18q51 -13 68.5 -40.5t9.5 -78.5q-12 -92 -14 -196t2 -178t9 -156.5t5 -118.5q0 -42 -2 -58q-3 -29 10 -35.5t35 13.5 q111 101 239 321q21 28 52 24.5t51.5 -36t3.5 -64.5q-49 -88 -95 -156.5t-109.5 -138.5t-131 -115.5t-156 -74.5t-186.5 -29q-157 0 -262 76q-31 22 -29.5 53.5t33.5 53.5q42 26 70.5 30t58 -4t43.5 -8q56 0 83.5 54.5t27.5 195.5q0 38 -3.5 133t-3.5 148q0 26 -10 28.5 t-22 -20.5q-91 -178 -119 -226q-104 -184 -202 -326t-152 -188q-24 -20 -60 -8t-48.5 39z" />
<glyph unicode="Ps" horiz-adv-x="2277" d="M-4 1014q0 97 30.5 197t96.5 197t159 172t229 121t296 46q136 0 251 -34t196 -93t138.5 -138.5t85 -169.5t27.5 -186q0 -153 -65.5 -292t-182 -233t-276.5 -124.5t-350 33.5q-38 13 -61 3t-38 -48l-161 -404q-19 -47 -48.5 -67.5t-80.5 -20.5h-101q-46 0 -61 22.5t2 65.5 l434 1076q40 97 118 174t179 102q37 9 65 -6t40 -51q18 -55 12.5 -77.5t-43.5 -55.5q-71 -63 -109 -156l-116 -285q-26 -69 43 -90q81 -22 157 -14.5t143 47.5t117.5 98t79.5 136.5t29 162.5q0 58 -14.5 113t-47 108t-80.5 92t-120.5 63t-161.5 24q-107 0 -201.5 -32 t-160.5 -84.5t-114.5 -118.5t-71.5 -134.5t-23 -132.5q0 -48 14 -102q15 -57 4.5 -87t-57.5 -65l-35 -27q-37 -26 -67.5 -18t-47.5 49q-51 120 -51 244zM1144.5 4q-12.5 27 8.5 53q134 131 348 508q120 209 256 484q23 46 53 59t80 0l60 -18q51 -13 68.5 -40.5t9.5 -78.5 q-12 -92 -14 -196t2 -178t9 -156.5t5 -118.5q0 -42 -2 -58q-3 -29 10 -35.5t35 13.5q111 101 239 321q21 28 52 24.5t51.5 -36t3.5 -64.5q-49 -88 -95 -156.5t-109.5 -138.5t-131 -115.5t-156 -74.5t-186.5 -29q-157 0 -262 76q-31 22 -29.5 53.5t33.5 53.5q42 26 70.5 30 t58 -4t43.5 -8q56 0 83 54.5t27 195.5q0 37 -3 132.5t-3 148.5q0 26 -10.5 28.5t-22.5 -20.5q-100 -195 -118 -226q-103 -183 -202 -325.5t-153 -188.5q-24 -20 -60 -8t-48.5 39z" />
<glyph unicode="Vs" horiz-adv-x="2545" d="M0 842q0 70 21.5 131.5t55.5 108t90 89.5t111 73.5t133 62t141.5 53.5t150.5 51q67 22 100 33q49 17 78.5 36.5t64.5 57.5q85 91 207 117q79 16 104 -60q17 -51 9.5 -72.5t-52.5 -54.5q-81 -57 -106 -170l-201 -917q-6 -29 6 -37.5t35 10.5q137 111 248.5 244.5 t183.5 258t126 261t81 245t43 216.5q6 52 30 76.5t77 32.5l78 10q92 15 83 -80q-10 -91 -26 -179t-50.5 -211.5t-82 -237.5t-125.5 -247.5t-175 -253t-236.5 -243t-305.5 -226.5q-77 -47 -168 -47h-98q-95 0 -74 93l238 1075q7 32 -7.5 45t-46.5 2q-214 -73 -281 -104 q-179 -81 -209 -184q-7 -23 -7 -48q0 -76 59 -115q65 -42 77.5 -65.5t12.5 -102.5v-10q0 -44 -25 -65t-69 -13q-138 28 -219.5 127t-79.5 234zM1413.5 4q-12.5 27 7.5 53q134 131 348 508q120 209 256 484q23 46 54 59.5t80 -0.5l59 -18q51 -13 68.5 -40.5t9.5 -78.5 q-12 -92 -14 -196t2 -178t9 -156.5t5 -118.5q0 -42 -2 -58q-3 -29 10 -35.5t35 13.5q111 101 239 321q21 28 52 24.5t51.5 -36t3.5 -64.5q-49 -88 -95 -156.5t-109.5 -138.5t-131 -115.5t-156 -74.5t-186.5 -29q-157 0 -262 76q-31 22 -29.5 53.5t33.5 53.5q42 26 70.5 30 t58 -4t43.5 -8q56 0 83.5 54.5t27.5 195.5q0 37 -3 132.5t-3 148.5q0 26 -10.5 28.5t-22.5 -20.5q-91 -178 -119 -226q-104 -184 -202 -326t-152 -188q-24 -20 -60 -8t-48.5 39z" />
<glyph unicode="tt" horiz-adv-x="1253" d="M-65.5 246q10.5 100 63.5 233l209 516q14 32 2 50t-47 18h-27q-75 0 -47 72q17 41 41 57t66 16h24q40 0 64 15.5t39 52.5l43 104q19 47 48.5 67.5t80.5 20.5h100q46 0 61 -22.5t-2 -65.5l-43 -104q-14 -32 -2 -50t47 -18h191q40 0 63.5 15.5t38.5 52.5l43 104 q19 47 48.5 67.5t80.5 20.5h101q46 0 61 -22.5t-2 -65.5l-43 -104q-14 -32 -2 -50t47 -18h21q74 0 47 -71q-17 -41 -41 -57.5t-66 -16.5h-18q-40 0 -64 -15.5t-39 -52.5l-233 -579q-27 -67 -40.5 -116.5t-15 -76.5t6.5 -43.5t18.5 -21t26.5 -4.5q80 0 186 109t217 300 q22 28 53.5 24.5t51.5 -36t2 -64.5q-295 -514 -607 -514q-102 0 -164 53t-65 162q-198 -215 -397 -215q-75 0 -128 28t-81.5 86.5t-18 158.5zM206.5 223q-1.5 -27 6.5 -43.5t18.5 -21t26.5 -4.5q78 0 181.5 105t211.5 288l183 448q13 32 1 50t-47 18h-190q-40 0 -63.5 -15.5 t-38.5 -52.5l-234 -579q-27 -67 -40.5 -116.5t-15 -76.5z" />
<glyph unicode="&#xd;" horiz-adv-x="778" />
<glyph unicode=" "  horiz-adv-x="512" />
<glyph unicode="&#x09;" horiz-adv-x="512" />
<glyph unicode="&#xa0;" horiz-adv-x="512" />
<glyph unicode="!" horiz-adv-x="782" d="M121 162q0 78 55 133t133 55q79 0 135 -55t56 -133t-56 -133.5t-135 -55.5q-78 0 -133 55.5t-55 133.5zM369 547l272 831q15 49 43.5 69.5t79.5 20.5h145q45 0 59.5 -22t-5.5 -62l-406 -841q-20 -42 -48.5 -60t-74.5 -18h-4q-86 0 -61 82z" />
<glyph unicode="&#x22;" horiz-adv-x="970" d="M168 780l141 596q12 51 54 85t96 34q65 0 112 -46t47 -108q0 -49 -22 -86l-279 -481q-19 -31 -40 -43t-56 -12h-4q-64 0 -49 61zM635 780l143 596q11 51 52.5 85t97.5 34q65 0 111 -46t46 -108q0 -44 -22 -86l-279 -481q-19 -31 -40 -43t-56 -12h-4q-64 0 -49 61z" />
<glyph unicode="#" horiz-adv-x="1486" d="M-12 364.5q-15 22.5 2 65.5l12 27q19 47 48.5 67.5t80.5 20.5h102q40 0 64 15.5t39 51.5l96 242q14 32 2 50t-47 18h-102q-46 0 -61.5 22.5t1.5 65.5l11 26q19 47 48.5 67.5t80.5 20.5h102q40 0 63.5 15.5t38.5 52.5l76 188q19 47 48.5 67.5t80.5 20.5h57 q46 0 61.5 -22.5t-1.5 -65.5l-76 -188q-14 -32 -2 -50t47 -18h129q40 0 64 15.5t39 52.5l75 188q19 47 48.5 67.5t80.5 20.5h56q46 0 61 -22.5t-2 -65.5l-76 -188q-25 -68 47 -68h105q46 0 61 -22.5t-2 -65.5l-12 -26q-19 -47 -48.5 -67.5t-80.5 -20.5h-107 q-40 0 -63.5 -15.5t-36.5 -52.5l-98 -242q-25 -67 47 -67h106q46 0 61.5 -22.5t-3.5 -63.5l-11 -31q-20 -46 -50 -66t-81 -20h-104q-40 0 -63.5 -15.5t-38.5 -52.5l-76 -186q-19 -47 -48.5 -67.5t-80.5 -20.5h-53q-46 0 -61.5 22.5t1.5 65.5l76 186q14 32 2 50t-47 18h-131 q-40 0 -64 -15.5t-39 -52.5l-75 -186q-19 -47 -48.5 -67.5t-80.5 -20.5h-56q-46 0 -61 22.5t2 65.5l76 186q14 32 2 50t-47 18h-105q-46 0 -61 22.5zM578 562.5q12 -17.5 47 -17.5h131q40 0 63.5 15.5t38.5 51.5l96 242q14 32 2 50t-47 18h-131q-40 0 -63.5 -15.5 t-38.5 -52.5l-96 -242q-14 -32 -2 -49.5z" />
<glyph unicode="$" horiz-adv-x="1001" d="M3 400.5q5 51.5 20 101.5q12 42 42.5 65t73.5 23h76q93 0 59 -84q-32 -88 -22 -141q6 -31 28.5 -33.5t34.5 26.5l101 248q15 38 10.5 65.5t-31.5 59.5q-62 75 -97.5 148t-35.5 161q0 158 117.5 272t296.5 124q44 3 65.5 18.5t38.5 56.5l13 31q14 32 34.5 46t55.5 14h4 q64 0 39 -60l-23 -53q-15 -41 -8 -63.5t45 -45.5q52 -31 82 -79.5t37 -102.5t3 -103t-18 -98q-12 -42 -42 -65t-72 -23h-78q-89 0 -55 84q34 76 28 137q-4 21 -15.5 30t-24.5 3.5t-21 -24.5l-96 -246q-16 -38 -11.5 -66.5t31.5 -58.5q66 -78 102.5 -150t36.5 -157 q0 -50 -14 -101.5t-46.5 -103.5t-79.5 -93t-120.5 -69t-163.5 -33q-43 -1 -65 -17t-37 -56l-18 -45q-13 -32 -33.5 -46t-54.5 -14h-5q-65 0 -40 60l24 63q15 41 7 63t-46 42q-57 29 -90 77.5t-40 104.5t-2 107.5zM444 346q-12 -29 2.5 -42.5t42.5 1.5q46 26 69.5 71.5 t23.5 92.5q0 27 -17 61q-7 15 -16 20t-18 -1t-15 -21zM506 1036q0 -26 14 -57q10 -20 24 -20t23 22l68 170q12 30 -2.5 43t-42.5 -4q-42 -26 -63 -69.5t-21 -84.5z" />
<glyph unicode="%" horiz-adv-x="1449" d="M109 870q0 126 88.5 215t214.5 89q125 0 213 -89t88 -215q0 -124 -88.5 -212.5t-212.5 -88.5q-126 0 -214.5 88t-88.5 213zM232 20.5q-10 20.5 16 51.5l850 1030q33 39 68 55.5t85 16.5h17q41 0 51 -20.5t-16 -51.5l-852 -1030q-32 -39 -67.5 -55.5t-86.5 -16.5h-14 q-41 0 -51 20.5zM301 870q0 -46 31.5 -78t77.5 -32t78 32t32 78t-32 78.5t-78 32.5t-77.5 -32.5t-31.5 -78.5zM836 303q0 125 88.5 213t214.5 88q125 0 214 -88.5t89 -212.5q0 -126 -89 -214.5t-214 -88.5q-126 0 -214.5 88.5t-88.5 214.5zM1026 301q0 -46 33 -77t80 -31 q46 0 78 31t32 77t-32 78.5t-78 32.5q-47 0 -80 -32.5t-33 -78.5z" />
<glyph unicode="&#x26;" horiz-adv-x="1466" d="M2 489q0 190 118.5 332.5t293.5 173.5q41 7 52.5 22.5t6.5 57.5q-4 16 -4 51q0 190 131 315.5t322 125.5q91 0 164 -31t116.5 -81.5t66.5 -109.5t23 -120q0 -123 -82 -211t-202 -88q-102 0 -156.5 65.5t-40.5 145.5q7 51 43.5 81.5t83.5 30.5q53 0 86 -41q19 -22 34 -16 t15 35q2 54 -40.5 96.5t-108.5 42.5q-89 0 -158.5 -65.5t-69.5 -174.5q0 -83 41 -149q34 -54 33.5 -84t-35.5 -82l-4 -6q-29 -43 -51.5 -50.5t-75.5 9.5q-40 16 -88 16q-109 0 -188.5 -83t-79.5 -203q0 -116 76 -200.5t217 -84.5q135 0 228 80.5t118 195.5q7 35 -11.5 53 t-52.5 7q-94 -32 -121 -94q-22 -49 -41.5 -63.5t-64.5 -14.5q-38 0 -54 20.5t-7 57.5q13 56 34.5 100t54.5 76.5t69 55.5t88 40.5t102 29t121 23.5q169 26 226.5 44t65.5 59q13 74 26.5 94t59.5 37q43 17 73 2t44 -60q44 -139 -23 -227.5t-266 -124.5q-43 -7 -59 -25 t-21 -61q-18 -146 -95.5 -268t-208.5 -197.5t-289 -75.5q-152 0 -275.5 69t-191.5 187t-68 260z" />
<glyph unicode="'" horiz-adv-x="503" d="M168 780l141 596q12 51 54 85t96 34q65 0 112 -46t47 -108q0 -49 -22 -86l-279 -481q-19 -31 -40 -43t-56 -12h-4q-64 0 -49 61z" />
<glyph unicode="(" horiz-adv-x="862" d="M-45 10q0 85 63 242l408 1010q18 45 33.5 77.5t49 84.5t74 97t107.5 104t152 118q76 52 125 -29l39 -65q26 -44 19 -75.5t-48 -60.5q-217 -156 -287 -329l-371 -918q-4 -10 -17 -42t-19 -47t-16.5 -43.5t-15.5 -46.5t-9 -39.5t-4 -37.5q0 -43 24 -96q23 -51 15 -79 t-54 -60l-61 -43q-78 -53 -125 28q-82 146 -82 250z" />
<glyph unicode=")" horiz-adv-x="862" d="M9.5 -99q6.5 31 47.5 60q216 156 287 330l371 917q4 10 20.5 50t23.5 58t18 50t15.5 55.5t4.5 42.5q0 42 -25 97q-23 51 -15 79t54 60l61 43q77 53 125 -29q82 -146 82 -250q0 -84 -63 -241l-408 -1010q-24 -58 -46 -100t-67.5 -106t-121 -133t-180.5 -142 q-77 -53 -125 28l-39 66q-26 44 -19.5 75z" />
<glyph unicode="*" horiz-adv-x="866" d="M99.5 976.5q12.5 58.5 60.5 72.5l106 34q29 11 30.5 27.5t-26.5 30.5l-100 51q-29 14 -41 46t-6 67.5t27 62.5q35 40 91 46t87 -34l67 -92q19 -25 35 -20.5t21 35.5l18 112q6 49 59 71t101 1q49 -20 72.5 -71t-5.5 -93l-65 -94q-18 -26 -10 -40t38 -9l113 20 q49 10 86.5 -34t32.5 -97q-3 -55 -45 -93.5t-90 -21.5l-113 35q-30 8 -40 -4.5t5 -40.5l54 -100q24 -43 -6.5 -92.5t-82.5 -61.5q-52 -13 -100.5 15t-48.5 79l-2 115q-2 31 -16.5 37.5t-36.5 -16.5l-80 -82q-35 -35 -90 -21.5t-84 57.5q-28 44 -15.5 102.5z" />
<glyph unicode="+" horiz-adv-x="1222" d="M94.5 487.5q-15.5 22.5 3.5 63.5l29 72q20 46 50 66t81 20h156q40 0 63.5 15.5t36.5 51.5l74 182q19 48 48.5 68.5t80.5 20.5h84q46 0 61 -23t-2 -66l-74 -182q-14 -32 -2 -49.5t47 -17.5h162q46 0 61 -22.5t-3 -65.5l-27 -68q-20 -47 -50 -67.5t-81 -20.5h-160 q-40 0 -63.5 -15.5t-38.5 -52.5l-74 -182q-19 -47 -48.5 -67.5t-80.5 -20.5h-80q-46 0 -61 22.5t2 65.5l73 182q25 68 -47 68h-159q-46 0 -61.5 22.5z" />
<glyph unicode="," horiz-adv-x="655" d="M30 -269.5q4 22.5 33 44.5q75 59 121 108q36 42 36 74t-36 63q-63 57 -63 142q0 77 55 132.5t133 55.5q74 0 132.5 -52t58.5 -153q0 -61 -26 -125t-64 -115t-90 -102t-95.5 -85t-89.5 -64q-54 -39 -88 18l-2 4q-19 32 -15 54.5z" />
<glyph unicode="-" horiz-adv-x="1050" d="M293 514.5q-15 22.5 2 65.5l6 16q19 47 48.5 67.5t80.5 20.5h387q46 0 61.5 -22.5t-1.5 -65.5l-7 -16q-19 -47 -48.5 -67.5t-80.5 -20.5h-387q-46 0 -61 22.5z" />
<glyph unicode="." horiz-adv-x="655" d="M121 162q0 78 55 133t133 55q79 0 135 -55t56 -133t-56 -133.5t-135 -55.5q-78 0 -133 55.5t-55 133.5z" />
<glyph unicode="/" horiz-adv-x="937" d="M127 -195l743 1848q13 32 34 45.5t57 13.5h4q63 0 39 -59l-744 -1848q-13 -32 -33.5 -45.5t-54.5 -13.5h-4q-65 0 -41 59z" />
<glyph unicode="0" horiz-adv-x="1089" d="M-2 342q0 76 16.5 174t50 208t80.5 219t112.5 208.5t140.5 176t170 122t196 45.5q152 0 236.5 -99.5t84.5 -269.5q0 -75 -16.5 -171.5t-50 -206.5t-80 -219.5t-112 -209.5t-140 -177t-169 -123t-195.5 -46q-154 0 -239 98.5t-85 270.5zM252 305q0 -70 27.5 -96.5 t60.5 -26.5q55 0 125 78t133 198.5t117 254t86.5 256t32.5 192.5q0 59 -22.5 92t-59.5 33q-71 0 -162 -119.5t-164 -281t-123.5 -326.5t-50.5 -254z" />
<glyph unicode="1" horiz-adv-x="870" d="M64.5 689q0.5 28 31.5 59q325 314 570 655q26 36 54 50.5t73 14.5h104q46 0 61 -22.5t-2 -65.5l-522 -1292q-19 -47 -48.5 -67.5t-80.5 -20.5h-92q-46 0 -61 22.5t2 65.5l309 762q8 22 0 26.5t-23 -14.5q-148 -156 -233 -241q-59 -56 -113 4q-30 36 -29.5 64z" />
<glyph unicode="2" horiz-adv-x="1083" d="M-122.5 22.5q-15.5 22.5 1.5 65.5l43 102q39 92 117 142q207 133 397 284q398 319 398 529q0 56 -28.5 93.5t-82.5 37.5q-82 0 -144 -72t-85 -178q-12 -55 -36 -74.5t-81 -19.5h-86q-46 0 -67 25t-13 69q11 67 34 130t66 126t101 109t143.5 75t187.5 29q191 0 287 -92.5 t96 -235.5q0 -88 -37.5 -180.5t-92 -167.5t-134.5 -154.5t-146.5 -133.5t-146.5 -113q-76 -60 -147 -111q-23 -17 -18.5 -30t32.5 -13h316q46 0 61 -22.5t-2 -65.5l-37 -88q-19 -47 -48.5 -67.5t-80.5 -20.5h-706q-46 0 -61.5 22.5z" />
<glyph unicode="3" horiz-adv-x="1097" d="M-36.5 344.5q4.5 64.5 22.5 128.5q25 88 116 88h113q93 0 59 -84q-20 -50 -27.5 -97.5t-2 -91t38 -69.5t88.5 -26q64 0 120 34t91 86t55 109t20 106q0 146 -190 150q-92 0 -57 86l14 35q22 54 49 75.5t84 28.5q76 10 132.5 37t85.5 57.5t46 66.5t21 57t4 36q0 12 -1.5 24 t-8 30.5t-18 31.5t-34 23t-53.5 10q-133 0 -201 -168q-20 -54 -46.5 -72t-86.5 -18h-82q-44 0 -62 24.5t-5 67.5q21 74 59.5 138.5t99 122t153 91t206.5 33.5q72 0 130.5 -14.5t95 -36t63.5 -53.5t40 -59t21 -60t9 -50.5t1 -35.5q0 -109 -69.5 -210.5t-208.5 -162.5 q-21 -9 -28.5 -18.5t-3 -20.5t21.5 -26q90 -77 90 -222q0 -72 -21 -146.5t-67.5 -148t-112 -130.5t-163.5 -92.5t-214 -35.5q-113 0 -194 33.5t-121.5 85t-58 120t-13 133z" />
<glyph unicode="4" horiz-adv-x="1153" d="M-36.5 383q-15.5 23 1.5 66l33 73q37 91 98 158l654 719q33 38 69 53.5t88 15.5h195q46 0 61 -22.5t-2 -65.5l-287 -710q-11 -25 2 -36.5t42 -2.5l4 2q45 15 63 10t51 -39l11 -10q26 -28 25 -59t-28 -58q-87 -87 -221 -110q-45 -7 -66 -24t-38 -60l-80 -195 q-19 -47 -48.5 -67.5t-80.5 -20.5h-92q-46 0 -61.5 22.5t1.5 65.5l84 205q25 67 -47 67h-370q-46 0 -61.5 23zM304.5 625.5q7.5 -15.5 39.5 -15.5h152q40 0 63.5 15.5t36.5 52.5l184 455q8 22 0.5 26.5t-22.5 -14.5l-439 -479q-22 -25 -14.5 -40.5z" />
<glyph unicode="5" horiz-adv-x="1120" d="M-19.5 321q1.5 64 17.5 132q21 90 115 90h110q47 0 63 -21t3 -67q-37 -113 -14.5 -189t98.5 -76q63 0 127 58.5t109.5 142t74.5 176.5t29 162q0 127 -95 127q-92 0 -180 -119q-34 -45 -64.5 -55.5t-84.5 4.5l-64 19q-91 24 -55 112l231 563q19 47 48.5 64t78.5 10 q355 -55 392 -55q59 0 122 24q49 22 77.5 16.5t64.5 -46.5q53 -63 -6 -125q-117 -121 -310 -121q-55 0 -209 22q-40 6 -63.5 -7.5t-36.5 -51.5l-29 -70q-10 -25 -1 -33t34 3q70 34 146 34q97 0 164 -49.5t95.5 -124t28.5 -165.5q0 -78 -22 -170t-72.5 -192.5t-123 -182 t-184.5 -134.5t-245 -53q-103 0 -178 30t-115 77.5t-59 112t-17.5 128.5z" />
<glyph unicode="6" horiz-adv-x="1101" d="M14 348q0 81 17.5 181t52.5 209.5t83.5 217.5t115.5 205t143 171.5t172 118.5t197 44q168 0 255.5 -106.5t63.5 -288.5q-12 -92 -104 -92h-105q-50 0 -65.5 20.5t-3.5 69.5q9 44 11 84t-17 68t-58 28q-131 0 -299 -342q-12 -23 -3 -32t32 3q90 49 188 49q136 0 206.5 -83 t68.5 -222q-1 -86 -29.5 -180.5t-82.5 -182.5t-124.5 -159t-164.5 -113.5t-195 -42.5q-22 0 -44.5 2t-59.5 10.5t-69 23t-66.5 43.5t-59 67t-40.5 97t-16 132zM276 322q0 -72 27.5 -102t67.5 -30q56 0 116 49.5t103.5 121t71.5 149.5t28 135t-25 89t-71 32q-43 0 -94.5 -26 t-96.5 -70q-26 -24 -53.5 -70.5t-38.5 -81.5q-35 -122 -35 -196z" />
<glyph unicode="7" horiz-adv-x="978" d="M56 23q-15 23 5 63q62 134 148.5 277.5t194.5 291t181.5 243t184.5 232.5q20 25 13 39.5t-38 14.5q-47 0 -180 18q-40 5 -63.5 -9t-36.5 -50l-39 -99q-19 -47 -48.5 -67.5t-80.5 -20.5h-92q-46 0 -61.5 22.5t1.5 65.5l136 336q19 47 48.5 64.5t80.5 11.5q413 -57 464 -57 q67 0 132 28q43 20 66.5 16t51.5 -36q53 -58 6 -119q-88 -121 -157.5 -220.5t-178 -265t-211.5 -349.5t-188 -367q-22 -47 -52.5 -66.5t-82.5 -19.5h-145q-44 0 -59 23z" />
<glyph unicode="8" horiz-adv-x="1110" d="M-51 309q0 148 85.5 284t239.5 198q37 15 42.5 30t-13.5 49q-35 64 -35 150q0 62 18 126t59 127t100 112t149 79.5t199 30.5q97 0 170 -24t115 -65.5t62.5 -93t20.5 -112.5q0 -114 -66.5 -226.5t-185.5 -174.5q-34 -19 -37 -34t21 -46q61 -73 61 -197q0 -71 -20 -144.5 t-66 -146.5t-112 -130t-166.5 -92.5t-220.5 -35.5q-66 0 -125 10t-114 34.5t-94.5 62t-63 96.5t-23.5 133zM238 326q0 -72 41 -105t100 -33q61 0 116.5 33.5t92 84.5t57.5 109t21 109q0 69 -37.5 105.5t-100.5 36.5q-82 0 -151 -58t-104 -135.5t-35 -146.5zM563 1016 q0 -54 29 -81.5t72 -27.5q56 0 105 45t75 105t26 114q0 52 -26.5 79.5t-71.5 27.5q-57 0 -107 -44.5t-76 -104t-26 -113.5z" />
<glyph unicode="9" horiz-adv-x="1060" d="M-25 369q12 92 107 92h104q50 0 66 -20.5t4 -67.5q-8 -35 -10.5 -64.5t2 -57.5t22.5 -44.5t49 -16.5q131 0 297 340q12 23 3.5 32t-33.5 -3q-89 -47 -185 -47q-136 0 -207 83t-69 222q1 86 29.5 180.5t83 182.5t125.5 159t165 113.5t195 42.5q22 0 45 -2t59.5 -11 t68 -23.5t65.5 -43t58.5 -67t40 -97.5t15.5 -131q0 -95 -24 -214.5t-68.5 -248.5t-113.5 -250.5t-152.5 -218.5t-193.5 -156t-228 -59q-168 0 -256.5 112t-63.5 284zM399 823q0 -56 25.5 -88.5t73.5 -32.5q86 0 190 97q27 25 54 70t36 81q35 119 35 197q0 72 -26.5 101.5 t-65.5 29.5q-75 0 -152.5 -82.5t-123.5 -188.5t-46 -184z" />
<glyph unicode=":" horiz-adv-x="702" d="M121 162q0 78 55 133t133 55q79 0 135 -55t56 -133t-56 -133.5t-135 -55.5q-78 0 -133 55.5t-55 133.5zM354 741q0 78 55.5 133.5t133.5 55.5q79 0 134.5 -55.5t55.5 -133.5t-55.5 -133t-134.5 -55q-78 0 -133.5 55t-55.5 133z" />
<glyph unicode=";" horiz-adv-x="702" d="M30 -269.5q4 22.5 33 44.5q75 59 121 108q36 42 36 74t-36 63q-63 57 -63 142q0 77 55 132.5t133 55.5q74 0 132.5 -52t58.5 -153q0 -61 -26 -125t-64 -115t-90 -102t-95.5 -85t-89.5 -64q-54 -39 -88 18l-2 4q-19 32 -15 54.5zM354 741q0 78 55.5 133.5t133.5 55.5 q79 0 134.5 -55.5t55.5 -133.5t-55.5 -133t-134.5 -55q-78 0 -133.5 55t-55.5 133z" />
<glyph unicode="&#x3c;" horiz-adv-x="1325" d="M104 561l13 33q19 47 47 74.5t76 44.5l962 331q38 13 53 -3t0 -54l-55 -129q-19 -47 -47 -74.5t-76 -44.5l-506 -174q-29 -11 -30.5 -27t26.5 -30l330 -158q44 -22 56 -52.5t-7 -76.5l-22 -53q-36 -89 -119 -47l-651 311q-86 42 -50 129z" />
<glyph unicode="=" horiz-adv-x="1257" d="M21 284.5q-15 22.5 2 65.5l30 72q19 47 48.5 67.5t80.5 20.5h736q46 0 61 -22.5t-2 -65.5l-29 -72q-19 -47 -48.5 -67.5t-80.5 -20.5h-737q-46 0 -61 22.5zM178.5 684.5q-15.5 22.5 1.5 65.5l31 71q19 47 48.5 67.5t80.5 20.5h735q46 0 61.5 -22.5t-1.5 -65.5l-29 -71 q-19 -47 -48.5 -67.5t-80.5 -20.5h-737q-46 0 -61.5 22.5z" />
<glyph unicode="&#x3e;" horiz-adv-x="1316" d="M-45 112q-15 16 0 54l55 129q19 47 47 74.5t76 44.5l508 176q29 11 30.5 27t-26.5 30l-330 158q-44 22 -56 52.5t7 76.5l23 53q36 89 119 47l649 -313q44 -22 56 -52.5t-7 -76.5l-12 -33q-19 -47 -47 -74.5t-76 -44.5l-963 -331q-38 -13 -53 3z" />
<glyph unicode="?" horiz-adv-x="1015" d="M121 162q0 78 55 133t133 55t134.5 -55t56.5 -133t-56.5 -133.5t-134.5 -55.5t-133 55.5t-55 133.5zM227 1083q10 64 31 121.5t60.5 114t92.5 97.5t132.5 66t175.5 25q101 0 177 -29.5t116.5 -77.5t60 -100.5t19.5 -107.5q0 -82 -36 -157.5t-95 -136.5t-121.5 -114.5 t-130 -116.5t-105.5 -118q-35 -53 -64.5 -68.5t-93.5 -15.5h-36q-44 0 -60.5 24t2.5 64q37 76 99.5 153.5t122.5 135.5t116 114.5t90.5 113t34.5 108.5q0 48 -26 84t-78 36q-71 0 -132.5 -60t-84.5 -155q-12 -57 -36 -75.5t-83 -18.5h-66q-94 0 -82 94z" />
<glyph unicode="@" horiz-adv-x="2125" d="M225 309q0 126 30.5 254t87.5 249t146 226.5t199.5 184.5t254.5 124.5t304 45.5q145 0 265 -37.5t201 -101.5t137 -149.5t81 -179.5t25 -194q0 -142 -51 -281t-134 -244.5t-195.5 -171t-229.5 -65.5q-55 0 -99.5 14t-72 38t-44 47.5t-26.5 50.5q-12 32 -27 36t-43 -18 q-103 -90 -209 -90q-82 0 -131 58.5t-49 150.5q0 47 13 115.5t37 149.5t63.5 160t88.5 144.5t116.5 105.5t142.5 40q98 0 158 -72q31 -40 51.5 -45.5t66.5 14.5l113 45q37 15 52.5 -0.5t0.5 -52.5l-178 -440q-40 -94 -52 -154t4 -90.5t62 -30.5q86 0 170.5 94.5t135.5 232 t51 263.5q0 204 -142 330.5t-356 126.5q-165 0 -314 -75.5t-251.5 -197.5t-162.5 -279t-60 -318q0 -120 34.5 -218t102 -170.5t175.5 -112.5t249 -40q190 0 356 88q43 21 70 14.5t55 -45.5q49 -72 -22 -119q-218 -135 -498 -135q-159 0 -294.5 46.5t-238 135t-161 228 t-58.5 315.5zM877 303q0 -33 13.5 -48t43.5 -15q62 0 129 75q38 38 63 99l95 233q6 15 4.5 42t-8.5 42q-21 43 -68 43q-48 0 -99.5 -57t-88 -135t-60.5 -156t-24 -123z" />
<glyph unicode="A" horiz-adv-x="1812" d="M-137 334q0 81 30.5 153.5t86.5 129.5t144 90.5t195 33.5q161 0 338 -75q36 -16 61.5 -8.5t45.5 42.5l377 635q15 26 42 72t40.5 69.5t38 60t41 55.5t42 43t49 35t54.5 19.5t65 8.5q82 0 145 -40q64 -42 92 -120q14 -40 14 -85q0 -43 -13 -91l-262 -1002q-9 -33 5.5 -50 t49.5 -13q73 8 142.5 65t160.5 201q12 18 31 23t36 -3t31 -22q15 -14 17 -34v-8q0 -16 -8 -32q-81 -143 -145 -222.5t-140.5 -121.5t-175.5 -43q-43 0 -63 -16t-31 -57l-72 -277q-15 -59 -54 -59q-21 0 -50 18l-86 55q-43 28 -56 60q-6 16 -6.5 36.5t6.5 45.5l54 198 q5 20 5 35q0 16 -6 28q-10 23 -47 40q-68 30 -182 90q-37 19 -61 13t-47 -40q-225 -305 -523 -305q-189 0 -300 105.5t-111 263.5zM106 346q0 -64 51.5 -104.5t123.5 -40.5q57 0 131.5 40t154.5 142q22 28 15.5 52t-39.5 36q-123 45 -215 45q-111 0 -166.5 -51t-55.5 -119z M985 580q-13 -23 -13 -42q0 -34 40 -57q21 -12 43.5 -24t48.5 -25.5t41 -21.5q21 -9 37 -9q37 0 49 48l250 911q1 2 1 3q0 6 -9 9q-4 1 -7 1q-6 0 -8 -5z" />
<glyph unicode="B" horiz-adv-x="1761" d="M-59 229q0 54 19.5 106t58 99t106.5 76t156 29q117 0 243 -74q23 -13 41 -13q33 0 51 42q18 36 54 120l211 523q40 97 118 174t179 102q14 3 26 3q20 0 38 -9q28 -15 40 -51l4 -10q10 -32 10 -52q0 -9 -2 -15q-6 -21 -43 -54q-71 -63 -110 -158l-23 -55q-4 -12 -4 -21 q0 -28 37 -35q31 -5 62 -5q57 -1 111 17q84 28 142 98t58 167q0 123 -94 206t-267 83q-99 0 -186 -29.5t-148 -77.5t-105.5 -109t-65.5 -125t-21 -124q0 -49 14 -103q9 -34 9 -58q0 -16 -4 -28q-10 -30 -58 -65l-39 -29q-26 -19 -50 -19q-7 0 -15 2q-30 9 -48 50 q-45 112 -45 237q0 135 54.5 261t152 224.5t245.5 158t323 59.5q137 0 252 -40t192 -109t119.5 -162.5t42.5 -200.5q0 -69 -18 -128.5t-44 -100t-62.5 -74t-67.5 -52t-64 -32.5t-36 -30.5t23 -41.5q148 -153 148 -362q0 -75 -18.5 -149t-58 -142.5t-95 -121.5t-136.5 -84.5 t-177 -31.5q-113 0 -217 43.5t-224 130.5q-34 25 -58 23.5t-56 -29.5q-149 -129 -334 -129q-85 0 -153 27t-109 71.5t-62.5 97.5t-21.5 109zM158 244q0 -41 35 -66.5t83 -25.5q72 0 142 57q29 23 27 49t-33 45q-72 43 -129 43q-56 0 -90.5 -30.5t-34.5 -71.5zM834 336 q-12 -23 -12 -43q0 -36 38 -62q138 -94 260 -94q67 0 121 27.5t85.5 71.5t48 94.5t16.5 101.5q0 26 -4.5 53t-21.5 68t-46 77t-85 73t-130 61q-19 6 -35 6q-48 0 -68 -53q-77 -189 -90 -217q-47 -110 -77 -164z" />
<glyph unicode="C" horiz-adv-x="1488" d="M0 1108q0 125 52 234t138 182q32 26 59 26q37 0 68 -45l25 -35q33 -49 33 -77q0 -29 -43 -76q-88 -99 -88 -225q0 -71 38.5 -136.5t110.5 -107.5q34 -20 61 -11t40 46q62 161 146 305t186 263.5t225 190t247 70.5q108 0 186.5 -53t115 -136.5t36.5 -185.5 q0 -142 -77 -297.5t-226 -275.5q-232 -197 -577 -213q-38 -3 -57 -20t-27 -54q-21 -95 -21 -170q0 -223 197 -223q71 0 156.5 29.5t176.5 85.5t182.5 151t160.5 213q22 28 54 25q30 -4 50 -36q10 -17 11 -34q0 -15 -9 -31q-161 -279 -379.5 -441.5t-470.5 -162.5 q-109 0 -190 32.5t-128.5 91t-70 134t-22.5 168.5q0 99 20 205q7 41 -4 62t-49 38q-164 70 -250 201t-86 293zM788 854q-6 -15 -6 -27q0 -13 7 -21q10 -12 30 -13q8 0 17 2q194 33 325 157q90 83 137.5 183.5t47.5 175.5q0 51 -23 83.5t-70 32.5q-72 0 -158.5 -83.5 t-163.5 -209.5t-143 -280z" />
<glyph unicode="D" horiz-adv-x="1972" d="M-61 227q0 53 19.5 106t58 100t105.5 76.5t152 29.5q139 0 297 -105q22 -14 41 -14q31 0 54 39q31 60 55 119l209 518q40 97 118 174t179 102q14 3 26 3q21 0 39 -9q28 -15 39 -51q14 -42 14 -65q1 -6 -1 -12q-6 -22 -44 -56q-71 -63 -108 -156l-215 -532 q-46 -116 -100 -203q-19 -32 -13.5 -55t37.5 -43q108 -70 213 -70q116 0 224 79t182 202t118.5 274.5t44.5 296.5q0 110 -27 201.5t-82 162.5t-145.5 110.5t-209.5 39.5q-104 0 -196 -31.5t-156.5 -83t-111 -116.5t-69 -132.5t-22.5 -130.5q0 -48 14 -102q9 -34 9 -58 q-1 -17 -5 -29q-10 -30 -57 -65l-39 -28q-27 -20 -51 -20q-7 0 -15 2q-30 8 -47 48q-45 112 -45 244q0 113 35.5 220t105.5 198.5t166 160t225.5 107.5t276.5 39q230 0 395.5 -92.5t249.5 -257.5t84 -387q0 -119 -25 -245t-72 -248t-120.5 -229.5t-164.5 -189.5t-210 -130 t-250 -48q-109 0 -190 33.5t-174 104.5q-36 27 -60 27l-1 1q-24 0 -60 -24q-150 -103 -336 -103q-96 0 -169.5 28t-114 73.5t-60.5 96.5t-20 105zM156 242q0 -43 36.5 -66.5t98.5 -23.5q73 0 147 41q32 20 32 45q0 24 -30 45q-89 63 -159 63q-56 0 -90.5 -31t-34.5 -73z" />
<glyph unicode="E" horiz-adv-x="1296" d="M0 379q0 120 44.5 228.5t119 186.5t173.5 125.5t206 51.5q38 2 50.5 16.5t6.5 52.5q-8 50 -8 88q0 129 51 240q19 39 21 65v10q0 24 -9 58q-23 95 -26 205v6q0 74 68 73q9 0 20 -1q53 -7 74 -29t24 -72v-8q4 -52 35 -52q15 0 37 13q130 70 276 70q96 0 172 -29.5t120 -78 t66.5 -105.5t22.5 -117q-2 -141 -105.5 -243.5t-275.5 -102.5q-147 0 -258 82q-25 19 -38.5 10.5t-10.5 -39.5q8 -97 55 -172q34 -56 34 -85t-38 -85l-10 -16q-32 -50 -59 -58q-7 -2 -15 -2q-25 0 -65 19q-84 35 -164 35q-140 0 -227.5 -94t-87.5 -240q0 -144 86.5 -242 t232.5 -98q79 0 145.5 32.5t108.5 85t62 119.5q15 50 16 101q0 17 -2 35q-2 16 -2 29q0 35 12 53q16 24 72 39l51 14q20 5 36 5q60 0 72 -73q12 -62 12 -121q0 -80 -21 -154q-36 -130 -117.5 -221t-201 -144.5t-253.5 -53.5q-167 0 -302.5 79t-210.5 213.5t-75 295.5z M954 1354q0 -28 25 -49q76 -64 168 -64q66 0 108.5 32t42.5 77q0 44 -41.5 75t-111.5 31q-86 0 -160 -49q-31 -21 -31 -53z" />
<glyph unicode="F" horiz-adv-x="1474" d="M0 250q0 168 108.5 292t284.5 142q8 1 15 1q33 -1 54 -19q25 -22 25 -66v-41q0 -60 -18 -83t-76 -36q-41 -10 -71 -31t-46 -49t-23 -55t-7 -55q0 -87 61.5 -147t153.5 -60q137 0 240.5 117t193.5 338l53 131q6 17 6 30q0 37 -53 37h-31q-56 0 -56 39q0 14 7 33 q17 41 41.5 58.5t67.5 17.5h31q40 0 63.5 15.5t36.5 51.5l141 353q7 18 7 31q0 37 -52 44q-85 11 -279 57t-274 46q-111 0 -166 -52t-55 -122q0 -63 41 -99t98 -36q39 0 84 18q34 16 55 16q5 0 11 -1q22 -6 51 -48l20 -31q17 -26 17 -51q0 -10 -2 -18q-8 -34 -45 -55 q-94 -54 -201 -54q-149 0 -257 98.5t-108 256.5q0 77 28 147t82 127.5t142.5 92t200.5 34.5q111 0 326 -49.5t299 -56.5q17 -1 33 -1q100 0 184 52q53 32 104 43q14 3 26 3q21 0 39 -9q28 -15 40 -52q12 -40 12 -63q1 -8 -1 -14q-6 -22 -44 -56q-73 -65 -109 -155l-159 -396 q-6 -17 -6 -30q0 -37 53 -37h35q56 0 56 -39q0 -14 -7 -33q-17 -41 -41.5 -58.5t-67.5 -17.5h-37q-40 0 -63.5 -15.5t-36.5 -51.5l-117 -291q-53 -131 -120 -230.5t-131 -156t-137 -91.5t-131 -46t-120 -11q-115 0 -208.5 38t-151.5 101.5t-88.5 142.5t-30.5 165z" />
<glyph unicode="G" horiz-adv-x="1691" d="M0 1120q0 123 52 228t138 176q32 26 59 26q37 0 68 -45l27 -39q30 -45 30 -73q0 -29 -44 -72q-86 -82 -86 -191q0 -31 8 -63t25.5 -68t51 -70.5t79.5 -60.5q34 -20 60 -11t40 44q53 125 118.5 239t151 220t179 183t205.5 123q111 46 224 46h5q180 0 275 -102.5t95 -261.5 q0 -161 -90 -309t-244 -257q-136 -100 -313.5 -156.5t-376.5 -56.5q-34 0 -49 -14t-22 -55q-21 -107 -21 -160q0 -145 105 -145q74 0 172.5 64t175.5 155q39 50 53 88l8 18q22 57 82 68l164 39q41 9 56.5 -9.5t0.5 -58.5l-151 -371q-11 -26 0.5 -34.5t34.5 8.5 q256 180 380 401q21 28 52.5 24.5t51.5 -35.5q11 -18 11 -35q0 -15 -8 -30q-187 -330 -578 -553q-34 -19 -54.5 -42.5t-33.5 -59.5q-2 -5 -5 -15q-74 -201 -128 -292q-133 -223 -342 -223q-67 0 -118.5 22t-81 58.5t-44.5 79.5q-12 38 -12 78v11q2 175 250 291q19 9 46 20.5 t65 27.5t63 26q68 29 94 96l13 33q10 25 1.5 31.5t-30.5 -8.5q-134 -95 -268 -95q-145 0 -220 103.5t-75 265.5q0 84 22 197q8 40 -3.5 61.5t-49.5 36.5q-173 72 -258.5 199t-85.5 284zM600 -446q0 -25 18.5 -38.5t40.5 -13.5q75 0 158 179q13 28 2 39t-39 -1 q-59 -27 -78 -38q-42 -23 -72 -56.5t-30 -70.5zM794 817q9 -13 32 -13q6 0 14 1q242 27 415 158q96 73 155.5 162.5t59.5 183.5q0 118 -118 118q-73 0 -152 -46.5t-151 -126t-135.5 -178t-116.5 -210.5q-8 -18 -8 -31q0 -10 5 -18z" />
<glyph unicode="H" horiz-adv-x="1953" d="M0 334q0 81 31 154.5t88 129.5t146 89.5t196 33.5q130 0 278 -51q38 -14 61 -4t38 47l202 508q7 19 7 32q0 37 -52 42q-76 7 -221.5 38t-216.5 31q-65 0 -112 -16t-71 -42.5t-35 -54.5t-11 -59q0 -65 40.5 -98t96.5 -33q39 0 86 19q35 17 57 17q7 0 12 -2q23 -7 52 -50 l18 -29q17 -26 17 -52q1 -8 -1 -16q-8 -33 -44 -55q-92 -53 -203 -53q-152 0 -258.5 95.5t-106.5 256.5q0 74 25.5 142.5t76.5 128t140 95.5t205 36q98 0 278.5 -37t259.5 -41q9 -1 18 -1q90 0 165 56q58 43 131 62q14 3 26 3q21 0 39 -9q28 -15 39 -52l2 -6q12 -36 12 -58 q1 -9 -1 -15q-6 -22 -46 -56q-71 -63 -108 -153l-281 -695q-14 -35 -5.5 -59.5t42.5 -44.5l141 -76q22 -13 40 -13q33 0 53 44l378 936q19 47 48.5 67.5t80.5 20.5h103q46 -1 61 -23q7 -11 7 -25q0 -17 -9 -40l-422 -1034q-14 -32 -1 -52t48 -20h6q88 0 164 54 q78 56 179 216q12 18 30.5 23t35 -3t31 -22t16.5 -34q0 -4 1 -8q0 -16 -8 -32q-51 -91 -94 -154.5t-92.5 -115t-100.5 -79.5t-112 -40q-34 -6 -72 -6q-29 0 -61 4q-11 1 -21 1q-27 1 -43 -9q-22 -14 -37 -53l-129 -316q-21 -52 -53 -52q-23 0 -53 26l-70 63q-38 34 -47 68 q-3 11 -3 24q0 26 13 58l90 227q15 37 7 60.5t-43 42.5l-146 75q-35 19 -58.5 12.5t-45.5 -40.5q-89 -147 -211.5 -232.5t-296.5 -85.5q-188 0 -302 106.5t-114 262.5zM244 344q0 -62 51 -102.5t127 -40.5q150 0 264 190q13 21 13 38q1 9 -3 17q-10 24 -45 35 q-110 35 -188 35q-107 0 -163 -50.5t-56 -121.5z" />
<glyph unicode="I" horiz-adv-x="1257" d="M-125 250q0 169 108.5 292.5t282.5 141.5q8 1 15 1q33 -1 54 -19q25 -22 25 -66v-41q0 -60 -18 -83t-76 -36q-40 -10 -70 -31t-45.5 -49t-22.5 -55t-7 -55q0 -83 62.5 -145t158.5 -62q140 0 244 116.5t196 338.5l291 723q11 30 -1 41.5t-42 1.5q-50 -17 -75 -26t-71 -26 t-71 -28.5t-62.5 -29.5t-58 -33.5t-46 -37t-38 -42t-21.5 -46.5t-9 -53q0 -76 59 -115q65 -42 77.5 -65.5t12.5 -102.5v-8q0 -44 -25 -65q-18 -15 -46 -15q-11 0 -23 2q-137 28 -219 126q-80 96 -80 227v6q0 71 22.5 133.5t53.5 108t93 90.5t109 72.5t135.5 63t139.5 53 t152 50.5q23 8 36.5 12t33.5 10.5t36 12.5q87 32 153 90q71 65 160 86q14 3 26 3q21 0 39 -9q28 -15 40 -51q12 -40 12 -63q1 -8 -1 -14q-6 -22 -44 -56q-73 -64 -109 -156l-415 -1030q-51 -126 -117 -223t-131.5 -155t-139.5 -94.5t-137 -49.5t-129 -13q-114 0 -206.5 38 t-150.5 101.5t-89 142.5t-31 165z" />
<glyph unicode="J" horiz-adv-x="1161" d="M-301 -334q0 71 22 132.5t59 109t93 89t117.5 71.5t140 56.5t151.5 45t160 35.5q40 8 63 27t38 57l338 839q10 28 -1.5 38.5t-39.5 -1.5q-218 -98 -289 -139q-186 -106 -219 -219q-8 -28 -8 -57q0 -96 79 -142q64 -34 78.5 -57.5t14.5 -95.5v-21q0 -44 -26 -65 q-18 -15 -46 -15q-11 0 -23 2q-148 26 -234 130q-85 102 -85 253q0 67 17 125t50 107.5t74.5 93t98.5 83.5t114.5 73.5t128.5 67.5t134 62t138 60q80 34 119 51q86 38 162 105q76 66 160 86q14 3 26 3q21 0 38 -9q28 -15 40 -52q14 -41 14 -65q0 -7 -2 -12q-5 -23 -42 -54 q-73 -65 -109 -153l-385 -953q-11 -30 1.5 -42.5t41.5 -0.5q192 78 295 248q22 28 53.5 24.5t51.5 -35.5q11 -18 11 -35q0 -15 -9 -30q-43 -75 -83 -128.5t-97 -105.5t-132.5 -92t-175.5 -73q-39 -12 -60 -31.5t-36 -56.5q-145 -348 -302.5 -499.5t-387.5 -151.5 q-135 0 -232.5 89t-97.5 228zM-57 -307q0 -49 29.5 -77t80.5 -28q90 0 172 82.5t164 253.5q8 16 8 27q0 9 -5 15q-8 9 -25 9q-8 0 -19 -2q-92 -24 -159 -49t-126 -58.5t-89.5 -77t-30.5 -95.5z" />
<glyph unicode="K" horiz-adv-x="1783" d="M-125 250q0 110 48 204.5t138.5 156t206.5 73.5q8 1 15 1q33 -1 54 -19q25 -22 25 -66v-41q0 -60 -18 -83t-76 -36q-53 -13 -87.5 -46.5t-47 -69.5t-12.5 -74q0 -83 62.5 -145t160.5 -62q74 0 137 31.5t116.5 94t97 141.5t87.5 188l267 663q12 31 1 44t-42 5 q-24 -7 -64 -18t-64 -18t-59.5 -18t-57.5 -19.5t-50.5 -21.5t-45.5 -25t-36 -28.5t-29.5 -34t-17 -39.5t-6.5 -46q0 -76 59 -115q65 -42 77.5 -65.5t12.5 -102.5v-8q0 -44 -25 -65q-18 -15 -46 -15q-11 0 -23 2q-137 28 -219 126q-80 96 -80 227v6q0 55 12.5 103t32.5 85.5 t53.5 71.5t68 59t84.5 49.5t93.5 41.5t104 37t107.5 33.5t113.5 32.5t112.5 34q89 27 158 88q76 66 160 86q14 3 26 3q20 0 38 -9q28 -15 40 -52q14 -42 14 -65q0 -6 -2 -12q-6 -22 -43 -56q-72 -63 -108 -155l-203 -500q-14 -32 -1 -52.5t48 -21.5h14q100 0 180 67 q86 72 154 240l131 326q121 305 424 305q24 0 49 -2q46 -3 65 -29q12 -17 12 -41q0 -13 -3 -28l-2 -10q-12 -57 -36.5 -79t-82.5 -26q-51 -7 -90.5 -43t-75.5 -123l-94 -229q-153 -377 -399 -463q-32 -12 -36.5 -28t17.5 -42q65 -78 65 -225q0 -66 -13 -145l-58 -322 q-8 -44 -8 -77q0 -22 4 -39q8 -43 45 -60q63 -29 77.5 -52.5t14.5 -94.5q0 -46 -24 -70q-23 -23 -66 -23h-4q-171 6 -255 126q-62 88 -62 204q0 41 8 86l49 277q20 119 20 200q1 51 -7 87q-20 94 -105 153q-8 6 -18.5 10.5t-22.5 3.5t-16 -12l-88 -217q-51 -126 -116.5 -223 t-131 -155t-139.5 -94.5t-137 -49.5t-128 -13q-115 0 -208 38t-151 101.5t-89 142.5t-31 165z" />
<glyph unicode="L" horiz-adv-x="1597" d="M-133 162q0 56 21.5 113t62 106t108 80t150.5 31q124 0 244 -70q22 -14 39 -14q31 0 51 43q4 9 9 19.5t10 24t9 21.5q15 38 6.5 59.5t-45.5 38.5q-166 72 -251.5 202t-85.5 292q0 125 52 234t138 182q32 26 60 26q36 0 67 -43l27 -41q31 -46 31 -72q0 -28 -44 -75 q-86 -90 -86 -215q0 -29 8 -61.5t26 -70.5t54 -74.5t86 -61.5q22 -12 42 -12q10 0 20 3q28 10 43 45q43 106 80 187.5t84.5 173t93.5 158t103.5 130.5t117.5 103.5t133 63.5t152 24q153 0 253.5 -103.5t100.5 -269.5q0 -143 -77.5 -299t-227.5 -276q-239 -199 -588 -215 q-40 -2 -61.5 -17t-36.5 -53q-56 -144 -90 -213q-18 -35 -13.5 -61t33.5 -53q272 -250 373 -332q75 -58 125.5 -82.5t99.5 -24.5q92 0 203 82q38 30 67 30h5q31 -3 65 -42l41 -47q28 -32 28 -61q0 -35 -40 -68q-186 -146 -365 -146q-92 0 -182 42.5t-192 121.5 q-74 60 -363 328q-33 29 -57 31h-2q-24 0 -56 -25q-126 -101 -301 -104h-6q-85 0 -155 27q-72 28 -113.5 74t-62.5 98.5t-21 107.5zM94 174q0 -41 31 -68.5t78 -27.5q63 0 127 51q28 23 26.5 51.5t-30.5 50.5q-68 48 -121 48q-50 0 -80.5 -31.5t-30.5 -73.5zM992 804 q9 -12 31 -12q7 0 15 1q183 34 322 159q90 83 137 182.5t47 172.5q0 118 -104 118q-207 0 -447 -575q-7 -16 -7 -28q0 -11 6 -18z" />
<glyph unicode="M" horiz-adv-x="2220" d="M0 909q0 58 14.5 110t38 93.5t62.5 80t79 68t97 59.5t107.5 51t119.5 46.5t123 43.5t128 43t126 44q38 13 69 13q9 0 17 -1q37 -5 80 -36l80 -60q34 -26 60 -26q1 0 1 -1q26 0 62 25q72 49 148.5 75t137.5 26q71 0 120.5 -34.5t68.5 -94.5q9 -31 24 -35t41 16 q90 73 183.5 110.5t164.5 37.5q92 0 144.5 -56t52.5 -145q0 -94 -76 -285l-434 -1073q-26 -65 -26 -114q0 -51 28 -85q45 -55 49 -83q1 -4 0 -9q0 -29 -22 -84l-10 -26q-17 -43 -48 -54q-10 -4 -22 -4q-23 0 -49 15q-78 42 -127 98q-48 56 -66 120q-13 46 -13 96q0 20 2 40 q7 72 38 149l369 914q9 22 27 67.5t26.5 66.5t19 51t15 48.5t4.5 30.5q0 53 -56 53q-43 0 -111 -36t-134 -97q-50 -50 -74 -108l-397 -992q-19 -47 -48.5 -67.5t-80.5 -20.5h-101q-46 1 -61 23q-7 11 -7 25q0 17 9 40l366 916q8 19 20.5 49.5t20 48t17.5 42t15.5 40.5t11 33 t8 29.5t2.5 21.5q0 53 -58 53q-43 0 -107 -34.5t-130 -92.5q-51 -44 -76 -106l-401 -1000q-19 -47 -49 -67.5t-81 -20.5h-100q-46 1 -61 23q-7 11 -7 25q0 17 9 40l471 1170q11 31 -0.5 43t-42.5 2q-29 -10 -81.5 -28t-82.5 -28.5t-76.5 -27.5t-74.5 -29.5t-65.5 -30.5 t-60 -33.5t-47.5 -36.5t-38 -42t-22 -46t-9 -52q0 -76 59 -115q65 -42 77.5 -65.5t12.5 -102.5v-10q0 -44 -25 -65q-18 -15 -46 -15q-11 0 -23 2q-137 27 -219 125q-80 95 -80 227v6z" />
<glyph unicode="N" horiz-adv-x="1683" d="M0 909q0 58 14.5 110t38 93.5t62.5 80t79 68t97 59.5t107.5 51t119.5 46.5t123 43.5t128 43t126 44q31 11 55 11q14 0 26 -4q31 -10 62 -52l84 -121q24 -35 53 -35q23 0 48 21q234 195 397 195q90 0 141 -56.5t51 -146.5t-77 -283l-430 -1073q-28 -71 -28 -116 q0 -42 30 -83q43 -55 47 -83v-8q0 -29 -23 -87l-10 -24q-17 -43 -48 -54q-10 -4 -22 -4q-23 0 -49 15q-102 55 -154 135q-51 79 -51 170q0 92 41 198l367 914q9 23 28 69t27 67.5t19 51.5t15.5 47.5t4.5 28.5q0 24 -13 38.5t-36 14.5q-51 0 -156 -69.5t-200 -159.5 q-52 -52 -76 -113l-356 -891q-19 -47 -49 -67.5t-81 -20.5h-100q-46 1 -61 23q-7 11 -7 25q0 17 9 40l469 1168q11 29 -0.5 41.5t-42.5 3.5q-236 -78 -298 -103q-198 -82 -242 -180q-15 -33 -15 -69q0 -76 59 -115q65 -42 77.5 -65.5t12.5 -102.5v-10q0 -44 -25 -65 q-18 -15 -46 -15q-11 0 -23 2q-137 27 -219 125q-80 95 -80 227v6z" />
<glyph unicode="O" horiz-adv-x="1462" d="M0 322q0 142 43.5 312.5t121.5 336.5t199.5 311.5t262.5 224.5q68 38 125 88q118 111 276 111q77 0 143.5 -27.5t119.5 -83t83.5 -148.5t30.5 -214q0 -181 -55.5 -394t-155.5 -409q-15 -29 -3 -46.5t44 -14.5q158 18 262 194q22 28 54 24q32 -5 52 -37q10 -17 10 -32 t-9 -31q-74 -121 -200 -203q-114 -74 -245 -74q-13 0 -26 1q-10 1 -19 1q-29 0 -46 -8q-22 -10 -46 -42q-126 -162 -276.5 -254t-315.5 -92q-112 0 -197 41t-134.5 112.5t-74 160t-24.5 192.5zM270 301q0 -112 42.5 -186t133.5 -74q157 0 328 233q22 31 20 52t-28 47 q-30 28 -58 63t-63 96t-59.5 130t-39.5 167q-12 77 -12 160q0 22 1 45q2 25 -8.5 28t-22.5 -20q-97 -172 -165.5 -382.5t-68.5 -358.5zM762 975q0 -246 106 -408q19 -28 41 -28h1q22 1 38 32q81 174 130.5 353t49.5 286q0 102 -36 154.5t-99 52.5q-94 0 -162.5 -123.5 t-68.5 -318.5z" />
<glyph unicode="P" horiz-adv-x="1398" d="M-4 1014q0 97 30.5 197t96.5 197t159 172t229 121t296 46q136 0 251 -34t196 -93t138.5 -138.5t85 -169.5t27.5 -186q0 -153 -65.5 -292t-181.5 -233q-117 -95 -277 -125q-52 -10 -106 -9q-115 0 -244 43q-38 13 -61 3t-38 -48l-161 -404q-19 -47 -48.5 -67.5 t-80.5 -20.5h-101q-46 1 -61 23q-7 11 -7 25q0 17 9 40l434 1076q40 97 118 174t179 102q14 3 26 3q21 0 39 -9q28 -15 40 -51q14 -42 14 -65q0 -7 -2 -13q-6 -22 -43 -55q-71 -63 -109 -156l-116 -285q-7 -19 -7 -34q0 -41 50 -56q60 -16 118 -16q20 0 39 2q76 8 143 47.5 t117.5 97.5t79.5 136.5t29 162.5q0 58 -14.5 113t-47 108t-80.5 92t-120.5 63t-161.5 24q-107 0 -201.5 -32t-160.5 -84.5t-114.5 -118.5t-71.5 -134.5t-23 -132.5q0 -48 14 -102q9 -34 9 -58q-1 -17 -5 -29q-10 -30 -57 -65l-35 -27q-28 -20 -53 -20q-9 0 -15 2 q-30 8 -47 49q-51 120 -51 244z" />
<glyph unicode="Q" horiz-adv-x="1427" d="M-72 88q0 57 21.5 113t64 105.5t114.5 80.5t163 31q181 0 368 -135q26 -19 49 -19q30 0 56 31q163 188 272 428t109 420q0 89 -29 159.5t-93 115t-155 44.5q-82 0 -160.5 -36t-138.5 -95.5t-106 -132.5t-70 -151.5t-24 -149.5q0 -159 125 -199q51 -17 64 -42q7 -13 7 -33 q0 -19 -6 -45q-23 -92 -100 -92q-9 0 -19 1q-172 25 -258 137t-86 283q0 146 61 289.5t165 256.5t257 183t324 70q91 0 166.5 -20t128.5 -53t94 -79.5t65.5 -96t40.5 -106.5t21.5 -106.5t5.5 -99.5q0 -235 -132.5 -518t-340.5 -502q-26 -28 -25.5 -51t29.5 -49 q210 -198 312 -279q131 -106 225 -106q93 0 203 81q38 30 67 30h5q31 -3 65 -42l43 -49q26 -32 26 -61q0 -36 -40 -68q-186 -143 -363 -143q-94 0 -184.5 42t-192.5 119q-52 40 -100 83.5t-122.5 115t-129.5 121.5q-31 29 -58 33h-7q-24 0 -56 -19q-181 -104 -350 -104 q-164 0 -267.5 89t-103.5 220zM154 104q0 -46 43 -74t110 -28q71 0 158 41q32 16 32 40q0 23 -28 42q-103 70 -195 70q-56 0 -88 -26t-32 -65z" />
<glyph unicode="R" horiz-adv-x="1388" d="M-4 1012q0 98 30.5 198.5t96.5 197t159 172t230 121.5t297 46q168 0 303 -50t219.5 -134t129 -189t44.5 -221q0 -129 -49.5 -248.5t-147.5 -210t-227 -125.5q-34 -9 -39 -24t15 -43q56 -77 57 -206q0 -63 -14 -138l-58 -322q-8 -43 -8 -76q0 -22 4 -40q9 -44 45 -64 q63 -34 78 -56.5t15 -86.5q0 -46 -24 -70q-24 -23 -67 -23h-4q-115 3 -195 60q-80 58 -110 151q-18 56 -18 119q0 41 8 86l49 277q10 56 15 94q6 37 10 93q2 26 2 49q0 25 -3 46q-5 39 -17 80t-38.5 68t-66.5 41l-53 18q-35 12 -56.5 3t-34.5 -42l-202 -502 q-19 -47 -48.5 -67.5t-80.5 -20.5h-101q-46 1 -61 23q-7 11 -7 25q0 17 9 40l434 1076q41 98 119 174.5t178 101.5q14 3 26 3q21 0 39 -9q28 -15 40 -51q14 -41 14 -64q0 -8 -2 -14q-6 -22 -45 -55q-68 -60 -107 -156l-80 -195q-7 -18 -7 -33q0 -41 50 -59q64 -24 124 -24 q32 0 62 6q89 20 156.5 74t107.5 138t40 175q0 68 -24 131.5t-72.5 119t-132.5 89t-193 33.5q-107 0 -201.5 -32t-161 -84.5t-115 -118.5t-72 -134.5t-23.5 -132.5q0 -48 14 -102q9 -34 9 -58q-1 -17 -5 -29q-10 -30 -57 -65l-35 -27q-28 -20 -53 -20q-9 0 -15 2 q-30 8 -47 49q-51 120 -51 242z" />
<glyph unicode="S" horiz-adv-x="1372" d="M-96 -393q0 192 127 387q27 41 27 66q0 23 -21 59q-78 140 -78 309q0 88 21 168.5t59 144t89.5 115t113.5 85t130 51.5q61 16 125 17q7 0 15 -1q72 -2 141 -23q44 -12 59 -43q7 -14 7 -30q0 -19 -10 -42l-15 -39q-22 -54 -48 -68q-15 -8 -39 -8q-19 0 -44 5q-30 6 -59 6 q-105 0 -185 -76q-102 -96 -102 -252q0 -61 14 -110q10 -35 34 -41.5t50 18.5q79 75 277 257t285 263q29 27 39 55q5 15 6 34q0 16 -4 34q-35 182 -35 305q0 224 107 354t286 130q77 0 137 -26t96 -69.5t54 -95.5t18 -108q0 -66 -24 -133.5t-71.5 -135.5t-97.5 -125 t-122 -129q-29 -28 -38 -55q-5 -16 -5 -37q0 -14 2 -30q35 -194 35 -316q0 -197 -85.5 -348t-234.5 -232t-338 -81q-173 0 -323 75q-34 17 -57.5 11t-43.5 -37q-84 -127 -84 -258q0 -52 -20.5 -72t-73.5 -20h-4q-44 0 -68 24t-24 68zM440 118q6 -23 37 -32q53 -18 117 -18 q173 0 284 118t111 303q0 35 -6 78q-3 34 -20.5 40t-40.5 -17l-463 -426q-20 -19 -20 -38q0 -4 1 -8zM1151 1276q0 -44 6 -96q3 -33 21 -39q4 -1 7 -1q15 0 34 19q71 78 104 136t33 110q0 39 -19 64.5t-59 25.5q-45 0 -75 -36t-41 -83t-11 -100z" />
<glyph unicode="T" horiz-adv-x="1329" d="M0 358q0 109 47 203t137 157t207 75q8 1 15 1q33 0 54 -18q25 -22 25 -67v-41q0 -60 -18 -83t-76 -36q-53 -13 -87 -47t-46 -70.5t-12 -75.5q0 -87 61.5 -145.5t155.5 -58.5q141 0 240.5 113.5t191.5 340.5l281 694q7 18 7 32q0 39 -53 52q-25 5 -106.5 22.5t-111.5 24 t-94.5 19t-99 17.5t-78 9.5t-75.5 4.5q-113 0 -167 -45.5t-54 -112.5q0 -61 42.5 -97t100.5 -36q44 0 82 20q33 15 54 15q6 0 11 -1q22 -6 48 -46l25 -35q17 -27 17 -51q0 -10 -2 -18q-8 -32 -44 -54q-96 -53 -205 -53q-150 0 -257 98t-107 260q0 60 16 116t53 107.5 t90.5 90t134 61t179.5 22.5q108 0 273.5 -29.5t311 -64.5t315 -64.5t283.5 -29.5q102 0 170 22q60 18 86 18h5q25 -2 83 -36q28 -15 34 -44q1 -6 1 -13q0 -23 -16 -49q-99 -140 -352 -140q-107 0 -230 15q-9 1 -18 1q-28 0 -46 -10q-23 -14 -38 -51l-326 -801 q-44 -110 -98 -197t-110 -144t-112 -96.5t-114.5 -59.5t-107 -28.5t-99.5 -8.5q-114 0 -206.5 38t-150.5 101t-89 142t-31 165z" />
<glyph unicode="U" horiz-adv-x="1779" d="M0 807q0 71 21.5 132.5t56.5 108.5t90 89.5t112.5 73.5t133.5 62.5t143 54.5t151 51l37.5 12.5t34 11t37.5 12.5q49 18 80.5 37t67.5 53q76 80 176 103q14 3 26 3q21 0 39 -9q28 -15 39 -52q14 -42 14 -65q1 -7 -1 -11q-6 -22 -44 -57q-69 -57 -110 -157l-322 -799 q-58 -146 -58 -217q0 -50 28 -64q9 -4 22 -4q87 0 211.5 112.5t214.5 254.5q25 39 53 102l303 754q19 47 49 67.5t81 20.5h100q46 -1 61 -23q7 -11 7 -25q0 -17 -9 -40l-393 -983q-46 -113 -46 -172q0 -64 54 -64q71 0 157 95.5t198 287.5q22 28 53.5 24.5t51.5 -35.5 q10 -17 10 -34q0 -15 -9 -31q-64 -111 -124.5 -196.5t-133 -161t-152 -116t-161.5 -40.5q-83 0 -143 42.5t-70 131.5q-3 28 -15.5 32.5t-31.5 -15.5q-216 -242 -414 -242q-78 0 -133 35t-84 105q-19 47 -19 116q0 34 4 74q14 120 78 278l228 568q12 29 1 41t-42 2 q-212 -72 -291 -113q-168 -95 -174 -211q0 -78 59 -117q66 -41 78 -63.5t12 -101.5v-11q0 -44 -25 -65q-18 -15 -46 -15q-11 0 -23 2q-137 28 -219 127q-80 97 -80 228v6z" />
<glyph unicode="V" horiz-adv-x="1667" d="M0 842q0 70 21.5 131.5t55.5 108t90 89.5t111 73.5t133 62t141.5 53.5t150.5 51q67 22 100 33q49 17 78.5 36.5t64.5 57.5q85 91 207 117q14 3 26 3q58 0 78 -63q12 -35 12 -57q-1 -10 -3 -16q-8 -22 -52 -54q-81 -57 -106 -170l-201 -917q-6 -29 6 -37.5t35 10.5 q137 111 248.5 244.5t183.5 258t126 261t81 245t43 216.5q6 52 30 76.5t77 32.5l78 10q13 2 23 2q61 0 61 -66q0 -8 -1 -16q-10 -91 -26 -179t-50.5 -211.5t-82 -237.5t-125.5 -247.5t-175 -253t-236.5 -243t-305.5 -226.5q-77 -47 -168 -47h-98q-78 0 -78 62q0 14 4 31 l238 1075q7 32 -7.5 45t-46.5 2q-214 -73 -281 -104q-179 -81 -209 -184q-7 -23 -7 -48q0 -76 59 -115q65 -42 77.5 -65.5t12.5 -102.5v-10q0 -44 -25 -65q-18 -15 -46 -15q-11 0 -23 2q-137 28 -219 127q-80 97 -80 228v6z" />
<glyph unicode="W" horiz-adv-x="2103" d="M0 842q0 225 217 368q127 83 397 173q31 10 94 30q74 25 111 37q86 31 144 92q86 86 186 111q14 3 26 3q21 0 39 -9q28 -15 39 -52q14 -41 14 -65q1 -7 -1 -12q-6 -23 -43 -56q-71 -63 -111 -157l-348 -875q-28 -68 -42 -119t-16 -78.5t5.5 -44.5t17.5 -21.5t25 -4.5 q77 0 179 118.5t181 297.5l332 821q19 47 48.5 67.5t80.5 20.5h102q45 -1 61 -23q7 -11 8 -26q0 -17 -9 -39l-389 -969q-28 -69 -42 -119t-16.5 -78t4.5 -44.5t17.5 -21.5t25.5 -5q81 0 187 123.5t174 294.5l321 792q119 300 415 300q27 0 56 -3q46 -3 65 -29q12 -17 12 -41 q0 -13 -3 -28l-2 -10q-12 -57 -36.5 -79t-82.5 -26q-51 -5 -91 -40.5t-75 -121.5l-299 -739q-37 -92 -79.5 -174t-104.5 -168.5t-130 -148t-157.5 -101t-185.5 -39.5q-97 0 -155.5 38t-78.5 99q-11 31 -25.5 35t-39.5 -18q-170 -154 -346 -154q-86 0 -144 36.5t-86 108.5 q-17 46 -17 110q0 37 6 81q16 118 79 272l242 603q11 30 -1 41.5t-42 1.5q-215 -73 -295 -115q-172 -92 -174 -211q0 -76 59 -115q65 -42 77.5 -65.5t12.5 -102.5v-10q0 -44 -25 -65q-18 -15 -46 -15q-11 0 -23 2q-137 28 -219 127q-80 97 -80 228v6z" />
<glyph unicode="X" horiz-adv-x="1579" d="M-82 20q0 43 9.5 87.5t34 95.5t62 92.5t99.5 74t141 44.5q11 1 20 1q74 0 74 -83v-25q0 -63 -16.5 -86t-75.5 -45q-53 -18 -80.5 -56.5t-27.5 -86.5q0 -39 15 -67t40 -42t49.5 -20t50.5 -6q53 0 113.5 28.5t110 68.5t99 92t79 89.5t51.5 69.5l209 295q39 51 39 123v10 l-35 534q-2 55 -43 55q-13 0 -31 -6q-222 -74 -287 -102q-194 -82 -231 -186q-10 -28 -10 -58q0 -73 59 -112q65 -42 77.5 -65.5t12.5 -102.5v-10q0 -44 -25 -65q-18 -15 -46 -15q-11 0 -23 2q-138 29 -220 127q-80 96 -79 227v6q0 70 24 132.5t51 106.5t95.5 91.5t106.5 72 t138 64.5t136 52.5t152 50.5q52 17 77 26q51 17 79 35.5t63 58.5q84 101 219 123q13 2 24 2q59 0 82 -65q10 -30 10 -51q0 -12 -4 -22q-8 -26 -49 -54q-104 -74 -104 -185v-14l22 -315q1 -29 16 -33.5t32 18.5l391 555q44 63 94.5 105t112.5 66q60 23 132 24q3 0 7 -1 q76 -1 164 -28q62 -19 62 -65q0 -21 -13 -47l-6 -13q-26 -53 -54 -67q-18 -9 -49 -9q-17 0 -37 3q-12 2 -23 2q-42 0 -80 -20q-48 -26 -103 -103l-574 -807q-39 -51 -39 -123v-10l43 -631q11 -170 94 -186q67 -12 87 -32t32 -87l4 -17q3 -14 3 -26q1 -26 -13 -45 q-20 -27 -65 -33q-26 -3 -51 -3q-29 0 -56 4q-51 7 -103 33.5t-91.5 71.5t-67.5 122.5t-35 179.5l-22 311q-1 29 -16 33t-32 -19q-54 -76 -103 -135.5t-117.5 -126.5t-135.5 -111.5t-151 -74t-170 -29.5q-177 0 -290.5 103t-113.5 259z" />
<glyph unicode="Y" horiz-adv-x="1720" d="M0 807q0 82 27 151.5t78 122t114.5 95t147 78.5t163 64.5t174.5 59.5q26 8 39.5 12.5t35 11.5t38.5 13q49 18 80.5 37t67.5 53q76 80 176 103q14 3 26 3q21 0 39 -9q27 -15 39 -52q14 -42 14 -65q0 -6 -1 -11q-6 -22 -44 -57q-69 -57 -110 -157l-322 -799 q-30 -76 -44 -131.5t-14.5 -84t8.5 -45.5t18 -20.5t22 -3.5q87 0 213.5 113t216.5 254q41 74 51 100l306 756q19 47 48.5 67.5t80.5 20.5h100q46 0 61 -23q7 -10 7 -25q0 -17 -9 -40l-491 -1211q-10 -26 1 -34.5t34 6.5q222 150 364 403q21 28 52.5 24t52.5 -37 q10 -17 10 -34q0 -15 -8 -29q-117 -202 -254.5 -333t-304.5 -222q-65 -36 -89 -102q-73 -188 -109 -258q-107 -206 -259 -254q-51 -16 -107 -16q-68 0 -119.5 22t-81 58.5t-44.5 79.5q-13 39 -13 83v6q5 177 252 291q11 5 172 74q68 29 94 96l17 43q9 23 1.5 29.5 t-26.5 -10.5q-169 -152 -321 -152q-59 0 -105.5 21.5t-78.5 69t-42 116.5q-3 24 -3 52q0 53 12 121q19 103 69 228l230 568q12 29 1 41t-42 2q-67 -22 -100.5 -33.5t-92.5 -34t-90 -39t-72.5 -42.5t-62.5 -50.5t-36 -57t-15 -67.5q0 -77 61 -117q65 -41 77.5 -64t12.5 -99 v-13q0 -44 -25 -65q-18 -15 -46 -15q-11 0 -23 2q-138 28 -219 127q-80 97 -80 228v6zM647 -446q0 -25 18 -38.5t40 -13.5q74 0 157 176q15 29 15 43q0 5 -1 7q-3 6 -11 6q-10 0 -27 -8q-38 -18 -50 -24t-47.5 -26.5t-50 -35t-29 -38t-14.5 -48.5z" />
<glyph unicode="Z" horiz-adv-x="1320" d="M-154 164q0 56 22 113t63 107t108.5 81t150.5 31q153 0 316 -119q31 -23 54.5 -20t49.5 32q78 97 92 117l586 772q16 22 16 37q0 25 -44 31q-63 10 -247 53t-261 43q-110 0 -167 -52.5t-57 -121.5q0 -63 42.5 -99t101.5 -36q44 0 82 20q33 15 54 15q7 0 12 -2 q22 -6 48 -46l23 -35q17 -27 17 -51q0 -9 -2 -17q-8 -32 -44 -54q-94 -54 -203 -54q-152 0 -258 97.5t-106 257.5q0 77 28 147t82 127.5t142.5 92t200.5 34.5t332.5 -50t308.5 -56q9 -1 18 -1q47 0 99 13q64 15 110 43q57 31 106 41q14 3 26 3q58 0 79 -63l2 -6q8 -26 8 -46 q1 -15 -3 -25q-10 -26 -50 -52q-56 -39 -98 -90l-644 -844q-195 -254 -245 -313q-25 -29 -23.5 -53.5t29.5 -50.5q254 -234 334 -295q72 -58 122.5 -82.5t100.5 -24.5q92 0 203 82q38 31 67 31h6q32 -3 66 -43l41 -47q28 -32 28 -61q0 -35 -40 -68q-186 -146 -365 -146 q-171 0 -377 162q-35 28 -82 70t-77.5 70t-99.5 94t-95 90q-31 29 -57 31h-4q-25 0 -56 -21q-159 -102 -319 -102q-87 0 -156.5 28t-111 74t-63.5 99t-22 108zM74 174q0 -44 32 -72q29 -25 72 -24h10q70 3 140 49q32 20 32 45q0 24 -28 43q-87 64 -152 64q-46 0 -76 -31 t-30 -74z" />
<glyph unicode="[" horiz-adv-x="862" d="M-176 -296.5q-15 22.5 2 65.5l784 1937q19 47 48.5 67.5t80.5 20.5h324q46 0 61 -22.5t-2 -65.5l-18 -39q-19 -47 -48.5 -67.5t-80.5 -20.5h-53q-40 0 -64 -16t-37 -52l-626 -1548q-25 -67 47 -67h55q46 0 61 -23t-2 -66l-18 -38q-19 -47 -48.5 -67.5t-80.5 -20.5h-324 q-46 0 -61 22.5z" />
<glyph unicode="\" horiz-adv-x="776" d="M152 1649q-9 63 55 63h4q34 0 51 -14.5t21 -48.5l239 -1839q9 -64 -55 -64h-4q-34 0 -50.5 15t-21.5 49z" />
<glyph unicode="]" horiz-adv-x="860" d="M-92 -296.5q-15 22.5 2 65.5l18 38q19 48 48.5 68.5t80.5 20.5h54q40 0 63.5 15.5t36.5 51.5l627 1548q25 68 -47 68h-56q-46 0 -61 22.5t2 65.5l18 39q19 47 48.5 67.5t80.5 20.5h324q46 0 61 -22.5t-2 -65.5l-784 -1937q-19 -47 -48.5 -67.5t-80.5 -20.5h-324 q-46 0 -61 22.5z" />
<glyph unicode="^" horiz-adv-x="1046" d="M43 643.5q-10 20.5 16 52.5l578 699q32 40 67.5 56.5t86.5 16.5h61q50 0 72 -22t22 -72v-657q0 -49 -22 -71.5t-72 -22.5h-59q-50 0 -72.5 22.5t-22.5 71.5v291q0 29 -14 34t-33 -18l-266 -328q-32 -40 -67.5 -56.5t-86.5 -16.5h-137q-41 0 -51 20.5z" />
<glyph unicode="_" horiz-adv-x="1122" d="M-190 -172q15 38 38.5 54t63.5 16h977q73 0 45 -72q-15 -38 -39 -54t-64 -16h-976q-73 0 -45 72z" />
<glyph unicode="`" horiz-adv-x="757" d="M207 1460.5q7 18.5 45 18.5h121q50 0 85.5 -16.5t69.5 -55.5l138 -162q26 -31 17 -51t-50 -20h-29q-94 0 -166 61l-209 182q-29 25 -22 43.5z" />
<glyph unicode="a" d="M-35 229q0 57 15.5 140t44.5 180.5t77.5 192.5t107.5 173t140.5 126.5t171.5 48.5q132 0 199 -101q28 -39 49 -45q5 -2 12 -2q20 0 52 14l178 72q37 15 52 -0.5t1 -52.5l-227 -559q-26 -65 -40 -113.5t-17 -76t2.5 -44.5t14.5 -22.5t23 -5.5q67 0 169 110.5t212 298.5 q22 28 54 24q31 -5 51 -37q11 -17 11 -33q0 -15 -9 -30q-51 -88 -100 -160t-108.5 -139.5t-118 -113.5t-126.5 -73.5t-137 -27.5q-142 0 -201 103q-17 32 -32.5 34.5t-41.5 -22.5q-129 -115 -258 -115q-106 0 -163.5 72.5t-57.5 183.5zM246 285q0 -78 65 -78q81 0 172 100 q48 60 62 101l114 282q8 19 8 47v7q-1 32 -10 53q-23 55 -77 55q-60 0 -124 -68.5t-108.5 -162.5t-73 -188t-28.5 -148z" />
<glyph unicode="b" horiz-adv-x="1083" d="M-14 370q18 134 88 308l284 702q19 47 48.5 67.5t80.5 20.5h101q46 0 61 -22q7 -11 7 -26q0 -17 -9 -40l-139 -344q-9 -22 -1 -27.5t28 7.5q95 74 200 74q107 0 167.5 -64.5t60.5 -173.5q0 -81 -35 -218.5t-105 -275.5q-14 -28 -2 -40.5t41 -2.5q83 29 142 92t114 156 q22 28 53.5 24.5t51.5 -35.5q11 -17 11 -35q0 -15 -9 -30q-39 -67 -79.5 -117.5t-95 -95.5t-126 -72.5t-158.5 -37.5q-44 -4 -68.5 -15.5t-58.5 -42.5q-153 -133 -348 -133q-112 0 -185.5 44.5t-105.5 131.5q-20 56 -20 131q0 42 6 90zM250 350q-9 -48 -8 -83 q0 -103 75 -103q24 0 43 8q38 16 42 44q1 4 1 7q0 25 -28 49q-46 36 -76 86q-15 25 -29 22.5t-20 -30.5zM367 582q0 -122 84 -199q23 -22 47 -22q6 0 10 1q28 5 45 39q49 98 82 204t33 153q0 41 -22 67.5t-71 26.5q-28 0 -62.5 -17t-67.5 -49t-55.5 -86t-22.5 -118z" />
<glyph unicode="c" horiz-adv-x="991" d="M-10 317q0 86 25.5 188t78.5 205.5t125 188t175 138t218 53.5q186 0 261 -119q37 -59 37 -138q0 -80 -38 -182q-34 -86 -124 -86h-107q-45 1 -59 23q-6 9 -6 21q0 18 12 42q55 120 55 169q0 16 -6 25q-10 13 -37 13q-65 0 -130.5 -65.5t-110 -156.5t-72 -182t-27.5 -147 q0 -43 18.5 -74.5t50 -47.5t63.5 -23.5t67 -7.5q151 0 303.5 108.5t263.5 300.5q21 27 52.5 23.5t51.5 -35.5q11 -17 11 -34q0 -15 -8 -30q-45 -79 -96 -148.5t-122.5 -138.5t-149.5 -117.5t-178.5 -79t-207.5 -30.5q-192 0 -290.5 90t-98.5 254z" />
<glyph unicode="d" horiz-adv-x="1165" d="M-37 227q0 58 16.5 142t47 181.5t79.5 192.5t108.5 173t140 126t167.5 48q130 0 197 -101q17 -24 32 -24q17 0 29 32l158 383q19 47 48.5 67.5t80.5 20.5h100q45 0 61 -22q7 -11 8 -27q0 -17 -9 -39l-391 -964q-26 -66 -40 -115.5t-16.5 -77t3.5 -43.5t14.5 -21t21.5 -5 q67 0 170 111t211 298q22 28 53.5 24.5t51.5 -35.5q11 -17 11 -35q0 -15 -9 -30q-65 -112 -127.5 -198t-136.5 -161t-156.5 -115t-167.5 -40q-142 0 -201 103q-17 32 -32.5 34.5t-41.5 -22.5q-129 -115 -262 -115q-104 0 -161.5 72.5t-57.5 181.5zM244 285q0 -78 67 -78 q83 0 170 100q45 52 62 101l114 282q8 19 8 47v7q-1 32 -10 53q-23 55 -77 55q-60 0 -124 -68.5t-108.5 -162.5t-73 -188t-28.5 -148z" />
<glyph unicode="e" horiz-adv-x="991" d="M-10 317q0 87 25 188.5t78 205t124.5 188t175.5 138t221 53.5q114 0 194 -52t104 -150q7 -27 6 -57q0 -79 -44 -180q-69 -145 -196 -211q-101 -52 -258 -53q-41 0 -86 4q-32 3 -52 -15t-20 -52q-1 -31 6.5 -57.5t26.5 -53.5t60 -43t100 -16q155 0 308.5 108.5 t262.5 300.5q21 28 52.5 24.5t51.5 -35.5q11 -17 11 -35q0 -15 -8 -30q-45 -79 -97 -148.5t-123.5 -138.5t-149.5 -117.5t-178.5 -79t-207.5 -30.5q-191 0 -289 90t-98 254zM348 569q13 -20 47 -22q93 0 144 45t86 125q28 56 28 93v9q-4 39 -55 39q-39 0 -78 -24 t-71.5 -63.5t-55.5 -76t-43 -76.5q-8 -16 -8 -28t6 -21z" />
<glyph unicode="f" horiz-adv-x="858" d="M-334 -460q-2 14 -2 28q0 82 45 194l582 1444q93 230 198 328t244 98q75 0 127.5 -29.5t75.5 -79t27 -115.5q1 -9 1 -19q0 -57 -20 -117q-82 -295 -254 -610q-40 -74 -73 -120t-79 -85t-105 -59t-140 -27q-30 -2 -46.5 -14t-29.5 -44q-6 -14 -6 -26q0 -28 31 -45 q61 -35 137 -35q163 0 285.5 85t228.5 271q21 28 52 24.5t51 -35.5q11 -18 11 -35q0 -15 -8 -30q-213 -391 -581 -411q-41 -2 -56.5 -17.5t-17.5 -56.5q0 -13 -4 -45q-31 -212 -131 -381q-133 -219 -330 -219q-93 0 -148.5 46.5t-64.5 136.5zM-53 -354q-21 -50 -21 -77 q0 -30 27 -30q42 0 83.5 46.5t72 118t52 138.5t34.5 125q8 39 8 68q0 25 -6 43q-8 29 -34 31t-38 -27zM322 569q-4 -13 -4 -23q0 -14 8 -21q6 -6 16 -6t25 7q42 22 75 64.5t78 124.5q171 318 242 557q16 59 16 93q0 44 -28 44q-87 0 -201 -283z" />
<glyph unicode="g" horiz-adv-x="1146" d="M-98 -416q1 31 9 59t19.5 51.5t31.5 46t38 39t46.5 35t49.5 30.5t53.5 27t52 23.5t53 22.5t48.5 21q65 27 90 94l4 12q9 20 2 25t-24 -9q-92 -88 -195 -88q-102 0 -158.5 73t-56.5 185q0 58 16 141t45.5 180t78 191.5t107.5 172.5t139.5 126t168.5 48q129 0 201 -101 q28 -39 49 -45q5 -2 12 -2q20 0 54 14l176 72q37 15 52 -0.5t1 -52.5l-342 -836q-10 -28 1.5 -37.5t37.5 4.5q123 73 224 181.5t196 275.5q21 28 52.5 24t51.5 -37q11 -17 11 -33q0 -15 -9 -30q-68 -120 -143 -213.5t-154.5 -159.5t-149 -110t-155.5 -86 q-36 -17 -56.5 -39.5t-35.5 -60.5q-29 -73 -55 -127.5t-68 -118.5t-87 -105.5t-108.5 -69.5t-136.5 -28q-115 0 -177 61q-60 59 -60 146v8zM47 -399q0 -25 15 -38.5t38 -13.5q37 0 80.5 40t87.5 132q12 28 1.5 39t-38.5 -2q-41 -19 -68 -33t-56.5 -34.5t-44.5 -43t-15 -46.5 zM246 285q0 -78 65 -78q83 0 170 100q45 52 62 101l114 282q8 19 8 47v7q-1 32 -10 53q-23 55 -75 55q-60 0 -124 -68.5t-108.5 -162.5t-73 -188t-28.5 -148z" />
<glyph unicode="h" horiz-adv-x="1142" d="M-162 22q-7 11 -7 27q0 17 9 39l525 1292q19 47 48.5 67.5t80.5 20.5h100q46 0 61 -22q7 -11 7 -26q0 -17 -9 -40l-143 -356q-11 -25 -1.5 -32.5t32.5 7.5q133 91 256 91q89 0 138.5 -45t49.5 -127q0 -83 -63 -238l-109 -264q-27 -68 -41.5 -118.5t-16 -77t5 -42.5 t15 -20t21.5 -4q67 0 170 111t211 298q22 28 54 25q30 -4 50 -36q10 -17 11 -34q0 -15 -9 -31q-66 -115 -130.5 -202.5t-138.5 -161t-155 -112t-166 -38.5q-76 0 -125.5 29.5t-72.5 89.5q-14 38 -14 91q0 32 5 70q14 100 66 232l49 117q10 28 26 69t24.5 62.5t15 43.5 t6.5 34q0 21 -16 33t-42 12q-32 0 -82 -25t-102 -71q-50 -46 -72 -105l-231 -567q-19 -47 -48.5 -67.5t-80.5 -20.5h-100q-46 0 -62 22z" />
<glyph unicode="i" horiz-adv-x="591" d="M-66 245q10 101 64 234l203 496q19 47 48.5 67.5t80.5 20.5h100q46 -1 61 -23q7 -11 7 -25q0 -17 -9 -40l-227 -559q-26 -66 -40 -115.5t-16 -77t3.5 -43.5t14.5 -21t22 -5q67 0 170 111t211 298q22 28 53.5 24.5t51.5 -35.5q10 -17 10 -34q0 -15 -9 -31 q-295 -514 -583 -514q-70 0 -120 28q-50 27 -78 85q-20 42 -20 107q-1 24 2 52zM322 1325q0 67 46.5 113.5t114.5 46.5q65 0 113.5 -46.5t48.5 -113.5q0 -66 -48.5 -115t-113.5 -49q-67 0 -114 48.5t-47 115.5z" />
<glyph unicode="j" horiz-adv-x="645" d="M-600 -416q1 93 68.5 163t162.5 114q28 14 90 41.5t80 36.5q67 31 90 96l170 418q7 18 4.5 33.5t-9.5 24t-14.5 18t-10.5 16t4 18.5q91 155 229 416q23 46 54 65t83 19h103q46 0 61 -23q7 -10 7 -25q0 -17 -9 -40l-340 -836q-10 -27 1 -37t36 4q123 73 224 181.5 t196 275.5q21 28 52.5 24.5t51.5 -35.5q11 -18 11 -35q0 -15 -9 -30q-68 -120 -143 -213.5t-154 -159.5t-148 -110t-155 -86q-35 -17 -56 -39t-36 -59q-31 -77 -56.5 -131t-67 -119t-86 -105.5t-108 -68t-136.5 -27.5q-118 0 -180 61q-60 58 -60 146v8zM-457 -399 q0 -25 17 -39q16 -13 36 -13h5q84 0 163 172q12 28 2 39t-38 -2q-41 -19 -68 -33t-57 -34.5t-45 -43t-15 -46.5zM395 1325q0 67 47 113.5t115 46.5q65 0 113.5 -46.5t48.5 -113.5q0 -66 -48.5 -115t-113.5 -49q-67 0 -114.5 48.5t-47.5 115.5z" />
<glyph unicode="k" horiz-adv-x="1089" d="M-162 22q-7 11 -7 27q0 17 9 39l525 1292q19 47 48.5 67.5t80.5 20.5h100q46 0 61 -22q7 -11 7 -26q0 -17 -9 -40l-143 -356q-11 -25 -1.5 -32.5t32.5 7.5q133 91 256 91q88 0 138 -45.5t50 -120.5q0 -105 -94 -301q-46 -91 -113.5 -152t-148.5 -84q-36 -9 -50 -28 t-12 -56q3 -74 27 -113q23 -36 69 -36h7q92 3 223.5 118t230.5 291q21 28 52.5 24.5t51.5 -35.5q11 -17 11 -35q0 -15 -8 -30q-38 -67 -89 -135.5t-117 -137t-135.5 -122t-148.5 -86.5t-151 -33q-141 -1 -222 115q-69 98 -69 231q0 23 2 46q6 73 26.5 98.5t59.5 25.5 q25 0 43.5 1.5t49 12t54.5 28.5t51 55t48 88q35 88 35 131q0 51 -52 51q-77 0 -182 -96q-49 -43 -76 -105l-229 -567q-19 -47 -48.5 -67.5t-80.5 -20.5h-100q-46 0 -62 22z" />
<glyph unicode="l" horiz-adv-x="591" d="M-66 245q10 101 64 234l367 901q19 47 48.5 67.5t80.5 20.5h100q46 0 61 -22q7 -11 7 -26q0 -17 -9 -40l-391 -964q-26 -66 -40 -115.5t-16 -77t3.5 -43.5t14.5 -21t22 -5q67 0 170 111t211 298q22 28 53.5 24.5t51.5 -35.5q10 -17 10 -34q0 -15 -9 -31 q-295 -514 -583 -514q-70 0 -120 28q-50 27 -78 85q-20 42 -20 107q-1 24 2 52z" />
<glyph unicode="m" horiz-adv-x="1693" d="M-162 22q-7 11 -7 27q0 17 9 39l361 887q25 61 73 61q21 0 48 -12l84 -37q36 -17 62 -17h6q27 2 65 29q133 91 260 91q66 0 110.5 -28t63.5 -79q10 -31 24.5 -34.5t40.5 16.5q159 125 310 125q88 0 138 -46t50 -126q0 -78 -63 -238l-109 -264q-27 -68 -41.5 -118.5 t-15.5 -77t5 -42.5t14.5 -20t21.5 -4q67 0 169 110.5t212 298.5q22 28 53 24q32 -5 52 -37q10 -17 10 -33q0 -15 -9 -30q-65 -114 -129.5 -202t-138.5 -161t-155 -112t-165 -39q-77 0 -127 29t-74 89q-15 38 -15 92q0 31 5 68q14 100 68 234l45 117q72 177 72 209 q0 21 -15 33t-39 12q-34 0 -83 -24.5t-99 -69.5q-50 -41 -74 -103l-231 -571q-19 -47 -48.5 -67.5t-80.5 -20.5h-102q-45 0 -61 22q-7 11 -8 27q0 17 9 39l211 514q72 179 72 209q0 21 -16 33t-42 12q-72 0 -182 -96q-47 -41 -72 -103l-231 -569q-19 -47 -48.5 -67.5 t-80.5 -20.5h-100q-46 0 -62 22z" />
<glyph unicode="n" horiz-adv-x="1140" d="M-162 22q-7 11 -7 27q0 17 9 39l361 887q25 61 73 61q21 0 48 -12l84 -37q36 -17 62 -17h6q27 2 65 29q133 91 260 91q88 0 136 -45t48 -127q0 -83 -63 -238l-109 -264q-27 -68 -40.5 -118.5t-15.5 -77t5 -42.5t15.5 -20t21.5 -4q65 0 167 110.5t212 298.5q22 28 54 25 q30 -4 50 -36q10 -17 11 -34q0 -15 -9 -31q-66 -114 -129.5 -201.5t-137.5 -161t-155.5 -112.5t-165.5 -39q-76 0 -126 29q-50 30 -74 90q-15 38 -15 92q0 32 5 69q14 100 67 232l49 117q7 18 22 55.5t21 53.5t14.5 39.5t11.5 37t3 23.5q0 21 -16 33t-42 12q-72 0 -182 -96 q-47 -41 -72 -103l-231 -569q-19 -47 -48.5 -67.5t-80.5 -20.5h-100q-46 0 -62 22z" />
<glyph unicode="o" horiz-adv-x="1120" d="M-6 330q0 84 23.5 182.5t75 201.5t122 186.5t174.5 136.5t223 53q162 0 253 -92t91 -259t-77 -350q-12 -29 1 -43.5t42 -5.5q129 46 233 223q22 28 53.5 24.5t51.5 -35.5q11 -17 11 -35q0 -15 -9 -30q-80 -137 -194 -221t-245 -88q-45 -2 -65.5 -10.5t-52.5 -40.5 q-154 -154 -359 -154q-165 0 -258.5 95.5t-93.5 261.5zM264 279q0 -52 23 -83.5t61 -31.5q25 0 49 12q55 30 73 69q9 20 9 46q0 25 -8 57q-4 28 -4 43q0 51 31 92t80 54q37 9 50.5 22.5t24.5 50.5q35 107 35 178q0 56 -23 83.5t-59 27.5q-59 0 -123.5 -73.5t-111 -175 t-77 -205.5t-30.5 -166z" />
<glyph unicode="p" horiz-adv-x="1089" d="M-326 -383q-7 11 -7 26q0 18 9 40l525 1292q27 66 80 66q20 0 43 -9l82 -28q37 -14 61 -14q6 0 11 1q25 4 65 33q96 66 192 66q110 0 164.5 -77t54.5 -198q0 -152 -77.5 -333.5t-167.5 -305.5q-15 -20 -8 -28t30 4q216 110 393 411q22 28 53.5 24.5t51.5 -35.5 q11 -18 11 -35q0 -15 -9 -30q-61 -108 -135.5 -197t-166.5 -162t-206 -114t-238 -41q-174 0 -272 80q-22 19 -22 42t20 42q29 26 48.5 28t39.5 -9t35 -11q57 0 137.5 116.5t137.5 266.5t57 242q0 86 -64 86q-42 0 -91.5 -31t-94.5 -84q-44 -47 -64 -100l-387 -958 q-19 -48 -48.5 -68.5t-80.5 -20.5h-100q-46 0 -62 23z" />
<glyph unicode="q" horiz-adv-x="1187" d="M-37 227q0 58 16.5 142t47 181.5t79.5 192.5t108.5 173t140 126t167.5 48q130 0 197 -101q28 -39 49 -45q5 -2 11 -2q20 0 52 14l181 72q37 15 52 -0.5t1 -52.5l-311 -766q-12 -30 2.5 -49t46.5 -15q104 16 212 131.5t208 286.5q21 28 52 24.5t51 -35.5q11 -18 11 -35 q0 -15 -8 -30q-188 -334 -385 -438q-42 -22 -50.5 -37.5t-2.5 -60.5q3 -19 3 -40q0 -49 -15 -110q-14 -64 -36.5 -123.5t-58 -119t-79 -103.5t-104.5 -71t-130 -27q-96 0 -155 46.5t-71 136.5q-2 17 -2 35q0 80 42 187l90 222q10 26 0.5 34t-35.5 -4q-77 -41 -158 -41 q-104 0 -161.5 72.5t-57.5 181.5zM244 285q0 -78 67 -78q83 0 170 100q45 52 62 101l114 282q9 21 8 53.5t-10 53.5q-23 55 -77 55q-60 0 -124 -68.5t-108.5 -162.5t-73 -188t-28.5 -148zM502 -440q4 -23 33 -23q23 0 44.5 11.5t40 35.5t33 48.5t30 62t25.5 64.5t23 67 q15 40 15 73q0 36 -17 64q-14 23 -38 23h-5q-27 -3 -37 -31l-125 -309q-22 -55 -22 -80v-6z" />
<glyph unicode="r" horiz-adv-x="876" d="M35 563q73 131 129 252q22 44 22 73t-26 75q-19 32 -19 67q0 56 36 110.5t89 90.5q26 17 56 18h3q28 0 52 -14l16 -10q33 -20 41 -44t-6 -59l-16 -39q-8 -21 -8 -40q0 -42 40 -70q9 -7 43.5 -31t49.5 -36t44 -36t44 -41.5t32.5 -41.5t25 -48t7.5 -49q0 -39 -24 -102 l-68 -172q-27 -66 -40.5 -116t-14.5 -77t6 -43.5t15.5 -21t19.5 -4.5q46 0 124 99t203 310q22 28 53 24q32 -5 52 -37q11 -17 11 -33q0 -15 -9 -30q-54 -94 -96 -159.5t-98 -137.5t-106 -116t-111.5 -72.5t-123.5 -28.5q-50 0 -92 15.5t-74 51.5t-45 90q-7 28 -7 63 q1 34 7 75q12 84 54 187l67 172q19 49 19 71q0 34 -45 76q-26 26 -49.5 22t-38.5 -38q-60 -135 -138 -271q-21 -28 -52 -24.5t-51 35.5q-11 18 -11 35q0 15 8 30z" />
<glyph unicode="s" horiz-adv-x="811" d="M16 156q42 26 70.5 30t58 -4t43.5 -8q56 0 83.5 54.5t27.5 195.5q0 37 -3 131.5t-3 146.5q0 26 -10.5 29t-20.5 -20q-80 -152 -121 -224q-22 -29 -53.5 -25.5t-51.5 36.5q-10 17 -10 34q0 16 9 31q124 212 256 486q23 46 53 59q15 6 35 6t45 -6l59 -18q51 -12 69 -40 q12 -19 12 -49q0 -14 -3 -30q-12 -90 -14 -196q-1 -35 -1 -67q0 -64 3 -116q4 -76 9 -157t5 -111q0 -44 -2 -60q-3 -29 10 -35.5t35 13.5q113 103 240 321q21 28 52 24.5t51 -35.5q11 -18 11 -35q0 -15 -8 -30q-49 -88 -95 -156.5t-109.5 -138.5t-131 -115.5t-156 -74.5 t-186.5 -29q-161 0 -260 76q-33 22 -33 52q0 32 35 55z" />
<glyph unicode="t" horiz-adv-x="626" d="M-66 246q10 100 64 233l209 516q14 32 2 50t-47 18h-27q-55 0 -55 38q0 14 8 34q17 41 41 57t66 16h24q40 0 64 15.5t39 52.5l43 104q19 47 48.5 67.5t80.5 20.5h100q46 0 61 -22q7 -11 7 -26q0 -17 -9 -40l-43 -104q-14 -32 -2 -50t47 -18h21q54 0 54 -38q0 -14 -7 -33 q-17 -41 -41 -57.5t-66 -16.5h-18q-40 0 -63.5 -15.5t-38.5 -52.5l-234 -579q-27 -67 -40.5 -116.5t-15 -76.5t6.5 -43.5t18.5 -21t26.5 -4.5q80 0 186.5 109.5t217.5 299.5q22 28 54 25q30 -4 50 -36q10 -17 11 -34q0 -15 -9 -31q-295 -514 -606 -514q-75 0 -128 28 q-54 29 -82 87q-21 43 -20 107q-1 24 2 51z" />
<glyph unicode="u" horiz-adv-x="1126" d="M-66 139q-4 23 -4 52q0 41 9 93q15 88 59 195l201 496q19 47 48.5 67.5t80.5 20.5h100q46 -1 61 -23q7 -11 7 -25q0 -17 -9 -40l-225 -559q-24 -60 -37.5 -104t-16.5 -69.5t2.5 -40.5t14.5 -19.5t23 -4.5q57 0 122 73t144 206q35 57 61 123l160 395q19 47 48.5 67.5 t80.5 20.5h101q46 -1 61 -23q7 -11 7 -25q0 -17 -9 -40l-225 -559q-26 -64 -40 -112t-16.5 -76t3 -45t15.5 -23t25 -6q66 0 166 110t209 299q22 28 53.5 24.5t51.5 -35.5q11 -17 11 -35q0 -15 -9 -30q-293 -514 -582 -514q-69 0 -121.5 28.5t-77.5 86.5q-14 31 -29 34 t-40 -20q-129 -129 -271 -129q-54 0 -97 16.5t-74.5 54.5t-41.5 95z" />
<glyph unicode="v" horiz-adv-x="1003" d="M-72 92l193 879q10 49 37 70.5t78 21.5h94q77 0 77 -61q0 -14 -4 -31l-143 -660q-6 -29 6 -37t35 11q331 271 447 686q13 52 39.5 75t80.5 29l39 4q9 1 16 1q33 0 49 -18q12 -14 12 -37q0 -12 -3 -28q-75 -324 -287 -596q-20 -26 -11 -46t42 -23q9 -1 17 -1 q159 0 296 232q22 28 53.5 24.5t51.5 -35.5q11 -17 11 -35q0 -15 -9 -30q-99 -175 -239 -255q-87 -50 -182 -50q-59 0 -120 19q-33 9 -54 9q-7 0 -12 -1q-22 -4 -57 -31q-82 -63 -207 -133q-77 -45 -172 -45h-100q-78 0 -78 62q0 13 4 30z" />
<glyph unicode="w" horiz-adv-x="1599" d="M-64 138q-5 24 -5 55q1 39 9 89q14 88 58 197l203 496q19 47 48.5 67.5t80.5 20.5h100q46 -1 61 -23q7 -11 7 -25q0 -17 -9 -40l-227 -559q-25 -62 -38 -107.5t-15 -70t4 -39t14 -18t19 -3.5q60 0 125 71.5t145 207.5q38 62 62 123l159 395q19 47 48.5 67.5t80.5 20.5 h101q46 -1 61 -23q7 -11 7 -25q0 -17 -9 -40l-227 -559q-24 -61 -37.5 -105.5t-16.5 -69.5t2.5 -39.5t14 -19t22.5 -4.5q38 0 93 37q47 34 61 65q9 20 8 53q0 17 -2 38q-2 6 -2 20q0 56 36 98t89 50q41 8 56 19.5t30 47.5q74 171 121 365q13 51 39.5 73.5t79.5 28.5l53 6 q8 1 16 1q32 0 48 -18q12 -14 12 -37q0 -13 -4 -28q-87 -358 -238 -608q-17 -28 -6 -46.5t45 -18.5q83 2 165 61.5t150 177.5q22 28 53.5 24.5t51.5 -35.5q11 -17 11 -35q0 -15 -9 -30q-93 -163 -233 -247q-105 -63 -219 -63q-38 0 -77 7q-24 5 -42 5q-13 0 -23 -3 q-23 -6 -53 -36q-183 -177 -385 -177q-167 0 -217 117q-14 31 -29.5 34t-40.5 -20q-134 -131 -272 -131q-55 0 -98 16t-74 54.5t-42 94.5z" />
<glyph unicode="x" horiz-adv-x="1110" d="M11 20q-2 4 -2 9q0 17 22 39l340 352q49 49 61 127q33 219 33 282q0 29 -5.5 42.5t-23.5 13.5q-17 0 -36.5 -12t-42 -39t-41 -51.5t-45.5 -69.5t-43 -72.5t-45.5 -80t-41.5 -73.5q-18 -20 -46.5 -13t-50.5 36t-9 53q22 37 57 98.5t55.5 98t53 87.5t56.5 81t57.5 65 t65 53.5t71 31t81.5 12.5q97 0 147 -58t56 -158q2 -31 16.5 -36t36.5 18l183 191q27 29 55 29q26 0 53 -25l4 -4q29 -25 29 -53q0 -26 -27 -54l-327 -340q-51 -54 -62 -127q-26 -160 -26 -221q0 -98 59 -98q71 0 193 117t223 292q22 28 53.5 24.5t51.5 -35.5q10 -17 10 -34 q0 -15 -9 -31q-60 -105 -127 -193.5t-145.5 -162.5t-167 -116t-176.5 -42q-90 0 -147.5 47t-77.5 134q-7 32 -24 36.5t-40 -18.5l-100 -104q-35 -37 -72 -52.5t-88 -15.5h-27q-40 0 -48 20z" />
<glyph unicode="y" horiz-adv-x="1107" d="M-137 -416q3 93 69.5 162.5t159.5 114.5q28 14 90.5 41.5t85.5 38.5q62 27 88 96q8 19 1.5 23t-21.5 -9q-96 -78 -197 -78q-50 0 -91 16t-71 54.5t-41 94.5q-5 24 -5 54q0 40 9 91q15 88 58 196l203 496q19 47 48.5 67.5t80.5 20.5h100q46 0 61 -23q7 -10 7 -25 q0 -17 -9 -40l-227 -559q-24 -60 -37.5 -104t-16 -69.5t3 -40.5t14 -19.5t22.5 -4.5q59 0 124 73.5t144 209.5q38 62 62 123l159 391q19 47 48.5 67.5t80.5 20.5h101q46 0 61 -23q7 -10 7 -25q0 -17 -9 -40l-342 -836q-10 -28 1.5 -37.5t37.5 4.5q123 73 224 181.5 t196 275.5q21 28 52.5 24.5t51.5 -35.5q11 -18 11 -35q0 -15 -9 -30q-70 -120 -145 -213.5t-153.5 -159.5t-147.5 -110t-154 -86q-36 -17 -56.5 -39.5t-35.5 -60.5q-29 -73 -55 -127.5t-68 -118.5t-87 -105.5t-109.5 -69.5t-137.5 -28q-115 0 -178 61q-59 59 -59 146v8z M6 -395q0 -24 16 -41q15 -15 38 -15h3q37 2 80.5 42t85.5 130q7 15 7 26q0 9 -6 15q-5 6 -15.5 6t-24.5 -6q-54 -25 -89.5 -45t-65 -50.5t-29.5 -61.5z" />
<glyph unicode="z" horiz-adv-x="1060" d="M35 563q32 55 68 124.5t59 114.5t53 96t56 81.5t60 58t75.5 40t91.5 12.5q56 0 134 -18q77 -20 153 -32q39 -6 76 -6q35 0 69 6q24 4 43 4t31 -4q25 -9 53 -43q25 -32 25 -58q0 -29 -33 -60l-517 -484q-22 -20 -22 -37q0 -21 37 -36q20 -8 61 -29.5t74.5 -33t71.5 -11.5 q75 0 158.5 70.5t183.5 244.5q21 28 52.5 24.5t51.5 -35.5q11 -17 11 -35q0 -15 -9 -30q-69 -120 -128 -203.5t-132 -159t-154.5 -113.5t-171.5 -38q-58 0 -112.5 16t-91.5 35q-36 18 -74 34q-33 14 -70 14h-9q-41 -2 -87 -27q-33 -18 -57 -18q-5 0 -9 1q-26 5 -55 42 q-20 26 -20 52q0 32 32 62l553 516q22 22 22 38q0 22 -38 34q-7 2 -36 11t-43 12.5t-39 7.5t-46 4q-33 0 -59.5 -10.5t-49 -28t-53.5 -62t-57 -88t-76 -131.5q-21 -28 -53 -24q-31 5 -51 37q-11 17 -11 33q0 15 9 30z" />
<glyph unicode="{" horiz-adv-x="946" d="M-18.5 -142.5q-7.5 50.5 1.5 97t29 92.5q26 61 119 248.5t96 193.5q66 136 -106 136q-31 0 -38 16.5t3 30.5l53 131q8 20 28 33.5t44 13.5q192 0 258 235q2 8 17 63.5t27.5 100.5t32 107.5t36.5 107.5q41 111 81 165q124 165 412 165h72q31 0 42 -16t-1 -45l-49 -121 q-11 -27 -37 -27h-33q-50 0 -91.5 -20.5t-71 -58.5t-49 -74.5t-38.5 -85.5q-25 -64 -66.5 -196t-56.5 -169q-70 -183 -200 -236q-30 -11 -33 -23.5t18 -35.5q73 -85 2 -240q-95 -193 -176 -380q-17 -38 -25 -60t-12 -47.5t3.5 -38.5t28.5 -22t58 -9h46q36 0 24 -36l-49 -123 q-10 -27 -27 -38t-45 -11h-57q-89 0 -149 25t-87 63t-34.5 88.5z" />
<glyph unicode="|" horiz-adv-x="776" d="M332 -195v1848q0 31 14.5 45t46.5 14h4q60 0 60 -59v-1848q0 -59 -60 -59h-4q-32 0 -46.5 14t-14.5 45z" />
<glyph unicode="}" horiz-adv-x="937" d="M-71 -303q-11 16 1 45l50 121q10 26 36 26h33q50 0 91.5 20.5t71 59t49 75t38.5 85.5q25 64 66.5 196t56.5 169q69 181 201 235q29 11 32.5 23.5t-18.5 35.5q-73 85 -2 240q91 186 176 381q17 38 25 60t12 47t-3.5 38t-28.5 22t-58 9h-45q-37 0 -25 37l49 123 q10 27 27 38t45 11h57q89 0 149 -25t87 -63.5t34.5 -88.5t-1.5 -97t-29 -93q-26 -61 -119 -248.5t-96 -193.5q-66 -135 106 -135q22 0 31.5 -8.5t9 -18t-5.5 -20.5l-53 -131q-8 -20 -28 -33.5t-44 -13.5q-192 0 -258 -236q-3 -10 -17 -63.5t-27 -100t-32 -108.5t-36 -107 q-11 -30 -17 -45t-21 -47t-28 -50.5t-36 -46.5t-47.5 -45t-60.5 -37.5t-76 -31.5t-93.5 -18.5t-114.5 -7.5h-72q-31 0 -42 16z" />
<glyph unicode="~" horiz-adv-x="1513" d="M334 532q-46 82 26 140q129 110 283 110q65 0 126.5 -20t100.5 -43.5t91 -43.5t102 -20q64 0 117 33q45 29 73 20.5t60 -63.5q45 -80 -25 -141q-124 -111 -276 -111q-54 0 -103 13.5t-85 32.5t-70.5 37.5t-75.5 32t-84 13.5q-71 0 -127 -35q-45 -29 -73 -20t-60 65z" />
<glyph unicode="&#xa1;" horiz-adv-x="755" d="M-172 -384q-14 22 6 62l406 842q20 43 48.5 60.5t76.5 17.5h4q84 0 59 -82l-272 -831q-15 -49 -43.5 -70t-79.5 -21h-146q-45 0 -59 22zM299 901q0 78 54.5 133.5t133.5 55.5q78 0 133.5 -55.5t55.5 -133.5t-55.5 -133t-133.5 -55q-79 0 -133.5 55t-54.5 133z" />
<glyph unicode="&#xa2;" horiz-adv-x="933" d="M-23 301q0 85 24.5 190.5t76.5 219.5t123 212.5t174.5 172t220.5 94.5q44 7 65.5 25t38.5 61l23 53q10 28 27.5 39.5t48.5 11.5h4q52 0 33 -51l-25 -61q-15 -38 -7 -59t46 -40q57 -27 90.5 -74.5t42 -106t0.5 -120.5t-31 -127q-30 -86 -123 -86h-96q-91 0 -51 82 q45 95 39 158q-1 22 -12 32t-24 4t-21 -26l-267 -665q-14 -31 -0.5 -48.5t47.5 -13.5q108 13 242 105q37 25 64 22.5t59 -33.5l2 -2q57 -55 -4 -104q-216 -178 -445 -191q-44 -3 -65.5 -18.5t-38.5 -56.5l-20 -54q-19 -51 -74 -51h-4q-54 0 -35 51l29 68q15 41 8 62.5 t-45 43.5q-140 79 -140 281zM250 285q1 -31 19 -34t28 25l246 607q11 28 0 35t-33 -13q-99 -97 -182.5 -298.5t-77.5 -321.5z" />
<glyph unicode="&#xa3;" horiz-adv-x="1421" d="M108.5 172.5q5.5 39.5 28 71.5t57.5 56.5t79.5 31.5t93.5 -2q35 -8 56 1.5t40 41.5q53 100 82 233q15 72 -58 72h-8q-75 0 -47 70l10 30q12 29 30.5 41t51.5 12h2q32 0 48 13.5t24 44.5q138 606 578 606q85 0 146.5 -23t95 -62.5t47.5 -93t8 -112t-29 -121.5 q-30 -86 -123 -86h-78q-91 0 -61 86q63 166 -54 166q-164 0 -245 -346q-18 -72 55 -72h133q79 0 49 -77q-17 -41 -42 -58.5t-68 -17.5h-97q-40 0 -61 -16t-31 -56q-45 -175 -159 -330q-22 -28 -15 -47.5t41 -27.5q42 -11 62 -11q63 0 110 52t86 141q22 50 50.5 69t82.5 19 h64q45 0 60.5 -22.5t-1.5 -65.5q-24 -60 -48 -108.5t-65.5 -108t-88 -99t-114.5 -67t-145 -27.5q-69 0 -174 33q-53 19 -90 19t-90 -19q-56 -17 -109 -15.5t-98 29.5t-63 76q-14 37 -8.5 76.5z" />
<glyph unicode="&#xa4;" horiz-adv-x="1226" d="M167 385q0 29 32 61l6 7q32 31 37.5 56t-11.5 66q-61 156 0 312q17 41 11.5 67t-37.5 58l-6 6q-32 32 -32 61.5t32 61.5l20 20q32 32 61.5 32t61.5 -32l6 -6q33 -33 57.5 -38.5t67.5 11.5q73 31 154 31t155 -31q43 -17 67.5 -11.5t57.5 38.5l6 6q32 32 61.5 32t61.5 -32 l21 -20q32 -32 32 -61.5t-32 -61.5l-6 -6q-33 -33 -38.5 -58t11.5 -67q61 -156 0 -312q-17 -42 -11.5 -66.5t38.5 -55.5l6 -7q32 -32 32 -61t-32 -61l-21 -21q-32 -32 -61.5 -32t-61.5 32l-6 6q-33 33 -57.5 38.5t-67.5 -11.5q-74 -31 -155 -31t-154 31q-43 17 -67.5 11.5 t-57.5 -38.5l-6 -6q-32 -32 -61.5 -32t-61.5 32l-20 21q-32 32 -32 61zM444 731.5q0 -76.5 54 -131.5q56 -52 131 -52t129 52q56 56 56 132t-56 130q-54 54 -129 54t-131 -54q-54 -54 -54 -130.5z" />
<glyph unicode="&#xa5;" horiz-adv-x="1062" d="M67.5 572.5q-13.5 19.5 0.5 56.5q17 43 42 60.5t68 17.5h111q23 0 33 8.5t10 29.5v3q0 20 -8.5 29t-28.5 9h-82q-38 0 -51 19.5t2 56.5l4 10q13 37 36.5 52.5t63.5 15.5h4q38 0 56.5 17t21.5 55l27 362q5 51 28 72.5t74 21.5h76q50 0 70 -22.5t16 -71.5l-33 -325 q-1 -28 10 -32t25 19l246 355q29 42 62.5 59.5t84.5 17.5h121q41 0 52 -20.5t-13 -54.5l-295 -396q-20 -26 -12 -41.5t41 -15.5h4q68 0 43 -66l-4 -12q-17 -41 -42.5 -58.5t-68.5 -17.5h-69q-48 0 -78 -41q-12 -17 -7 -27.5t25 -10.5h94q38 0 51.5 -19.5t0.5 -56.5 q-17 -43 -42.5 -60.5t-68.5 -17.5h-117q-40 0 -63.5 -15.5t-36.5 -52.5l-160 -397q-19 -47 -48.5 -67.5t-80.5 -20.5h-104q-46 0 -61.5 22.5t1.5 65.5l160 397q25 68 -47 68h-92q-38 0 -51.5 19.5z" />
<glyph unicode="&#xa6;" horiz-adv-x="776" d="M332 -195v758q0 60 61 60h4q60 0 60 -60v-758q0 -59 -60 -59h-4q-32 0 -46.5 14t-14.5 45zM332 897v756q0 31 14.5 45t46.5 14h4q60 0 60 -59v-756q0 -61 -60 -61h-4q-32 0 -46.5 14.5t-14.5 46.5z" />
<glyph unicode="&#xa7;" horiz-adv-x="1148" d="M44 284q12 97 79 138q34 20 76 20q53 0 89 -35.5t36 -87.5q0 -58 -43 -98q-29 -28 -11 -52t54 -24q59 0 93 66.5t13 118.5q-11 31 -43 63.5t-67.5 62.5t-70 65t-57 84.5t-22.5 107.5q0 53 16.5 103t59 99t106.5 78q43 20 56.5 36.5t25.5 60.5q28 99 106 166t208 67 q164 0 245 -115q62 -87 49 -193q-12 -97 -79 -139q-35 -22 -78 -22q-53 0 -89 35.5t-36 87.5q0 59 43 96q28 29 11 53.5t-54 24.5q-60 0 -94 -64.5t-13 -119.5q12 -32 44 -64.5t67.5 -62t69.5 -64.5t56.5 -84.5t22.5 -107.5q0 -53 -16.5 -103.5t-59 -100t-106.5 -77.5 q-45 -21 -58.5 -36.5t-25.5 -61.5q-11 -42 -32.5 -79t-58 -71.5t-96 -54.5t-134.5 -20q-158 0 -236 113q-60 87 -46 191zM377 729q0 -39 21.5 -73.5t49 -57t69.5 -56.5t67 -61q20 -23 46 -23t46 23q31 40 31 86q0 38 -22 72.5t-50 57t-70 57t-67 61.5q-20 22 -46 21.5 t-46 -23.5q-29 -37 -29 -84z" />
<glyph unicode="&#xa8;" horiz-adv-x="833" d="M139 1356q0 63 44 106t106 43t105.5 -43t43.5 -106q0 -62 -44 -106t-105 -44t-105.5 44t-44.5 106zM514 1356q0 63 44 106t106 43t105.5 -43t43.5 -106q0 -62 -44 -106t-105 -44q-62 0 -106 44t-44 106z" />
<glyph unicode="&#xa9;" horiz-adv-x="1441" d="M102 483q0 138 61.5 270.5t162 230t234 157t271.5 59.5q225 0 371 -145t146 -365q0 -139 -62 -271.5t-163 -229.5t-235 -156.5t-272 -59.5q-224 0 -369 145t-145 365zM242 481q0 -164 108 -267t271 -103q109 0 217 49.5t189 129t131 185t50 211.5q0 159 -103.5 266 t-275.5 107q-149 0 -285.5 -83t-219 -217t-82.5 -278zM416 465q0 58 19.5 124.5t56 130t84.5 114.5t110.5 82.5t128.5 31.5q120 0 169.5 -74t21.5 -178q-10 -41 -39.5 -63.5t-71.5 -22.5h-18q-89 0 -58 82q21 50 19.5 76.5t-31.5 26.5q-51 0 -102.5 -66t-81 -145t-29.5 -129 q0 -40 20 -64t60 -24q84 0 184 104q22 22 39 23.5t45 -19.5q44 -32 8 -74q-59 -73 -143.5 -120.5t-173.5 -47.5q-98 0 -157.5 61.5t-59.5 170.5z" />
<glyph unicode="&#xaa;" horiz-adv-x="1009" d="M143 799q0 55 17.5 138.5t55.5 181t89 181t127.5 139.5t161.5 56q94 0 147 -65q32 -40 53 -45.5t68 12.5l103 41q37 15 52.5 -0.5t0.5 -53.5l-174 -430q-21 -53 -32 -92t-13 -60.5t4 -34t14 -16t21 -3.5q15 0 30 6q26 13 45 -11l19 -20q32 -40 -12 -68q-84 -51 -168 -51 q-103 0 -154 72q-20 31 -34 33t-42 -23q-100 -82 -200 -82q-83 0 -131 54t-48 141zM373 852q0 -61 53 -61q58 0 125 67q42 48 63 96l88 222q6 17 5 44t-9 44q-20 41 -61 41q-48 0 -98.5 -54.5t-85.5 -129.5t-57.5 -150t-22.5 -119z" />
<glyph unicode="&#xab;" horiz-adv-x="1669" d="M243.5 495.5q-4.5 28.5 10.5 69.5q27 70 94 111l516 295q32 19 46 6.5t1 -47.5l-61 -148q-35 -85 -115 -139l-147 -94q-62 -39 -17 -96l39 -52q31 -40 36.5 -77t-13.5 -84l-21 -47q-36 -87 -98 -19l-238 262q-28 31 -32.5 59.5zM794.5 495.5q-4.5 28.5 10.5 69.5 q27 70 94 111l516 295q32 19 46 6.5t1 -47.5l-61 -148q-35 -85 -115 -139l-149 -94q-61 -40 -17 -96l41 -52q31 -40 36.5 -77t-13.5 -84l-21 -47q-36 -87 -98 -19l-238 262q-28 31 -32.5 59.5z" />
<glyph unicode="&#xac;" horiz-adv-x="1230" d="M97 487.5q-15 22.5 3 65.5l27 68q20 47 50 67.5t81 20.5h735q46 0 61.5 -22.5t-1.5 -65.5l-144 -349q-19 -47 -48.5 -67.5t-80.5 -20.5h-61q-46 0 -61.5 22.5t1.5 65.5l52 125q14 32 2 50t-47 18h-508q-46 0 -61 22.5z" />
<glyph unicode="&#xad;" horiz-adv-x="1050" d="M293 514.5q-15 22.5 2 65.5l6 16q19 47 48.5 67.5t80.5 20.5h387q46 0 61.5 -22.5t-1.5 -65.5l-7 -16q-19 -47 -48.5 -67.5t-80.5 -20.5h-387q-46 0 -61 22.5z" />
<glyph unicode="&#xae;" horiz-adv-x="860" d="M119 985q0 133 73.5 251.5t193 188.5t249.5 70q161 0 263.5 -104t102.5 -261q0 -98 -44 -191.5t-115 -162t-166 -110t-193 -41.5q-160 0 -263 102.5t-101 257.5zM231 987q0 -112 69.5 -181t188.5 -69q39 0 66 6q11 2 16 7.5t5.5 10t-0.5 19t-1 23.5q0 32 9.5 88t9.5 67 q0 20 -8 33q-6 9 -15.5 8.5t-13.5 -10.5l-39 -98q-11 -26 -28 -37.5t-46 -11.5h-4q-54 0 -32 49l98 250q10 28 27.5 39.5t48.5 11.5h4q54 0 35 -51l-19 -47q-6 -17 7 -20q14 -1 38 22q29 29 29 65q0 33 -23.5 52.5t-66.5 19.5q-64 0 -100.5 -44.5t-26.5 -88.5q3 -18 -19 -25 l-45 -12q-12 -3 -20.5 2.5t-9.5 17.5q-15 101 55 170.5t172 69.5q84 0 137 -46.5t53 -117.5q0 -70 -51 -112q-6 -5 -17 -14q-23 -19 -26 -27.5t3 -39.5q0 -4 0.5 -6t1 -5.5t1.5 -6.5q2 -6 2 -18q0 -17 -7 -60.5t-7 -50.5q0 -12 10 -12q16 0 47.5 26.5t65.5 69t59 105.5 t25 125q0 109 -70 179t-184 70q-99 0 -192.5 -54t-152.5 -146.5t-59 -194.5z" />
<glyph unicode="&#xaf;" horiz-adv-x="757" d="M156 1341q17 41 41 57.5t65 16.5h455q75 0 47 -72q-17 -41 -41 -57t-66 -16h-454q-74 0 -47 71z" />
<glyph unicode="&#xb0;" horiz-adv-x="653" d="M168 1163q0 137 98 234.5t236 97.5q134 0 230.5 -98t96.5 -234t-96.5 -232.5t-230.5 -96.5q-138 0 -236 96.5t-98 232.5zM348 1163q0 -63 45.5 -106t108.5 -43q61 0 105 43.5t44 105.5q0 63 -44.5 107.5t-104.5 44.5q-63 0 -108.5 -44.5t-45.5 -107.5z" />
<glyph unicode="&#xb1;" horiz-adv-x="1241" d="M-73.5 22.5q-15.5 22.5 1.5 65.5l31 72q19 47 48.5 67.5t80.5 20.5h737q46 0 61.5 -22.5t-1.5 -65.5l-31 -72q-19 -47 -48.5 -67.5t-80.5 -20.5h-737q-46 0 -61.5 22.5zM127 571.5q-15 22.5 2 65.5l31 72q19 47 48.5 67.5t80.5 20.5h160q40 0 63.5 15.5t38.5 51.5l24 62 q19 47 49 67.5t81 20.5h77q46 0 61.5 -22.5t-1.5 -65.5l-25 -62q-25 -67 47 -67h162q46 0 61 -22.5t-2 -65.5l-30 -72q-19 -47 -48.5 -67.5t-80.5 -20.5h-162q-40 0 -63.5 -15.5t-38.5 -52.5l-25 -61q-19 -47 -48.5 -67.5t-80.5 -20.5h-80q-46 0 -61 22.5t2 65.5l24 61 q14 32 2 50t-47 18h-160q-46 0 -61 22.5z" />
<glyph unicode="&#xb2;" horiz-adv-x="743" d="M-18 649.5q-15 22.5 4 63.5l4 10q20 49 47 81t72 60q114 69 225 156q205 166 205 283q0 33 -14.5 54t-43.5 21q-38 0 -69.5 -32.5t-49.5 -85.5q-20 -57 -42.5 -74t-79.5 -17q-42 0 -61 25.5t-9 67.5q12 51 35.5 95.5t61.5 85t98 64t135 23.5q124 0 183.5 -59t59.5 -148 q0 -66 -31.5 -132.5t-87 -126t-101 -99t-103.5 -82.5l-53 -39q-20 -14 -16.5 -25.5t26.5 -11.5h117q95 0 55 -94q-20 -46 -50 -66t-81 -20h-375q-46 0 -61 22.5z" />
<glyph unicode="&#xb3;" horiz-adv-x="735" d="M17.5 814.5q1.5 39.5 7.5 78.5q7 40 37 64t71 24h17q49 0 63 -19t2 -67q-32 -133 61 -133q67 0 109.5 61.5t42.5 120.5q0 78 -94 86q-71 6 -49 64q18 42 38 58.5t68 25.5q46 9 78 29.5t45.5 44t18 39t4.5 26.5q0 61 -64 61q-56 0 -90 -63q-31 -57 -55.5 -72.5 t-81.5 -15.5q-41 0 -57 24.5t-1 65.5q36 91 113.5 152t202.5 61q58 0 101.5 -15.5t66 -37t36 -50.5t16.5 -49t3 -39q0 -59 -31.5 -113.5t-97.5 -90.5q-34 -20 -36.5 -34.5t20.5 -45.5q28 -42 28 -107q0 -56 -21 -113t-61.5 -108.5t-111 -84t-158.5 -32.5q-64 0 -112 17 t-73.5 46t-41 65.5t-14 76z" />
<glyph unicode="&#xb4;" horiz-adv-x="757" d="M216 1194q-9 20 17 51l138 162q34 39 69.5 55.5t85.5 16.5h121q38 0 45 -18.5t-22 -43.5l-209 -182q-72 -61 -166 -61h-29q-41 0 -50 20z" />
<glyph unicode="&#xb5;" horiz-adv-x="1128" d="M-325.5 -383q-15.5 23 1.5 66l525 1292q19 47 48.5 67.5t80.5 20.5h100q46 0 61 -22.5t-2 -65.5l-227 -559q-25 -62 -38 -107.5t-15 -70t4 -39t14 -18t19 -3.5q60 0 125.5 73t142.5 206q47 87 61 121l162 397q19 47 48.5 67.5t80.5 20.5h101q46 0 61 -22.5t-2 -65.5 l-227 -559q-26 -65 -40 -113.5t-17 -76t2.5 -44.5t14.5 -22.5t23 -5.5q67 0 170 111t211 298q22 28 53.5 24.5t51.5 -36t2 -64.5q-295 -514 -584 -514q-148 0 -197 115q-14 31 -29 34t-40 -20q-132 -129 -270 -129q-12 0 -28 2t-22.5 2t-14 -5.5t-11.5 -18.5l-109 -270 q-19 -48 -48.5 -68.5t-80.5 -20.5h-100q-46 0 -61.5 23z" />
<glyph unicode="&#xb6;" horiz-adv-x="1495" d="M152 811q62 151 210 257t297 106h801q46 0 61.5 -23t-1.5 -66l-29 -73q-10 -26 -25.5 -36.5t-42.5 -10.5h-4q-28 0 -44 -10.5t-25 -36.5l-371 -918q-32 -79 -92 -144.5t-142 -88.5q-32 -9 -55.5 4t-34.5 45q-14 47 -8.5 65t45.5 58q33 30 62 92l350 866q25 68 -47 68h-6 q-40 0 -64 -15.5t-39 -52.5l-362 -897q-32 -78 -91.5 -144t-140.5 -89q-32 -9 -55.5 4t-34.5 45q-14 47 -9 64.5t46 58.5q35 35 59 92l142 350q14 32 2 50t-47 18h-90q-149 0 -212 106.5t-3 255.5z" />
<glyph unicode="&#xb7;" horiz-adv-x="866" d="M274 588q0 78 55.5 133t133.5 55q79 0 134.5 -55t55.5 -133t-55.5 -133.5t-134.5 -55.5q-78 0 -133.5 55.5t-55.5 133.5z" />
<glyph unicode="&#xb8;" horiz-adv-x="757" d="M95.5 -409.5q-9.5 23.5 8.5 49.5q26 41 46 50t73 3q44 -3 74.5 10t30.5 47q0 44 -62 47q-62 6 -33 60l39 69q22 40 50 57t73 17h31q56 0 31 -51q-13 -26 -8 -40.5t34 -31.5q58 -33 58 -113q0 -56 -26 -99.5t-69 -69t-96 -38.5t-108 -12t-105 15q-32 7 -41.5 30.5z" />
<glyph unicode="&#xb9;" horiz-adv-x="595" d="M76.5 1041q1.5 18 21.5 38q171 174 308 359q32 43 64.5 59t86.5 16q44 0 59 -22.5t-2 -63.5l-288 -714q-19 -46 -48 -66t-79 -20h-4q-46 0 -61.5 22.5t1.5 63.5l144 362q8 22 0 26.5t-23 -14.5q-81 -87 -84 -90q-38 -38 -74 0l-4 4q-19 22 -17.5 40z" />
<glyph unicode="&#xba;" horiz-adv-x="882" d="M166 877q0 66 18.5 145.5t59 163.5t97 152.5t141 112.5t182.5 44q126 0 198 -69.5t72 -198.5q0 -68 -19 -148.5t-60 -164.5t-97.5 -153t-140 -113t-179.5 -44q-127 0 -199.5 72.5t-72.5 200.5zM379 846q0 -44 18 -67t49 -23q61 0 127 96.5t106 213.5t40 189 q0 45 -18 66.5t-46 21.5q-47 0 -99 -59t-89.5 -140.5t-62.5 -164.5t-25 -133z" />
<glyph unicode="&#xbb;" horiz-adv-x="1669" d="M199 197l59 147q35 86 115 137l149 92q64 40 19 97l-43 55q-31 40 -36.5 77.5t13.5 84.5l19 45q36 86 98 18l239 -260q28 -31 33 -59t-10 -68q-31 -72 -96 -112l-512 -295q-32 -19 -46 -6.5t-1 47.5zM750 197l59 147q35 86 115 137l147 92q64 40 19 99l-41 53 q-31 40 -36.5 77.5t13.5 84.5l18 45q17 42 42.5 46.5t56.5 -28.5l239 -260q28 -31 33 -59.5t-10 -69.5q-27 -69 -94 -110l-514 -295q-32 -19 -46 -6.5t-1 47.5z" />
<glyph unicode="&#xbc;" horiz-adv-x="1648" d="M148.5 16.5q-7.5 16.5 15.5 44.5l1112 1346q27 33 57.5 47t73.5 14h4q35 0 43.5 -17.5t-14.5 -43.5l-1114 -1346q-27 -33 -57.5 -47t-73.5 -14h-5q-34 0 -41.5 16.5zM183.5 996q1.5 18 21.5 38q167 170 307 359q32 43 65 59t87 16q44 0 59 -22.5t-2 -63.5l-289 -714 q-19 -46 -48 -66t-79 -20h-4q-46 0 -61 22.5t2 63.5l143 362q8 22 0 26.5t-23 -14.5q-6 -6 -36 -39.5t-47 -50.5q-38 -38 -74 0l-4 4q-19 22 -17.5 40zM827.5 239q-15.5 22 1.5 62l2 4q36 84 95 152l317 358q34 39 69.5 55.5t86.5 16.5h76q46 0 61 -22.5t-2 -65.5l-152 -377 q-5 -14 2.5 -20.5t22.5 -0.5q4 0 6 2q23 9 34 6.5t26 -20.5l14 -18q17 -19 17 -41t-19 -39q-49 -49 -113 -64q-50 -13 -69.5 -30.5t-38.5 -65.5l-19 -45q-19 -46 -48 -66t-79 -20h-4q-46 0 -61 22.5t2 63.5l24 64q14 32 2 49.5t-47 17.5h-147q-44 0 -59.5 22zM1060.5 405 q7.5 -16 39.5 -16h6q40 0 63.5 16t36.5 54l72 182q9 23 0.5 27.5t-23.5 -13.5l-180 -211q-22 -23 -14.5 -39z" />
<glyph unicode="&#xbd;" horiz-adv-x="1685" d="M151 16.5q-8 16.5 15 44.5l1112 1346q27 33 57.5 47t73.5 14h4q35 0 43.5 -17.5t-14.5 -43.5l-1114 -1346q-27 -33 -57.5 -47t-73.5 -14h-4q-34 0 -42 16.5zM183.5 996q1.5 18 21.5 38q167 170 307 359q32 43 65 59t87 16q44 0 59 -22.5t-2 -63.5l-289 -714 q-19 -46 -48 -66t-79 -20h-4q-46 0 -61 22.5t2 63.5l143 362q8 22 0 26.5t-23 -14.5q-6 -6 -36 -39.5t-47 -50.5q-38 -38 -74 0l-4 4q-19 22 -17.5 40zM873 22.5q-15 22.5 4 63.5l4 10q20 50 47 82t71 60q124 75 226 155q205 166 205 283q0 33 -14.5 54.5t-43.5 21.5 q-38 0 -69.5 -33t-49.5 -86q-20 -57 -43 -73.5t-80 -16.5q-42 0 -60.5 25t-8.5 67q12 51 35.5 95.5t61.5 85t98 64t135 23.5q125 0 184 -59.5t59 -147.5q0 -66 -31.5 -132.5t-87 -126t-101 -99t-103.5 -82.5l-54 -39q-20 -13 -16 -25t27 -12h116q96 0 56 -94 q-20 -46 -50 -66t-81 -20h-375q-46 0 -61 22.5z" />
<glyph unicode="&#xbe;" horiz-adv-x="1783" d="M111.5 802.5q1.5 39.5 7.5 78.5q7 40 37 64t71 24h17q49 0 63 -19t2 -67q-32 -133 62 -133q67 0 109 61.5t42 120.5q0 78 -94 86q-71 6 -49 63q18 42 38 58.5t68 25.5q46 9 78 29.5t45.5 44.5t18 39.5t4.5 26.5q0 61 -64 61q-56 0 -90 -63q-31 -57 -55.5 -73t-81.5 -16 q-41 0 -56.5 25t-0.5 66q36 91 113 152t202 61q58 0 101.5 -15.5t66 -37t36 -50.5t16.5 -49t3 -39q0 -60 -32 -114.5t-97 -90.5q-34 -20 -36.5 -34.5t20.5 -45.5q29 -44 29 -106q0 -44 -12.5 -89.5t-40.5 -90.5t-68 -80t-100.5 -56.5t-131.5 -21.5q-64 0 -112 17t-73.5 46 t-41 65.5t-14 76zM275.5 16.5q-7.5 16.5 15.5 44.5l1112 1346q27 33 57.5 47t73.5 14h4q35 0 43.5 -17.5t-14.5 -43.5l-1114 -1346q-27 -33 -57.5 -47t-73.5 -14h-5q-34 0 -41.5 16.5zM961 239q-15 22 2 62l2 4q37 86 94 152l317 358q34 39 69.5 55.5t86.5 16.5h76 q46 0 61 -22.5t-2 -65.5l-151 -377q-5 -14 2 -20.5t22 -0.5q4 0 6 2q23 9 34 6.5t26 -20.5l14 -18q17 -19 17 -41t-19 -39q-49 -49 -113 -64q-50 -13 -69.5 -30.5t-38.5 -65.5l-19 -45q-19 -46 -48 -66t-79 -20h-4q-46 0 -61 22.5t2 63.5l24 64q14 32 2 49.5t-47 17.5h-147 q-44 0 -59 22zM1193.5 405q7.5 -16 39.5 -16h6q40 0 63.5 16t36.5 54l72 182q9 23 1 27.5t-23 -13.5l-181 -211q-22 -23 -14.5 -39z" />
<glyph unicode="&#xbf;" horiz-adv-x="1028" d="M-8 -129q0 70 26.5 135t67.5 115t95.5 102.5t106 95t105.5 95.5t86 100q35 53 64.5 68.5t93.5 15.5h37q44 0 60 -24t-3 -64q-37 -76 -99.5 -153.5t-122.5 -135.5t-116 -114.5t-90.5 -113t-34.5 -108.5q0 -48 26.5 -84.5t78.5 -36.5q71 0 132.5 60.5t84.5 155.5 q12 57 36 75.5t83 18.5h65q94 0 82 -94q-10 -64 -31 -121.5t-60 -114t-92.5 -97.5t-132.5 -66t-175 -25q-101 0 -177 29.5t-116.5 77.5t-60 100.5t-19.5 107.5zM584 901q0 78 56 133.5t134 55.5t133.5 -55.5t55.5 -133.5t-55.5 -133t-133.5 -55t-134 55t-56 133z" />
<glyph unicode="&#xc0;" horiz-adv-x="1812" d="M-137 334q0 81 30.5 153.5t86.5 129.5t144 90.5t195 33.5q161 0 338 -75q36 -16 61.5 -8.5t45.5 42.5l377 635q15 26 42 72t40.5 69.5t38 60t41 55.5t42 43t49 35t54.5 19.5t65 8.5q82 0 145.5 -40.5t91 -119t1.5 -176.5l-262 -1002q-9 -33 5.5 -50t49.5 -13 q73 8 142.5 65t160.5 201q12 18 31 23t36 -3t31 -22t16.5 -34t-7.5 -40q-81 -143 -145 -222.5t-140.5 -121.5t-175.5 -43q-43 0 -63 -16t-31 -57l-72 -277q-24 -91 -104 -41l-86 55q-43 28 -56 60t0 82l54 198q10 40 -0.5 63t-47.5 40q-68 30 -182 90q-37 19 -61 13t-47 -40 q-225 -305 -523 -305q-189 0 -300 105.5t-111 263.5zM106 346q0 -64 51.5 -104.5t123.5 -40.5q57 0 131.5 40t154.5 142q22 28 15.5 52t-39.5 36q-123 45 -215 45q-111 0 -166.5 -51t-55.5 -119zM985 580q-35 -63 27 -99q21 -12 43.5 -24t48.5 -25.5t41 -21.5q68 -30 86 39 l250 911q3 8 -8 12q-12 4 -15 -4zM1276 2058.5q7 18.5 45 18.5h121q50 0 85.5 -16.5t69.5 -55.5l138 -162q26 -31 17 -51t-50 -20h-29q-94 0 -166 61l-209 182q-29 25 -22 43.5z" />
<glyph unicode="&#xc1;" horiz-adv-x="1812" d="M-137 334q0 81 30.5 153.5t86.5 129.5t144 90.5t195 33.5q161 0 338 -75q36 -16 61.5 -8.5t45.5 42.5l377 635q15 26 42 72t40.5 69.5t38 60t41 55.5t42 43t49 35t54.5 19.5t65 8.5q82 0 145.5 -40.5t91 -119t1.5 -176.5l-262 -1002q-9 -33 5.5 -50t49.5 -13 q73 8 142.5 65t160.5 201q12 18 31 23t36 -3t31 -22t16.5 -34t-7.5 -40q-81 -143 -145 -222.5t-140.5 -121.5t-175.5 -43q-43 0 -63 -16t-31 -57l-72 -277q-24 -91 -104 -41l-86 55q-43 28 -56 60t0 82l54 198q10 40 -0.5 63t-47.5 40q-68 30 -182 90q-37 19 -61 13t-47 -40 q-225 -305 -523 -305q-189 0 -300 105.5t-111 263.5zM106 346q0 -64 51.5 -104.5t123.5 -40.5q57 0 131.5 40t154.5 142q22 28 15.5 52t-39.5 36q-123 45 -215 45q-111 0 -166.5 -51t-55.5 -119zM985 580q-35 -63 27 -99q21 -12 43.5 -24t48.5 -25.5t41 -21.5q68 -30 86 39 l250 911q3 8 -8 12q-12 4 -15 -4zM1529 1792q-9 20 17 51l138 162q34 39 69.5 55.5t85.5 16.5h121q38 0 45 -18.5t-22 -43.5l-209 -182q-72 -61 -166 -61h-29q-41 0 -50 20z" />
<glyph unicode="&#xc2;" horiz-adv-x="1812" d="M-137 334q0 81 30.5 153.5t86.5 129.5t144 90.5t195 33.5q161 0 338 -75q36 -16 61.5 -8.5t45.5 42.5l377 635q15 26 42 72t40.5 69.5t38 60t41 55.5t42 43t49 35t54.5 19.5t65 8.5q82 0 145.5 -40.5t91 -119t1.5 -176.5l-262 -1002q-9 -33 5.5 -50t49.5 -13 q73 8 142.5 65t160.5 201q12 18 31 23t36 -3t31 -22t16.5 -34t-7.5 -40q-81 -143 -145 -222.5t-140.5 -121.5t-175.5 -43q-43 0 -63 -16t-31 -57l-72 -277q-24 -91 -104 -41l-86 55q-43 28 -56 60t0 82l54 198q10 40 -0.5 63t-47.5 40q-68 30 -182 90q-37 19 -61 13t-47 -40 q-225 -305 -523 -305q-189 0 -300 105.5t-111 263.5zM106 346q0 -64 51.5 -104.5t123.5 -40.5q57 0 131.5 40t154.5 142q22 28 15.5 52t-39.5 36q-123 45 -215 45q-111 0 -166.5 -51t-55.5 -119zM985 580q-35 -63 27 -99q21 -12 43.5 -24t48.5 -25.5t41 -21.5q68 -30 86 39 l250 911q3 8 -8 12q-12 4 -15 -4zM1278 1791q-6 17 23 40l317 250q54 43 125 43h4q39 0 61.5 -14t39.5 -49l96 -203q20 -40 6 -62t-59 -22h-7q-51 0 -82 18t-57 62l-12 18q-37 63 -96 21l-84 -64q-75 -55 -170 -55h-62q-37 0 -43 17z" />
<glyph unicode="&#xc3;" horiz-adv-x="1812" d="M-137 334q0 81 30.5 153.5t86.5 129.5t144 90.5t195 33.5q161 0 338 -75q36 -16 61.5 -8.5t45.5 42.5l377 635q15 26 42 72t40.5 69.5t38 60t41 55.5t42 43t49 35t54.5 19.5t65 8.5q82 0 145.5 -40.5t91 -119t1.5 -176.5l-262 -1002q-9 -33 5.5 -50t49.5 -13 q73 8 142.5 65t160.5 201q12 18 31 23t36 -3t31 -22t16.5 -34t-7.5 -40q-81 -143 -145 -222.5t-140.5 -121.5t-175.5 -43q-43 0 -63 -16t-31 -57l-72 -277q-24 -91 -104 -41l-86 55q-43 28 -56 60t0 82l54 198q10 40 -0.5 63t-47.5 40q-68 30 -182 90q-37 19 -61 13t-47 -40 q-225 -305 -523 -305q-189 0 -300 105.5t-111 263.5zM106 346q0 -64 51.5 -104.5t123.5 -40.5q57 0 131.5 40t154.5 142q22 28 15.5 52t-39.5 36q-123 45 -215 45q-111 0 -166.5 -51t-55.5 -119zM985 580q-35 -63 27 -99q21 -12 43.5 -24t48.5 -25.5t41 -21.5q68 -30 86 39 l250 911q3 8 -8 12q-12 4 -15 -4zM1341 1831q-39 42 0 90q87 117 193 117q49 0 93 -19.5t81 -39t69 -19.5q35 0 70 24q29 23 46 21.5t40 -27.5q41 -46 2 -96q-42 -51 -86.5 -80t-103.5 -29q-49 0 -92.5 19.5t-81 39t-70.5 19.5q-32 0 -68 -28q-29 -23 -47.5 -21.5 t-44.5 29.5z" />
<glyph unicode="&#xc4;" horiz-adv-x="1812" d="M-137 334q0 81 30.5 153.5t86.5 129.5t144 90.5t195 33.5q161 0 338 -75q36 -16 61.5 -8.5t45.5 42.5l377 635q15 26 42 72t40.5 69.5t38 60t41 55.5t42 43t49 35t54.5 19.5t65 8.5q82 0 145.5 -40.5t91 -119t1.5 -176.5l-262 -1002q-9 -33 5.5 -50t49.5 -13 q73 8 142.5 65t160.5 201q12 18 31 23t36 -3t31 -22t16.5 -34t-7.5 -40q-81 -143 -145 -222.5t-140.5 -121.5t-175.5 -43q-43 0 -63 -16t-31 -57l-72 -277q-24 -91 -104 -41l-86 55q-43 28 -56 60t0 82l54 198q10 40 -0.5 63t-47.5 40q-68 30 -182 90q-37 19 -61 13t-47 -40 q-225 -305 -523 -305q-189 0 -300 105.5t-111 263.5zM106 346q0 -64 51.5 -104.5t123.5 -40.5q57 0 131.5 40t154.5 142q22 28 15.5 52t-39.5 36q-123 45 -215 45q-111 0 -166.5 -51t-55.5 -119zM985 580q-35 -63 27 -99q21 -12 43.5 -24t48.5 -25.5t41 -21.5q68 -30 86 39 l250 911q3 8 -8 12q-12 4 -15 -4zM1270 1911q0 63 43.5 106t105.5 43t106 -43t44 -106q0 -61 -44.5 -105.5t-105.5 -44.5t-105 44t-44 106zM1645 1911q0 63 43.5 106t105.5 43t106 -43t44 -106q0 -61 -44 -105.5t-106 -44.5q-61 0 -105 44t-44 106z" />
<glyph unicode="&#xc5;" horiz-adv-x="1812" d="M-137 334q0 81 30.5 153.5t86.5 129.5t144 90.5t195 33.5q161 0 338 -75q36 -16 61.5 -8.5t45.5 42.5l377 635q15 26 42 72t40.5 69.5t38 60t41 55.5t42 43t49 35t54.5 19.5t65 8.5q82 0 145.5 -40.5t91 -119t1.5 -176.5l-262 -1002q-9 -33 5.5 -50t49.5 -13 q73 8 142.5 65t160.5 201q12 18 31 23t36 -3t31 -22t16.5 -34t-7.5 -40q-81 -143 -145 -222.5t-140.5 -121.5t-175.5 -43q-43 0 -63 -16t-31 -57l-72 -277q-24 -91 -104 -41l-86 55q-43 28 -56 60t0 82l54 198q10 40 -0.5 63t-47.5 40q-68 30 -182 90q-37 19 -61 13t-47 -40 q-225 -305 -523 -305q-189 0 -300 105.5t-111 263.5zM106 346q0 -64 51.5 -104.5t123.5 -40.5q57 0 131.5 40t154.5 142q22 28 15.5 52t-39.5 36q-123 45 -215 45q-111 0 -166.5 -51t-55.5 -119zM985 580q-35 -63 27 -99q21 -12 43.5 -24t48.5 -25.5t41 -21.5q68 -30 86 39 l250 911q3 8 -8 12q-12 4 -15 -4zM1456 1999q0 108 77 185t185 77q109 0 185.5 -76.5t76.5 -185.5t-76.5 -185.5t-185.5 -76.5q-108 0 -185 77t-77 185zM1614 1999q0 -43 30.5 -74t73.5 -31t74 31t31 74t-31 73.5t-74 30.5t-73.5 -30.5t-30.5 -73.5z" />
<glyph unicode="&#xc6;" horiz-adv-x="2533" d="M-137 334q0 81 30.5 153.5t86.5 129.5t144 90.5t195 33.5q161 0 338 -75q36 -16 61.5 -8.5t45.5 42.5l377 635q15 26 42 72t40.5 69.5t38 60t41 55.5t42 43t49 35t54.5 19.5t65 8.5q128 0 202 -94t36 -242l-90 -344q-9 -35 3.5 -48.5t47.5 -6.5q21 4 68 8q38 2 50.5 16.5 t6.5 52.5q-8 50 -8 88q0 129 51 240q18 39 20.5 65t-8.5 68q-23 95 -26 205q-3 90 88 78q53 -7 74 -29t24 -72v-8q6 -77 72 -39q130 70 276 70q96 0 172 -29.5t120 -78t66.5 -105.5t22.5 -117q-2 -141 -105.5 -243.5t-275.5 -102.5q-147 0 -258 82q-25 19 -38.5 10.5 t-10.5 -39.5q8 -97 55 -172q34 -57 33.5 -86t-37.5 -84l-10 -16q-32 -50 -59 -58t-80 17q-84 35 -164 35q-140 0 -227.5 -94t-87.5 -238q0 -143 86.5 -239.5t228.5 -96.5q103 0 181.5 53.5t114 136t25.5 173.5q-6 58 10 82t72 39l64 18q93 25 108 -68q26 -144 -11 -274.5 t-119.5 -221.5t-201.5 -144.5t-253 -53.5q-221 0 -381 141q-53 47 -72 -22l-41 -162q-24 -89 -104 -39l-86 55q-43 28 -56 60t0 82l54 198q10 40 -0.5 63t-47.5 40q-68 30 -182 90q-37 19 -61 13t-49 -40q-220 -299 -521 -299q-190 0 -300.5 103t-110.5 260zM106 346 q0 -64 51 -102.5t126 -38.5q23 0 50.5 7.5t65 25t81.5 55t87 90.5q22 28 15.5 52t-39.5 36q-123 45 -215 45q-111 0 -166.5 -51t-55.5 -119zM985 580q-35 -63 27 -99q21 -12 43.5 -24t48.5 -25.5t41 -21.5q68 -30 86 39l250 911q3 8 -8 12q-12 4 -15 -4zM2191.5 1357 q-1.5 -30 24.5 -52q76 -64 168 -64q66 0 108.5 32t42.5 77q0 44 -41.5 75t-111.5 31q-86 0 -160 -49q-29 -20 -30.5 -50z" />
<glyph unicode="&#xc7;" horiz-adv-x="1488" d="M0 1108q0 125 52 234t138 182q73 60 127 -19l25 -35q34 -51 32.5 -79.5t-42.5 -73.5q-88 -99 -88 -225q0 -71 38.5 -136.5t110.5 -107.5q34 -20 61 -11t40 46q62 161 146 305t186 263.5t225 190t247 70.5q108 0 186.5 -53t115 -136.5t36.5 -185.5q0 -142 -77 -297.5 t-226 -275.5q-227 -199 -577 -213q-37 -1 -56.5 -19t-27.5 -55q-21 -95 -21 -170q0 -223 197 -223q71 0 156.5 29.5t176.5 85.5t182.5 151t160.5 213q22 28 53.5 24.5t51 -36t1.5 -64.5q-145 -255 -343.5 -413.5t-424.5 -184.5q-21 -3 -31.5 -10.5t-19.5 -25.5 q-9 -17 -6 -26.5t20 -16.5q80 -26 80 -121q0 -56 -26 -99.5t-68.5 -69t-95.5 -39t-108 -12.5t-105 15q-33 7 -43 30.5t8 49.5q28 41 47.5 50t73.5 3q43 -5 73.5 9t30.5 48q0 44 -63 47q-62 6 -33 60l25 45q19 35 11 55t-46 35q-102 42 -159.5 142.5t-57.5 250.5q0 99 20 205 q7 41 -4 62t-49 38q-164 70 -250 201t-86 293zM788 854q-12 -32 1 -48.5t47 -10.5q198 33 325 157q90 83 137.5 183.5t47.5 175.5q0 51 -23 83.5t-70 32.5q-72 0 -158.5 -83.5t-163.5 -209.5t-143 -280z" />
<glyph unicode="&#xc8;" horiz-adv-x="1296" d="M0 379q0 120 44.5 228.5t119 186.5t173.5 125.5t206 51.5q38 2 50.5 16.5t6.5 52.5q-8 50 -8 88q0 129 51 240q18 39 20.5 65t-8.5 68q-23 95 -26 205q-3 90 88 78q53 -7 74 -29t24 -72v-8q6 -77 72 -39q130 70 276 70q96 0 172 -29.5t120 -78t66.5 -105.5t22.5 -117 q-2 -141 -105.5 -243.5t-275.5 -102.5q-147 0 -258 82q-25 19 -38.5 10.5t-10.5 -39.5q8 -97 55 -172q34 -57 33.5 -86t-37.5 -84l-10 -16q-32 -50 -59 -58t-80 17q-84 35 -164 35q-140 0 -227.5 -94t-87.5 -240q0 -144 86.5 -242t232.5 -98q79 0 145.5 32.5t108.5 85 t62.5 119.5t13.5 136q-6 58 10 82t72 39l51 14q93 25 108 -68q27 -144 -9 -274.5t-117.5 -221.5t-201 -144.5t-253.5 -53.5q-167 0 -302.5 79t-210.5 213.5t-75 295.5zM954.5 1357q-1.5 -30 24.5 -52q76 -64 168 -64q66 0 108.5 32t42.5 77q0 44 -41.5 75t-111.5 31 q-86 0 -160 -49q-29 -20 -30.5 -50zM995 2070.5q7 18.5 45 18.5h121q50 0 85.5 -16.5t69.5 -55.5l138 -162q26 -31 17 -51t-50 -20h-29q-94 0 -166 61l-209 182q-29 25 -22 43.5z" />
<glyph unicode="&#xc9;" horiz-adv-x="1296" d="M0 379q0 120 44.5 228.5t119 186.5t173.5 125.5t206 51.5q38 2 50.5 16.5t6.5 52.5q-8 50 -8 88q0 129 51 240q18 39 20.5 65t-8.5 68q-23 95 -26 205q-3 90 88 78q53 -7 74 -29t24 -72v-8q6 -77 72 -39q130 70 276 70q96 0 172 -29.5t120 -78t66.5 -105.5t22.5 -117 q-2 -141 -105.5 -243.5t-275.5 -102.5q-147 0 -258 82q-25 19 -38.5 10.5t-10.5 -39.5q8 -97 55 -172q34 -57 33.5 -86t-37.5 -84l-10 -16q-32 -50 -59 -58t-80 17q-84 35 -164 35q-140 0 -227.5 -94t-87.5 -240q0 -144 86.5 -242t232.5 -98q79 0 145.5 32.5t108.5 85 t62.5 119.5t13.5 136q-6 58 10 82t72 39l51 14q93 25 108 -68q27 -144 -9 -274.5t-117.5 -221.5t-201 -144.5t-253.5 -53.5q-167 0 -302.5 79t-210.5 213.5t-75 295.5zM954.5 1357q-1.5 -30 24.5 -52q76 -64 168 -64q66 0 108.5 32t42.5 77q0 44 -41.5 75t-111.5 31 q-86 0 -160 -49q-29 -20 -30.5 -50zM1215 1804q-9 20 17 51l138 162q34 39 69.5 55.5t85.5 16.5h121q38 0 45 -18.5t-22 -43.5l-209 -182q-72 -61 -166 -61h-29q-41 0 -50 20z" />
<glyph unicode="&#xca;" horiz-adv-x="1296" d="M0 379q0 120 44.5 228.5t119 186.5t173.5 125.5t206 51.5q38 2 50.5 16.5t6.5 52.5q-8 50 -8 88q0 129 51 240q18 39 20.5 65t-8.5 68q-23 95 -26 205q-3 90 88 78q53 -7 74 -29t24 -72v-8q6 -77 72 -39q130 70 276 70q96 0 172 -29.5t120 -78t66.5 -105.5t22.5 -117 q-2 -141 -105.5 -243.5t-275.5 -102.5q-147 0 -258 82q-25 19 -38.5 10.5t-10.5 -39.5q8 -97 55 -172q34 -57 33.5 -86t-37.5 -84l-10 -16q-32 -50 -59 -58t-80 17q-84 35 -164 35q-140 0 -227.5 -94t-87.5 -240q0 -144 86.5 -242t232.5 -98q79 0 145.5 32.5t108.5 85 t62.5 119.5t13.5 136q-6 58 10 82t72 39l51 14q93 25 108 -68q27 -144 -9 -274.5t-117.5 -221.5t-201 -144.5t-253.5 -53.5q-167 0 -302.5 79t-210.5 213.5t-75 295.5zM954.5 1357q-1.5 -30 24.5 -52q76 -64 168 -64q66 0 108.5 32t42.5 77q0 44 -41.5 75t-111.5 31 q-86 0 -160 -49q-29 -20 -30.5 -50zM971 1803q-6 17 23 40l317 250q54 43 125 43h4q39 0 61.5 -14t39.5 -49l96 -203q20 -40 6 -62t-59 -22h-7q-51 0 -82 18t-57 62l-12 18q-37 63 -96 21l-84 -64q-75 -55 -170 -55h-62q-37 0 -43 17z" />
<glyph unicode="&#xcb;" horiz-adv-x="1296" d="M0 379q0 120 44.5 228.5t119 186.5t173.5 125.5t206 51.5q38 2 50.5 16.5t6.5 52.5q-8 50 -8 88q0 129 51 240q18 39 20.5 65t-8.5 68q-23 95 -26 205q-3 90 88 78q53 -7 74 -29t24 -72v-8q6 -77 72 -39q130 70 276 70q96 0 172 -29.5t120 -78t66.5 -105.5t22.5 -117 q-2 -141 -105.5 -243.5t-275.5 -102.5q-147 0 -258 82q-25 19 -38.5 10.5t-10.5 -39.5q8 -97 55 -172q34 -57 33.5 -86t-37.5 -84l-10 -16q-32 -50 -59 -58t-80 17q-84 35 -164 35q-140 0 -227.5 -94t-87.5 -240q0 -144 86.5 -242t232.5 -98q79 0 145.5 32.5t108.5 85 t62.5 119.5t13.5 136q-6 58 10 82t72 39l51 14q93 25 108 -68q27 -144 -9 -274.5t-117.5 -221.5t-201 -144.5t-253.5 -53.5q-167 0 -302.5 79t-210.5 213.5t-75 295.5zM954.5 1357q-1.5 -30 24.5 -52q76 -64 168 -64q66 0 108.5 32t42.5 77q0 44 -41.5 75t-111.5 31 q-86 0 -160 -49q-29 -20 -30.5 -50zM965 1921q0 63 43.5 106.5t105.5 43.5t106 -43.5t44 -106.5q0 -61 -44 -105t-106 -44t-105.5 44t-43.5 105zM1339 1921q0 63 44 106.5t106 43.5t105.5 -43.5t43.5 -106.5q0 -61 -44 -105t-105 -44q-62 0 -106 44t-44 105z" />
<glyph unicode="&#xcc;" horiz-adv-x="1257" d="M-125 250q0 169 108.5 292.5t282.5 141.5q44 5 69 -17.5t25 -66.5v-41q0 -60 -18 -83t-76 -36q-40 -10 -70 -31t-45.5 -49t-22.5 -55t-7 -55q0 -83 62.5 -145t158.5 -62q140 0 244 116.5t196 338.5l291 723q11 30 -1 41.5t-42 1.5q-50 -17 -75 -26t-71 -26t-71 -28.5 t-62.5 -29.5t-58 -33.5t-46 -37t-38 -42t-21.5 -46.5t-9 -53q0 -76 59 -115q65 -42 77.5 -65.5t12.5 -102.5v-8q0 -44 -25 -65t-69 -13q-138 28 -219.5 126t-79.5 233q0 71 22.5 133.5t53.5 108t93 90.5t109 72.5t135.5 63t139.5 53t152 50.5q23 8 36.5 12t33.5 10.5 t36 12.5q87 32 153 90q71 65 160 86q37 9 65 -6t40 -51q17 -55 10.5 -77.5t-43.5 -55.5q-73 -64 -109 -156l-415 -1030q-51 -126 -117 -223t-131.5 -155t-139.5 -94.5t-137 -49.5t-129 -13q-114 0 -206.5 38t-150.5 101.5t-89 142.5t-31 165zM1081.5 2103.5 q6.5 18.5 44.5 18.5h121q51 0 86.5 -16.5t69.5 -55.5l137 -162q26 -31 17 -51t-50 -20h-28q-94 0 -166 61l-209 182q-29 25 -22.5 43.5z" />
<glyph unicode="&#xcd;" horiz-adv-x="1257" d="M-125 250q0 169 108.5 292.5t282.5 141.5q44 5 69 -17.5t25 -66.5v-41q0 -60 -18 -83t-76 -36q-40 -10 -70 -31t-45.5 -49t-22.5 -55t-7 -55q0 -83 62.5 -145t158.5 -62q140 0 244 116.5t196 338.5l291 723q11 30 -1 41.5t-42 1.5q-50 -17 -75 -26t-71 -26t-71 -28.5 t-62.5 -29.5t-58 -33.5t-46 -37t-38 -42t-21.5 -46.5t-9 -53q0 -76 59 -115q65 -42 77.5 -65.5t12.5 -102.5v-8q0 -44 -25 -65t-69 -13q-138 28 -219.5 126t-79.5 233q0 71 22.5 133.5t53.5 108t93 90.5t109 72.5t135.5 63t139.5 53t152 50.5q23 8 36.5 12t33.5 10.5 t36 12.5q87 32 153 90q71 65 160 86q37 9 65 -6t40 -51q17 -55 10.5 -77.5t-43.5 -55.5q-73 -64 -109 -156l-415 -1030q-51 -126 -117 -223t-131.5 -155t-139.5 -94.5t-137 -49.5t-129 -13q-114 0 -206.5 38t-150.5 101.5t-89 142.5t-31 165zM1355 1837q-9 20 17 51l138 162 q34 39 69.5 55.5t85.5 16.5h121q38 0 45 -18.5t-22 -43.5l-209 -182q-72 -61 -166 -61h-29q-41 0 -50 20z" />
<glyph unicode="&#xce;" horiz-adv-x="1257" d="M-125 250q0 169 108.5 292.5t282.5 141.5q44 5 69 -17.5t25 -66.5v-41q0 -60 -18 -83t-76 -36q-40 -10 -70 -31t-45.5 -49t-22.5 -55t-7 -55q0 -83 62.5 -145t158.5 -62q140 0 244 116.5t196 338.5l291 723q11 30 -1 41.5t-42 1.5q-50 -17 -75 -26t-71 -26t-71 -28.5 t-62.5 -29.5t-58 -33.5t-46 -37t-38 -42t-21.5 -46.5t-9 -53q0 -76 59 -115q65 -42 77.5 -65.5t12.5 -102.5v-8q0 -44 -25 -65t-69 -13q-138 28 -219.5 126t-79.5 233q0 71 22.5 133.5t53.5 108t93 90.5t109 72.5t135.5 63t139.5 53t152 50.5q23 8 36.5 12t33.5 10.5 t36 12.5q87 32 153 90q71 65 160 86q37 9 65 -6t40 -51q17 -55 10.5 -77.5t-43.5 -55.5q-73 -64 -109 -156l-415 -1030q-51 -126 -117 -223t-131.5 -155t-139.5 -94.5t-137 -49.5t-129 -13q-114 0 -206.5 38t-150.5 101.5t-89 142.5t-31 165zM1038 1836q-6 17 23 40l317 250 q54 43 125 43h4q38 0 61 -14.5t40 -49.5l96 -202q20 -40 6 -62t-59 -22h-6q-51 0 -82.5 17.5t-57.5 61.5l-12 19q-36 62 -96 20l-84 -63q-75 -55 -170 -55h-62q-37 0 -43 17z" />
<glyph unicode="&#xcf;" horiz-adv-x="1257" d="M-125 250q0 169 108.5 292.5t282.5 141.5q44 5 69 -17.5t25 -66.5v-41q0 -60 -18 -83t-76 -36q-40 -10 -70 -31t-45.5 -49t-22.5 -55t-7 -55q0 -83 62.5 -145t158.5 -62q140 0 244 116.5t196 338.5l291 723q11 30 -1 41.5t-42 1.5q-50 -17 -75 -26t-71 -26t-71 -28.5 t-62.5 -29.5t-58 -33.5t-46 -37t-38 -42t-21.5 -46.5t-9 -53q0 -76 59 -115q65 -42 77.5 -65.5t12.5 -102.5v-8q0 -44 -25 -65t-69 -13q-138 28 -219.5 126t-79.5 233q0 71 22.5 133.5t53.5 108t93 90.5t109 72.5t135.5 63t139.5 53t152 50.5q23 8 36.5 12t33.5 10.5 t36 12.5q87 32 153 90q71 65 160 86q37 9 65 -6t40 -51q17 -55 10.5 -77.5t-43.5 -55.5q-73 -64 -109 -156l-415 -1030q-51 -126 -117 -223t-131.5 -155t-139.5 -94.5t-137 -49.5t-129 -13q-114 0 -206.5 38t-150.5 101.5t-89 142.5t-31 165zM1085 1956q0 63 44 106t106 43 t105.5 -43t43.5 -106q0 -62 -44 -106t-105 -44t-105.5 44t-44.5 106zM1460 1956q0 63 44 106t106 43t105.5 -43t43.5 -106q0 -62 -44 -106t-105 -44q-62 0 -106 44t-44 106z" />
<glyph unicode="&#xd0;" horiz-adv-x="1980" d="M-61 227q0 53 19.5 106t58 100t105.5 76.5t152 29.5q138 0 297 -103q62 -44 95 23q11 20 3.5 39.5t-32.5 19.5h-4q-59 0 -37 55l33 82q12 31 31 43.5t51 12.5h4q33 0 51.5 12.5t30.5 42.5l133 330q40 97 118 174t179 102q37 9 64.5 -6t39.5 -51q18 -55 12.5 -77.5 t-43.5 -55.5q-67 -59 -108 -156l-100 -248q-14 -32 -2 -49.5t47 -17.5h10q38 0 51 -19.5t-2 -54.5l-18 -45q-15 -39 -40 -56.5t-67 -17.5h-8q-41 0 -64.5 -15t-40.5 -52q-58 -123 -81 -160q-19 -32 -13.5 -55t37.5 -43q108 -70 213 -70q116 0 224 79t182 202t118.5 274.5 t44.5 296.5q0 110 -27 201.5t-82 162.5t-145.5 110.5t-209.5 39.5q-104 0 -196 -31.5t-156.5 -83t-111 -116.5t-69 -132.5t-22.5 -130.5q0 -48 14 -102q15 -57 4.5 -87t-57.5 -65l-39 -28q-35 -26 -65.5 -18t-47.5 48q-45 112 -45 244q0 113 35.5 220t105.5 198.5t166 160 t225.5 107.5t276.5 39q230 0 395.5 -92.5t249.5 -257.5t84 -387q0 -119 -25 -245t-72 -248t-120.5 -229.5t-164.5 -189.5t-210 -130t-250 -48q-109 0 -190 33.5t-174 104.5q-36 27 -60 27.5t-61 -23.5q-150 -103 -336 -103q-96 0 -169.5 28t-114 73.5t-60.5 96.5t-20 105z M156 242q0 -43 36.5 -66.5t98.5 -23.5q73 0 147 41q31 19 32 43.5t-30 46.5q-89 63 -159 63q-56 0 -90.5 -31t-34.5 -73z" />
<glyph unicode="&#xd1;" horiz-adv-x="1683" d="M0 909q0 58 14.5 110t38 93.5t62.5 80t79 68t97 59.5t107.5 51t119.5 46.5t123 43.5t128 43t126 44q50 17 81 7t62 -52l84 -121q42 -62 101 -14q234 195 397 195q90 0 141 -56.5t51 -146.5t-77 -283l-430 -1073q-26 -67 -27.5 -111.5t29.5 -87.5q43 -55 46.5 -83.5 t-22.5 -94.5l-10 -24q-17 -43 -48 -54t-71 11q-102 55 -153.5 135t-51 171.5t40.5 196.5l367 914q9 23 28 69t27 67.5t19 51.5t15.5 47.5t4.5 28.5q0 24 -13 38.5t-36 14.5q-51 0 -156 -69.5t-200 -159.5q-52 -52 -76 -113l-356 -891q-19 -47 -49 -67.5t-81 -20.5h-100 q-46 0 -61 22.5t2 65.5l469 1168q11 29 -0.5 41.5t-42.5 3.5q-236 -78 -298 -103q-198 -82 -242 -180q-15 -33 -15 -69q0 -76 59 -115q65 -42 77.5 -65.5t12.5 -102.5v-10q0 -44 -25 -65t-69 -13q-138 28 -219.5 125.5t-79.5 232.5zM1200 1745q-39 42 0 90q87 117 193 117 q49 0 93 -19.5t81 -39t69 -19.5q36 0 70 24q29 23 46 21.5t40 -27.5q41 -46 2 -96q-42 -51 -86.5 -80t-103.5 -29q-49 0 -92.5 19.5t-81 39t-70.5 19.5q-32 0 -68 -28q-29 -23 -47.5 -21.5t-44.5 29.5z" />
<glyph unicode="&#xd2;" horiz-adv-x="1462" d="M0 322q0 142 43.5 312.5t121.5 336.5t199.5 311.5t262.5 224.5q68 38 125 88q118 111 276 111q77 0 143.5 -27.5t119.5 -83t83.5 -148.5t30.5 -214q0 -181 -55.5 -394t-155.5 -409q-15 -29 -3 -46.5t44 -14.5q158 18 262 194q22 28 54 24t52 -36.5t1 -63.5 q-75 -121 -200.5 -202.5t-270.5 -73.5q-43 3 -65 -6.5t-46 -42.5q-126 -162 -276.5 -254t-315.5 -92q-112 0 -197 41t-134.5 112.5t-74 160t-24.5 192.5zM270 301q0 -112 42.5 -186t133.5 -74q157 0 328 233q22 31 20 52t-28 47q-30 28 -58 63t-63 96t-59.5 130t-39.5 167 t-11 205q2 25 -8.5 28t-22.5 -20q-97 -172 -165.5 -382.5t-68.5 -358.5zM752 2058.5q7 18.5 45 18.5h121q50 0 85.5 -16.5t69.5 -55.5l137 -162q27 -31 18 -51t-50 -20h-29q-94 0 -166 61l-209 182q-29 25 -22 43.5zM762 975q0 -246 106 -408q20 -29 42.5 -28t37.5 32 q81 174 130.5 353t49.5 286q0 102 -36 154.5t-99 52.5q-94 0 -162.5 -123.5t-68.5 -318.5z" />
<glyph unicode="&#xd3;" horiz-adv-x="1462" d="M0 322q0 142 43.5 312.5t121.5 336.5t199.5 311.5t262.5 224.5q68 38 125 88q118 111 276 111q77 0 143.5 -27.5t119.5 -83t83.5 -148.5t30.5 -214q0 -181 -55.5 -394t-155.5 -409q-15 -29 -3 -46.5t44 -14.5q158 18 262 194q22 28 54 24t52 -36.5t1 -63.5 q-75 -121 -200.5 -202.5t-270.5 -73.5q-43 3 -65 -6.5t-46 -42.5q-126 -162 -276.5 -254t-315.5 -92q-112 0 -197 41t-134.5 112.5t-74 160t-24.5 192.5zM270 301q0 -112 42.5 -186t133.5 -74q157 0 328 233q22 31 20 52t-28 47q-30 28 -58 63t-63 96t-59.5 130t-39.5 167 t-11 205q2 25 -8.5 28t-22.5 -20q-97 -172 -165.5 -382.5t-68.5 -358.5zM762 975q0 -246 106 -408q20 -29 42.5 -28t37.5 32q81 174 130.5 353t49.5 286q0 102 -36 154.5t-99 52.5q-94 0 -162.5 -123.5t-68.5 -318.5zM959 1792q-9 20 17 51l138 162q34 39 69.5 55.5 t85.5 16.5h121q38 0 45 -18.5t-22 -43.5l-209 -182q-72 -61 -166 -61h-29q-41 0 -50 20z" />
<glyph unicode="&#xd4;" horiz-adv-x="1462" d="M0 322q0 142 43.5 312.5t121.5 336.5t199.5 311.5t262.5 224.5q68 38 125 88q118 111 276 111q77 0 143.5 -27.5t119.5 -83t83.5 -148.5t30.5 -214q0 -181 -55.5 -394t-155.5 -409q-15 -29 -3 -46.5t44 -14.5q158 18 262 194q22 28 54 24t52 -36.5t1 -63.5 q-75 -121 -200.5 -202.5t-270.5 -73.5q-43 3 -65 -6.5t-46 -42.5q-126 -162 -276.5 -254t-315.5 -92q-112 0 -197 41t-134.5 112.5t-74 160t-24.5 192.5zM270 301q0 -112 42.5 -186t133.5 -74q157 0 328 233q22 31 20 52t-28 47q-30 28 -58 63t-63 96t-59.5 130t-39.5 167 t-11 205q2 25 -8.5 28t-22.5 -20q-97 -172 -165.5 -382.5t-68.5 -358.5zM751.5 1791q-6.5 17 22.5 40l318 250q54 43 125 43h4q38 0 60.5 -14.5t39.5 -49.5l96 -202q20 -40 6 -62t-59 -22h-6q-51 0 -82 17.5t-57 61.5l-13 19q-36 62 -96 20l-84 -63q-75 -55 -170 -55h-61 q-37 0 -43.5 17zM762 975q0 -246 106 -408q20 -29 42.5 -28t37.5 32q81 174 130.5 353t49.5 286q0 102 -36 154.5t-99 52.5q-94 0 -162.5 -123.5t-68.5 -318.5z" />
<glyph unicode="&#xd5;" horiz-adv-x="1462" d="M0 322q0 142 43.5 312.5t121.5 336.5t199.5 311.5t262.5 224.5q68 38 125 88q118 111 276 111q77 0 143.5 -27.5t119.5 -83t83.5 -148.5t30.5 -214q0 -181 -55.5 -394t-155.5 -409q-15 -29 -3 -46.5t44 -14.5q158 18 262 194q22 28 54 24t52 -36.5t1 -63.5 q-75 -121 -200.5 -202.5t-270.5 -73.5q-43 3 -65 -6.5t-46 -42.5q-126 -162 -276.5 -254t-315.5 -92q-112 0 -197 41t-134.5 112.5t-74 160t-24.5 192.5zM270 301q0 -112 42.5 -186t133.5 -74q157 0 328 233q22 31 20 52t-28 47q-30 28 -58 63t-63 96t-59.5 130t-39.5 167 t-11 205q2 25 -8.5 28t-22.5 -20q-97 -172 -165.5 -382.5t-68.5 -358.5zM762 975q0 -246 106 -408q20 -29 42.5 -28t37.5 32q81 174 130.5 353t49.5 286q0 102 -36 154.5t-99 52.5q-94 0 -162.5 -123.5t-68.5 -318.5zM838 1831q-39 42 0 90q87 117 192 117q49 0 93 -19.5 t81.5 -39t69.5 -19.5q33 0 69 25q30 23 46.5 21.5t40.5 -28.5q41 -46 2 -96q-89 -108 -191 -108q-39 0 -75 12t-59.5 26.5t-53 26.5t-56.5 12q-31 0 -67 -28q-29 -23 -47.5 -21.5t-44.5 29.5z" />
<glyph unicode="&#xd6;" horiz-adv-x="1462" d="M0 322q0 142 43.5 312.5t121.5 336.5t199.5 311.5t262.5 224.5q68 38 125 88q118 111 276 111q77 0 143.5 -27.5t119.5 -83t83.5 -148.5t30.5 -214q0 -181 -55.5 -394t-155.5 -409q-15 -29 -3 -46.5t44 -14.5q158 18 262 194q22 28 54 24t52 -36.5t1 -63.5 q-75 -121 -200.5 -202.5t-270.5 -73.5q-43 3 -65 -6.5t-46 -42.5q-126 -162 -276.5 -254t-315.5 -92q-112 0 -197 41t-134.5 112.5t-74 160t-24.5 192.5zM270 301q0 -112 42.5 -186t133.5 -74q157 0 328 233q22 31 20 52t-28 47q-30 28 -58 63t-63 96t-59.5 130t-39.5 167 t-11 205q2 25 -8.5 28t-22.5 -20q-97 -172 -165.5 -382.5t-68.5 -358.5zM762 975q0 -246 106 -408q20 -29 42.5 -28t37.5 32q81 174 130.5 353t49.5 286q0 102 -36 154.5t-99 52.5q-94 0 -162.5 -123.5t-68.5 -318.5zM778 1913q0 63 44 106t106 43t105.5 -43t43.5 -106 q0 -62 -44 -106t-105 -44q-62 0 -106 44.5t-44 105.5zM1153 1913q0 63 44 106t106 43t105.5 -43t43.5 -106q0 -62 -44 -106t-105 -44t-105.5 44.5t-44.5 105.5z" />
<glyph unicode="&#xd7;" horiz-adv-x="1232" d="M94.5 362.5q6.5 32.5 46.5 61.5l203 145q31 24 36.5 48.5t-15.5 58.5l-41 72q-26 41 -20 73.5t46 61.5l53 39q73 56 125 -25l43 -74q40 -64 99 -20l215 151q77 57 125 -26l26 -47q48 -83 -30 -138l-213 -149q-60 -45 -23 -107l55 -92q26 -43 19.5 -75t-47.5 -60l-52 -39 q-76 -53 -127 27l-53 92q-40 64 -98 20l-203 -141q-77 -56 -125 27l-26 41q-25 43 -18.5 75.5z" />
<glyph unicode="&#xd8;" horiz-adv-x="1462" d="M0 322q0 142 43.5 312.5t121.5 336t199.5 310.5t262.5 224q77 46 123 90q82 75 172 97q41 10 60 27t34 57q20 55 88 55h4q63 0 39 -64q-15 -37 -6.5 -57t45.5 -37q98 -46 158.5 -153.5t60.5 -286.5q0 -181 -55.5 -394t-155.5 -409q-15 -29 -3 -46.5t44 -14.5 q158 18 262 194q22 28 53.5 23.5t51.5 -37t2 -62.5q-75 -121 -200.5 -202.5t-270.5 -73.5q-43 3 -65 -6.5t-46 -42.5q-271 -343 -590 -346q-44 0 -65.5 -15t-38.5 -57l-15 -39q-13 -32 -33.5 -45.5t-54.5 -13.5h-4q-65 0 -41 59l29 72q17 42 10 65.5t-43 51.5 q-85 63 -130.5 174t-45.5 254zM270 301q0 -112 42.5 -186t133.5 -74q157 0 328 233q22 31 20 52t-28 47q-30 28 -58 63t-63 96t-59.5 130t-39.5 167t-11 205q2 25 -8.5 28t-22.5 -20q-97 -172 -165.5 -382.5t-68.5 -358.5zM762 975q0 -246 106 -408q20 -29 42.5 -28t37.5 32 q81 174 130.5 353t49.5 286q0 102 -36 154.5t-99 52.5q-94 0 -162.5 -123.5t-68.5 -318.5z" />
<glyph unicode="&#xd9;" horiz-adv-x="1779" d="M0 807q0 71 21.5 132.5t56.5 108.5t90 89.5t112.5 73.5t133.5 62.5t143 54.5t151 51l37.5 12.5t34 11t37.5 12.5q49 18 80.5 37t67.5 53q76 80 176 103q37 9 64.5 -6t39.5 -52q18 -55 12.5 -76.5t-43.5 -56.5q-69 -57 -110 -157l-322 -799q-99 -247 -30 -281q9 -4 22 -4 q87 0 211.5 112.5t214.5 254.5q25 39 53 102l303 754q19 47 49 67.5t81 20.5h100q46 0 61 -22.5t-2 -65.5l-393 -983q-95 -236 8 -236q71 0 157 95.5t198 287.5q22 28 53.5 24.5t51 -36t1.5 -64.5q-64 -111 -124.5 -196.5t-133 -161t-152 -116t-161.5 -40.5q-83 0 -143 42.5 t-70 131.5q-3 28 -15.5 32.5t-31.5 -15.5q-216 -242 -414 -242q-78 0 -133 35t-84 105t-14.5 190.5t77.5 277.5l228 568q12 29 1 41t-42 2q-212 -72 -291 -113q-168 -95 -174 -211q0 -78 59 -117q66 -41 78 -63.5t12 -101.5v-11q0 -44 -25 -65t-69 -13q-138 28 -219.5 127 t-79.5 234zM1212.5 1972.5q6.5 18.5 44.5 18.5h121q51 0 86.5 -16.5t69.5 -55.5l137 -162q26 -31 17 -51t-50 -20h-28q-94 0 -166 61l-209 182q-29 25 -22.5 43.5z" />
<glyph unicode="&#xda;" horiz-adv-x="1779" d="M0 807q0 71 21.5 132.5t56.5 108.5t90 89.5t112.5 73.5t133.5 62.5t143 54.5t151 51l37.5 12.5t34 11t37.5 12.5q49 18 80.5 37t67.5 53q76 80 176 103q37 9 64.5 -6t39.5 -52q18 -55 12.5 -76.5t-43.5 -56.5q-69 -57 -110 -157l-322 -799q-99 -247 -30 -281q9 -4 22 -4 q87 0 211.5 112.5t214.5 254.5q25 39 53 102l303 754q19 47 49 67.5t81 20.5h100q46 0 61 -22.5t-2 -65.5l-393 -983q-95 -236 8 -236q71 0 157 95.5t198 287.5q22 28 53.5 24.5t51 -36t1.5 -64.5q-64 -111 -124.5 -196.5t-133 -161t-152 -116t-161.5 -40.5q-83 0 -143 42.5 t-70 131.5q-3 28 -15.5 32.5t-31.5 -15.5q-216 -242 -414 -242q-78 0 -133 35t-84 105t-14.5 190.5t77.5 277.5l228 568q12 29 1 41t-42 2q-212 -72 -291 -113q-168 -95 -174 -211q0 -78 59 -117q66 -41 78 -63.5t12 -101.5v-11q0 -44 -25 -65t-69 -13q-138 28 -219.5 127 t-79.5 234zM1383 1706q-9 20 17 51l138 162q34 39 69.5 55.5t85.5 16.5h121q38 0 45 -18.5t-22 -43.5l-209 -182q-72 -61 -166 -61h-29q-41 0 -50 20z" />
<glyph unicode="&#xdb;" horiz-adv-x="1779" d="M0 807q0 71 21.5 132.5t56.5 108.5t90 89.5t112.5 73.5t133.5 62.5t143 54.5t151 51l37.5 12.5t34 11t37.5 12.5q49 18 80.5 37t67.5 53q76 80 176 103q37 9 64.5 -6t39.5 -52q18 -55 12.5 -76.5t-43.5 -56.5q-69 -57 -110 -157l-322 -799q-99 -247 -30 -281q9 -4 22 -4 q87 0 211.5 112.5t214.5 254.5q25 39 53 102l303 754q19 47 49 67.5t81 20.5h100q46 0 61 -22.5t-2 -65.5l-393 -983q-95 -236 8 -236q71 0 157 95.5t198 287.5q22 28 53.5 24.5t51 -36t1.5 -64.5q-64 -111 -124.5 -196.5t-133 -161t-152 -116t-161.5 -40.5q-83 0 -143 42.5 t-70 131.5q-3 28 -15.5 32.5t-31.5 -15.5q-216 -242 -414 -242q-78 0 -133 35t-84 105t-14.5 190.5t77.5 277.5l228 568q12 29 1 41t-42 2q-212 -72 -291 -113q-168 -95 -174 -211q0 -78 59 -117q66 -41 78 -63.5t12 -101.5v-11q0 -44 -25 -65t-69 -13q-138 28 -219.5 127 t-79.5 234zM1157 1705q-6 17 23 40l317 250q54 43 125 43h4q38 0 60.5 -14.5t39.5 -49.5l97 -202q20 -40 5.5 -62t-59.5 -22h-6q-51 0 -82 17.5t-57 61.5l-12 19q-36 62 -96 20l-84 -63q-75 -55 -170 -55h-62q-37 0 -43 17z" />
<glyph unicode="&#xdc;" horiz-adv-x="1779" d="M0 807q0 71 21.5 132.5t56.5 108.5t90 89.5t112.5 73.5t133.5 62.5t143 54.5t151 51l37.5 12.5t34 11t37.5 12.5q49 18 80.5 37t67.5 53q76 80 176 103q37 9 64.5 -6t39.5 -52q18 -55 12.5 -76.5t-43.5 -56.5q-69 -57 -110 -157l-322 -799q-99 -247 -30 -281q9 -4 22 -4 q87 0 211.5 112.5t214.5 254.5q25 39 53 102l303 754q19 47 49 67.5t81 20.5h100q46 0 61 -22.5t-2 -65.5l-393 -983q-95 -236 8 -236q71 0 157 95.5t198 287.5q22 28 53.5 24.5t51 -36t1.5 -64.5q-64 -111 -124.5 -196.5t-133 -161t-152 -116t-161.5 -40.5q-83 0 -143 42.5 t-70 131.5q-3 28 -15.5 32.5t-31.5 -15.5q-216 -242 -414 -242q-78 0 -133 35t-84 105t-14.5 190.5t77.5 277.5l228 568q12 29 1 41t-42 2q-212 -72 -291 -113q-168 -95 -174 -211q0 -78 59 -117q66 -41 78 -63.5t12 -101.5v-11q0 -44 -25 -65t-69 -13q-138 28 -219.5 127 t-79.5 234zM1167 1825q0 63 44 106t106 43t105.5 -43t43.5 -106q0 -62 -44 -106t-105 -44t-105.5 44.5t-44.5 105.5zM1542 1825q0 63 44 106t106 43t105.5 -43t43.5 -106q0 -62 -44 -106t-105 -44q-62 0 -106 44.5t-44 105.5z" />
<glyph unicode="&#xdd;" horiz-adv-x="1720" d="M0 807q0 82 27 151.5t78 122t114.5 95t147 78.5t163 64.5t174.5 59.5q26 8 39.5 12.5t35 11.5t38.5 13q49 18 80.5 37t67.5 53q76 80 176 103q37 9 64.5 -6t39.5 -52q18 -55 12.5 -76.5t-43.5 -56.5q-69 -57 -110 -157l-322 -799q-30 -76 -44 -131.5t-14.5 -84t8.5 -45.5 t18 -20.5t22 -3.5q87 0 213.5 113t216.5 254q41 74 51 100l306 756q19 47 48.5 67.5t80.5 20.5h100q46 0 61 -22.5t-2 -65.5l-491 -1211q-10 -26 1 -34.5t34 6.5q222 150 364 403q21 28 52.5 24t52 -36.5t2.5 -63.5q-117 -202 -254.5 -333t-304.5 -222q-65 -36 -89 -102 q-73 -188 -109 -258q-107 -206 -259 -254q-51 -16 -107 -16q-68 0 -119.5 22t-81 58.5t-44 79t-13.5 89.5q5 177 252 291q11 5 172 74q68 29 94 96l17 43q9 23 1.5 29.5t-26.5 -10.5q-169 -152 -321 -152q-59 0 -105.5 21.5t-78.5 69t-42 116.5t9 172.5t69 228.5l230 568 q12 29 1 41t-42 2q-67 -22 -100.5 -33.5t-92.5 -34t-90 -39t-72.5 -42.5t-62.5 -50.5t-36 -57t-15 -67.5q0 -77 61 -117q65 -41 77.5 -64t12.5 -99v-13q0 -44 -25 -65t-69 -13q-138 28 -219.5 127t-79.5 234zM647 -446q0 -25 18 -38.5t40 -13.5q74 0 157 176 q20 39 13.5 50.5t-37.5 -2.5q-38 -18 -50 -24t-47.5 -26.5t-50 -35t-29 -38t-14.5 -48.5zM1381 1708q-9 20 17 51l138 162q34 39 69.5 55.5t85.5 16.5h121q38 0 45 -18.5t-22 -43.5l-209 -182q-72 -61 -166 -61h-29q-41 0 -50 20z" />
<glyph unicode="&#xde;" horiz-adv-x="1419" d="M-117 737q0 90 26.5 182.5t82.5 183.5t135.5 164.5t195 126t250.5 68.5q45 6 66.5 20t44.5 52q103 166 260 203q37 9 65 -6t40 -52q17 -53 10.5 -77t-47.5 -62q-16 -13 -33 -33q-25 -29 -19 -53t41 -37q126 -49 215.5 -139t132 -199t42.5 -229q0 -153 -65 -292 t-181.5 -233t-276 -125t-348.5 33q-38 13 -60.5 3t-37.5 -48l-51 -127q-19 -47 -48.5 -67.5t-80.5 -20.5h-99q-46 0 -61 22.5t2 65.5l442 1100q12 29 -1 42.5t-44 2.5q-162 -57 -260 -193t-98 -270q0 -48 14 -102q15 -57 4.5 -87t-57.5 -65l-35 -26q-37 -26 -67.5 -18 t-47.5 49q-51 120 -51 243zM549 506q-26 -69 43 -90q81 -22 157 -14.5t143 48t117.5 98.5t79.5 136.5t29 161.5q0 110 -51.5 206t-157.5 148q-69 32 -94 -37z" />
<glyph unicode="&#xdf;" horiz-adv-x="1122" d="M-235 -161.5q-15 22.5 2 65.5l368 909q31 78 57 136.5t65.5 133t78 128t92 109.5t110 90.5t129 56.5t152.5 22q86 0 148.5 -21.5t96 -59.5t49 -81t15.5 -94q0 -117 -71.5 -232t-173.5 -188q-32 -22 -33.5 -40t24.5 -44q95 -95 95 -240q0 -81 -33 -174q-9 -21 -1 -26 t23 10q112 109 199 264q21 28 52.5 24.5t52 -36t2.5 -64.5q-50 -87 -103.5 -158.5t-124.5 -139.5t-149 -114t-177.5 -74t-209.5 -28q-156 0 -267 84q-22 19 -22 40t20 40q30 26 49 29t56 -16q44 -23 88 -23q63 0 117 34t87.5 86t52.5 110t19 110q0 72 -35 124t-104 73 q-50 15 -61.5 37.5t8.5 72.5q14 39 36 61t81 54q101 54 159 149.5t58 169.5q0 64 -66 64q-168 0 -334 -416l-385 -952q-19 -47 -48.5 -67.5t-80.5 -20.5h-102q-46 0 -61 22.5z" />
<glyph unicode="&#xe0;" d="M-35 229q0 57 15.5 140t44.5 180.5t77.5 192.5t107.5 173t140.5 126.5t171.5 48.5q132 0 199 -101q28 -39 49 -45t64 12l178 72q37 15 52 -0.5t1 -52.5l-227 -559q-26 -65 -40 -113.5t-17 -76t2.5 -44.5t14.5 -22.5t23 -5.5q67 0 169 110.5t212 298.5q22 28 53.5 24 t51.5 -36.5t2 -63.5q-51 -88 -100 -160t-108.5 -139.5t-118 -113.5t-126.5 -73.5t-137 -27.5q-142 0 -201 103q-17 32 -32.5 34.5t-41.5 -22.5q-129 -115 -258 -115q-106 0 -163.5 72.5t-57.5 183.5zM246 285q0 -78 65 -78q81 0 172 100q48 60 62 101l114 282q9 21 8 53.5 t-10 53.5q-23 55 -77 55q-60 0 -124 -68.5t-108.5 -162.5t-73 -188t-28.5 -148zM473 1460.5q7 18.5 45 18.5h121q50 0 85.5 -16.5t69.5 -55.5l138 -162q26 -31 17 -51t-50 -20h-29q-94 0 -166 61l-209 182q-29 25 -22 43.5z" />
<glyph unicode="&#xe1;" d="M-35 229q0 57 15.5 140t44.5 180.5t77.5 192.5t107.5 173t140.5 126.5t171.5 48.5q132 0 199 -101q28 -39 49 -45t64 12l178 72q37 15 52 -0.5t1 -52.5l-227 -559q-26 -65 -40 -113.5t-17 -76t2.5 -44.5t14.5 -22.5t23 -5.5q67 0 169 110.5t212 298.5q22 28 53.5 24 t51.5 -36.5t2 -63.5q-51 -88 -100 -160t-108.5 -139.5t-118 -113.5t-126.5 -73.5t-137 -27.5q-142 0 -201 103q-17 32 -32.5 34.5t-41.5 -22.5q-129 -115 -258 -115q-106 0 -163.5 72.5t-57.5 183.5zM246 285q0 -78 65 -78q81 0 172 100q48 60 62 101l114 282q9 21 8 53.5 t-10 53.5q-23 55 -77 55q-60 0 -124 -68.5t-108.5 -162.5t-73 -188t-28.5 -148zM550 1194q-9 20 17 51l138 162q34 39 69.5 55.5t85.5 16.5h121q38 0 45 -18.5t-22 -43.5l-209 -182q-72 -61 -166 -61h-29q-41 0 -50 20z" />
<glyph unicode="&#xe2;" d="M-35 229q0 57 15.5 140t44.5 180.5t77.5 192.5t107.5 173t140.5 126.5t171.5 48.5q132 0 199 -101q28 -39 49 -45t64 12l178 72q37 15 52 -0.5t1 -52.5l-227 -559q-26 -65 -40 -113.5t-17 -76t2.5 -44.5t14.5 -22.5t23 -5.5q67 0 169 110.5t212 298.5q22 28 53.5 24 t51.5 -36.5t2 -63.5q-51 -88 -100 -160t-108.5 -139.5t-118 -113.5t-126.5 -73.5t-137 -27.5q-142 0 -201 103q-17 32 -32.5 34.5t-41.5 -22.5q-129 -115 -258 -115q-106 0 -163.5 72.5t-57.5 183.5zM246 285q0 -78 65 -78q81 0 172 100q48 60 62 101l114 282q9 21 8 53.5 t-10 53.5q-23 55 -77 55q-60 0 -124 -68.5t-108.5 -162.5t-73 -188t-28.5 -148zM387 1170q-6 17 23 40l317 250q54 43 125 43h4q39 0 61.5 -14t39.5 -49l96 -203q20 -40 6 -62t-59 -22h-7q-51 0 -82 18t-57 62l-12 18q-37 63 -96 21l-84 -64q-75 -55 -170 -55h-62 q-37 0 -43 17z" />
<glyph unicode="&#xe3;" d="M-35 229q0 57 15.5 140t44.5 180.5t77.5 192.5t107.5 173t140.5 126.5t171.5 48.5q132 0 199 -101q28 -39 49 -45t64 12l178 72q37 15 52 -0.5t1 -52.5l-227 -559q-26 -65 -40 -113.5t-17 -76t2.5 -44.5t14.5 -22.5t23 -5.5q67 0 169 110.5t212 298.5q22 28 53.5 24 t51.5 -36.5t2 -63.5q-51 -88 -100 -160t-108.5 -139.5t-118 -113.5t-126.5 -73.5t-137 -27.5q-142 0 -201 103q-17 32 -32.5 34.5t-41.5 -22.5q-129 -115 -258 -115q-106 0 -163.5 72.5t-57.5 183.5zM246 285q0 -78 65 -78q81 0 172 100q48 60 62 101l114 282q9 21 8 53.5 t-10 53.5q-23 55 -77 55q-60 0 -124 -68.5t-108.5 -162.5t-73 -188t-28.5 -148zM508 1272q-39 42 0 90q87 117 193 117q49 0 93 -19.5t81 -39t69 -19.5q36 0 70 24q29 23 46 21.5t40 -27.5q41 -46 2 -96q-42 -51 -86.5 -80t-103.5 -29q-49 0 -92.5 19.5t-81 39t-70.5 19.5 q-32 0 -68 -28q-29 -23 -47.5 -21.5t-44.5 29.5z" />
<glyph unicode="&#xe4;" d="M-35 229q0 57 15.5 140t44.5 180.5t77.5 192.5t107.5 173t140.5 126.5t171.5 48.5q132 0 199 -101q28 -39 49 -45t64 12l178 72q37 15 52 -0.5t1 -52.5l-227 -559q-26 -65 -40 -113.5t-17 -76t2.5 -44.5t14.5 -22.5t23 -5.5q67 0 169 110.5t212 298.5q22 28 53.5 24 t51.5 -36.5t2 -63.5q-51 -88 -100 -160t-108.5 -139.5t-118 -113.5t-126.5 -73.5t-137 -27.5q-142 0 -201 103q-17 32 -32.5 34.5t-41.5 -22.5q-129 -115 -258 -115q-106 0 -163.5 72.5t-57.5 183.5zM246 285q0 -78 65 -78q81 0 172 100q48 60 62 101l114 282q9 21 8 53.5 t-10 53.5q-23 55 -77 55q-60 0 -124 -68.5t-108.5 -162.5t-73 -188t-28.5 -148zM442 1333q0 63 44 106.5t106 43.5t105.5 -43.5t43.5 -106.5q0 -61 -43.5 -105t-105.5 -44t-106 44t-44 105zM817 1333q0 63 44 106.5t106 43.5t105.5 -43.5t43.5 -106.5q0 -61 -44 -105 t-105 -44q-62 0 -106 44t-44 105z" />
<glyph unicode="&#xe5;" d="M-35 229q0 57 15.5 140t44.5 180.5t77.5 192.5t107.5 173t140.5 126.5t171.5 48.5q132 0 199 -101q28 -39 49 -45t64 12l178 72q37 15 52 -0.5t1 -52.5l-227 -559q-26 -65 -40 -113.5t-17 -76t2.5 -44.5t14.5 -22.5t23 -5.5q67 0 169 110.5t212 298.5q22 28 53.5 24 t51.5 -36.5t2 -63.5q-51 -88 -100 -160t-108.5 -139.5t-118 -113.5t-126.5 -73.5t-137 -27.5q-142 0 -201 103q-17 32 -32.5 34.5t-41.5 -22.5q-129 -115 -258 -115q-106 0 -163.5 72.5t-57.5 183.5zM246 285q0 -78 65 -78q81 0 172 100q48 60 62 101l114 282q9 21 8 53.5 t-10 53.5q-23 55 -77 55q-60 0 -124 -68.5t-108.5 -162.5t-73 -188t-28.5 -148zM559 1409q0 108 77 185t185 77q109 0 185.5 -76.5t76.5 -185.5t-76.5 -185.5t-185.5 -76.5q-108 0 -185 77t-77 185zM717 1409q0 -43 30.5 -73.5t73.5 -30.5t74 30.5t31 73.5t-31 73.5 t-74 30.5t-73.5 -30.5t-30.5 -73.5z" />
<glyph unicode="&#xe6;" horiz-adv-x="1570" d="M-35 229q0 57 15.5 140t44.5 180.5t77.5 192.5t107.5 173t140.5 126.5t171.5 48.5q145 0 211 -119q15 -27 30 -32.5t44 5.5q40 14 88 45q162 101 301 101q114 0 193.5 -52t103 -149.5t-38.5 -237.5q-65 -145 -194 -211t-345 -49q-32 3 -51.5 -15t-19.5 -52 q-1 -31 6 -57.5t25.5 -53.5t59 -43t99.5 -16q156 0 308 108t264 301q21 28 52.5 24.5t51.5 -36t2 -64.5q-45 -79 -96.5 -148.5t-123 -138.5t-149.5 -117.5t-178 -79t-207 -30.5q-253 0 -344 158q-17 31 -33 33t-42 -23q-65 -67 -155.5 -117.5t-197.5 -50.5 q-106 0 -163.5 72.5t-57.5 183.5zM246 285q0 -78 65 -78q81 0 172 100q48 60 62 101l114 282q9 21 8 53.5t-10 53.5q-23 55 -77 55q-60 0 -124 -68.5t-108.5 -162.5t-73 -188t-28.5 -148zM930 569q13 -20 47 -22q92 0 143 45t86 125q65 141 -26 141q-39 0 -78 -24 t-71.5 -63.5t-55.5 -76t-43 -76.5q-15 -29 -2 -49z" />
<glyph unicode="&#xe7;" horiz-adv-x="991" d="M-10 317q0 86 25.5 188t78.5 205.5t125 188t175 138t218 53.5q186 0 261 -119t-1 -320q-34 -86 -124 -86h-107q-45 0 -59 22.5t6 63.5q74 161 49 194q-10 13 -37 13q-65 0 -130.5 -65.5t-110 -156.5t-72 -182t-27.5 -147q0 -43 18.5 -74.5t50 -47.5t63.5 -23.5t67 -7.5 q151 0 304.5 109t262.5 300q21 28 52.5 24.5t52 -36t2.5 -64.5q-53 -94 -118 -175t-151 -156t-196.5 -123t-231.5 -58q-23 -2 -36 -10t-23 -28q-11 -20 -7 -32.5t25 -21.5q72 -30 72 -119q0 -56 -26 -99.5t-69 -69t-96 -38.5t-108 -12t-105 15q-33 7 -42 30.5t10 51.5 q26 40 45.5 48.5t73.5 2.5q44 -3 74 10t30 47q0 44 -64 47q-58 6 -32 60l35 63q20 37 13 58t-44 38q-172 79 -172 301z" />
<glyph unicode="&#xe8;" horiz-adv-x="991" d="M-10 317q0 87 25 188.5t78 205t124.5 188t175.5 138t221 53.5q114 0 194 -52t104 -149.5t-38 -237.5q-69 -146 -196 -211.5t-344 -48.5q-32 3 -52 -15t-20 -52q-1 -31 6.5 -57.5t26.5 -53.5t60 -43t100 -16q155 0 308.5 108.5t262.5 300.5q21 28 52.5 24.5t52 -36 t2.5 -64.5q-45 -79 -97 -148.5t-123.5 -138.5t-149.5 -117.5t-178.5 -79t-207.5 -30.5q-191 0 -289 90t-98 254zM348 569q13 -20 47 -22q93 0 144 45t86 125q32 63 28 102t-55 39q-39 0 -78 -24t-71.5 -63.5t-55.5 -76t-43 -76.5q-15 -29 -2 -49zM354 1460.5q7 18.5 45 18.5 h121q50 0 85.5 -16.5t69.5 -55.5l138 -162q26 -31 17 -51t-50 -20h-29q-94 0 -166 61l-209 182q-29 25 -22 43.5z" />
<glyph unicode="&#xe9;" horiz-adv-x="991" d="M-10 317q0 87 25 188.5t78 205t124.5 188t175.5 138t221 53.5q114 0 194 -52t104 -149.5t-38 -237.5q-69 -146 -196 -211.5t-344 -48.5q-32 3 -52 -15t-20 -52q-1 -31 6.5 -57.5t26.5 -53.5t60 -43t100 -16q155 0 308.5 108.5t262.5 300.5q21 28 52.5 24.5t52 -36 t2.5 -64.5q-45 -79 -97 -148.5t-123.5 -138.5t-149.5 -117.5t-178.5 -79t-207.5 -30.5q-191 0 -289 90t-98 254zM348 569q13 -20 47 -22q93 0 144 45t86 125q32 63 28 102t-55 39q-39 0 -78 -24t-71.5 -63.5t-55.5 -76t-43 -76.5q-15 -29 -2 -49zM519 1194q-9 20 17 51 l138 162q34 39 69.5 55.5t85.5 16.5h121q38 0 45 -18.5t-22 -43.5l-209 -182q-72 -61 -166 -61h-29q-41 0 -50 20z" />
<glyph unicode="&#xea;" horiz-adv-x="991" d="M-10 317q0 87 25 188.5t78 205t124.5 188t175.5 138t221 53.5q114 0 194 -52t104 -149.5t-38 -237.5q-69 -146 -196 -211.5t-344 -48.5q-32 3 -52 -15t-20 -52q-1 -31 6.5 -57.5t26.5 -53.5t60 -43t100 -16q155 0 308.5 108.5t262.5 300.5q21 28 52.5 24.5t52 -36 t2.5 -64.5q-45 -79 -97 -148.5t-123.5 -138.5t-149.5 -117.5t-178.5 -79t-207.5 -30.5q-191 0 -289 90t-98 254zM327 1170q-6 17 23 40l317 250q54 43 125 43h4q39 0 61.5 -14t39.5 -49l96 -203q20 -40 6 -62t-59 -22h-7q-51 0 -82 18t-57 62l-12 18q-37 63 -96 21l-84 -64 q-75 -55 -170 -55h-62q-37 0 -43 17zM348 569q13 -20 47 -22q93 0 144 45t86 125q32 63 28 102t-55 39q-39 0 -78 -24t-71.5 -63.5t-55.5 -76t-43 -76.5q-15 -29 -2 -49z" />
<glyph unicode="&#xeb;" horiz-adv-x="991" d="M-10 317q0 87 25 188.5t78 205t124.5 188t175.5 138t221 53.5q114 0 194 -52t104 -149.5t-38 -237.5q-69 -146 -196 -211.5t-344 -48.5q-32 3 -52 -15t-20 -52q-1 -31 6.5 -57.5t26.5 -53.5t60 -43t100 -16q155 0 308.5 108.5t262.5 300.5q21 28 52.5 24.5t52 -36 t2.5 -64.5q-45 -79 -97 -148.5t-123.5 -138.5t-149.5 -117.5t-178.5 -79t-207.5 -30.5q-191 0 -289 90t-98 254zM348 569q13 -20 47 -22q93 0 144 45t86 125q32 63 28 102t-55 39q-39 0 -78 -24t-71.5 -63.5t-55.5 -76t-43 -76.5q-15 -29 -2 -49zM371 1333q0 63 43.5 106.5 t105.5 43.5t106 -43.5t44 -106.5q0 -61 -44 -105t-106 -44t-105.5 44t-43.5 105zM745 1333q0 63 44 106.5t106 43.5t105.5 -43.5t43.5 -106.5q0 -61 -44 -105t-105 -44q-62 0 -106 44t-44 105z" />
<glyph unicode="&#xec;" horiz-adv-x="591" d="M-65.5 246.5q10.5 100.5 63.5 232.5l203 496q19 47 48.5 67.5t80.5 20.5h100q46 0 61 -22.5t-2 -65.5l-227 -559q-27 -68 -41.5 -118.5t-16 -77t5 -42.5t15 -20t21.5 -4q67 0 170 111t211 298q22 28 53.5 24.5t51 -36t1.5 -64.5q-295 -514 -583 -514q-70 0 -120.5 28.5 t-78 86.5t-17 158.5zM68 1460.5q7 18.5 45 18.5h120q51 0 86.5 -16.5t69.5 -55.5l137 -162q27 -31 18 -51t-50 -20h-29q-94 0 -166 61l-209 182q-29 25 -22 43.5z" />
<glyph unicode="&#xed;" horiz-adv-x="591" d="M-65.5 246.5q10.5 100.5 63.5 232.5l203 496q19 47 48.5 67.5t80.5 20.5h100q46 0 61 -22.5t-2 -65.5l-227 -559q-27 -68 -41.5 -118.5t-16 -77t5 -42.5t15 -20t21.5 -4q67 0 170 111t211 298q22 28 53.5 24.5t51 -36t1.5 -64.5q-295 -514 -583 -514q-70 0 -120.5 28.5 t-78 86.5t-17 158.5zM321 1194q-9 20 17 51l137 162q34 39 69.5 55.5t86.5 16.5h121q38 0 44.5 -18.5t-22.5 -43.5l-209 -182q-72 -61 -166 -61h-28q-41 0 -50 20z" />
<glyph unicode="&#xee;" horiz-adv-x="591" d="M-65.5 246.5q10.5 100.5 63.5 232.5l203 496q19 47 48.5 67.5t80.5 20.5h100q46 0 61 -22.5t-2 -65.5l-227 -559q-27 -68 -41.5 -118.5t-16 -77t5 -42.5t15 -20t21.5 -4q67 0 170 111t211 298q22 28 53.5 24.5t51 -36t1.5 -64.5q-295 -514 -583 -514q-70 0 -120.5 28.5 t-78 86.5t-17 158.5zM67 1170q-6 17 23 40l317 250q54 43 125 43h4q39 0 61.5 -14t39.5 -49l96 -203q20 -40 6 -62t-59 -22h-7q-51 0 -82 18t-57 62l-12 18q-37 63 -96 21l-84 -64q-75 -55 -170 -55h-62q-37 0 -43 17z" />
<glyph unicode="&#xef;" horiz-adv-x="591" d="M-65.5 246.5q10.5 100.5 63.5 232.5l203 496q19 47 48.5 67.5t80.5 20.5h100q46 0 61 -22.5t-2 -65.5l-227 -559q-27 -68 -41.5 -118.5t-16 -77t5 -42.5t15 -20t21.5 -4q67 0 170 111t211 298q22 28 53.5 24.5t51 -36t1.5 -64.5q-295 -514 -583 -514q-70 0 -120.5 28.5 t-78 86.5t-17 158.5zM111 1333q0 63 43.5 106.5t105.5 43.5t106 -43.5t44 -106.5q0 -61 -44 -105t-106 -44t-105.5 44t-43.5 105zM485 1333q0 63 44 106.5t106 43.5t105.5 -43.5t43.5 -106.5q0 -61 -44 -105t-105 -44q-62 0 -106 44t-44 105z" />
<glyph unicode="&#xf0;" horiz-adv-x="1011" d="M-20 289q0 83 23 177.5t72.5 192.5t118 176.5t170 128.5t218.5 50q24 0 36 -2q34 -5 45.5 8t4.5 47q-19 74 -62 125q-20 26 -45.5 25t-44.5 -27l-18 -27q-20 -28 -41.5 -32.5t-50.5 14.5q-31 22 -36 43.5t15 50.5l6 10q17 25 7.5 41.5t-40.5 18.5q-10 0 -14 2 q-44 0 -64 17.5t-28 60.5l-2 12q-15 87 72 90q79 3 149 -8q43 -6 67 4.5t50 48.5q20 28 41.5 32t50.5 -16l8 -6q26 -17 29 -37t-17 -49q-17 -25 -14.5 -41t27.5 -35q29 -20 57 -46t63.5 -73.5t61 -102t43 -135.5t16.5 -171q-1 -115 -27.5 -236t-80.5 -237t-128 -207 t-179 -147t-224 -56q-150 0 -242.5 83t-92.5 233zM258 276q0 -114 78 -114q57 0 115.5 59t100.5 144t68.5 178t26.5 162q0 120 -80 120q-57 0 -115.5 -59.5t-99.5 -145t-67.5 -180t-26.5 -164.5z" />
<glyph unicode="&#xf1;" horiz-adv-x="1140" d="M-161.5 22.5q-15.5 22.5 1.5 65.5l361 887q36 88 121 49l84 -37q41 -19 68 -16.5t65 28.5q133 91 260 91q88 0 136 -45t48 -127q0 -83 -63 -238l-109 -264q-27 -68 -40.5 -118.5t-15.5 -77t5 -42.5t15.5 -20t21.5 -4q65 0 167 110.5t212 298.5q22 28 53.5 24.5t51 -36 t1.5 -64.5q-66 -114 -129.5 -201.5t-137.5 -161t-155.5 -112.5t-165.5 -39q-76 0 -126.5 29.5t-74 90t-9.5 160.5t67 232l49 117q7 18 22 55.5t21 53.5t14.5 39.5t11.5 37t3 23.5q0 21 -16 33t-42 12q-72 0 -182 -96q-47 -41 -72 -103l-231 -569q-19 -47 -48.5 -67.5 t-80.5 -20.5h-100q-46 0 -61.5 22.5zM358 1272q-39 42 0 90q87 117 193 117q49 0 93 -19.5t81 -39t69 -19.5q35 0 70 24q29 23 46 21.5t40 -27.5q41 -46 2 -96q-42 -51 -86.5 -80t-103.5 -29q-49 0 -92.5 19.5t-81 39t-70.5 19.5q-32 0 -68 -28q-29 -23 -47.5 -21.5 t-44.5 29.5z" />
<glyph unicode="&#xf2;" horiz-adv-x="1120" d="M-6 330q0 84 23.5 182.5t75 201.5t122 186.5t174.5 136.5t223 53q162 0 253 -92t91 -259t-77 -350q-12 -29 1 -43.5t42 -5.5q129 46 233 223q22 28 53.5 24.5t51.5 -36t2 -64.5q-80 -137 -194 -221t-245 -88q-45 -2 -65.5 -10.5t-52.5 -40.5q-154 -154 -359 -154 q-165 0 -258.5 95.5t-93.5 261.5zM264 279q0 -52 23 -83.5t61 -31.5q25 0 49 12q56 30 73.5 69t0.5 103q-4 28 -4 43q0 51 31 92t80 54q37 9 50.5 22.5t24.5 50.5q35 107 35 178q0 56 -23 83.5t-59 27.5q-59 0 -123.5 -73.5t-111 -175t-77 -205.5t-30.5 -166zM416 1460.5 q7 18.5 45 18.5h121q50 0 85.5 -16.5t69.5 -55.5l137 -162q27 -31 18 -51t-50 -20h-29q-94 0 -166 61l-209 182q-29 25 -22 43.5z" />
<glyph unicode="&#xf3;" horiz-adv-x="1120" d="M-6 330q0 84 23.5 182.5t75 201.5t122 186.5t174.5 136.5t223 53q162 0 253 -92t91 -259t-77 -350q-12 -29 1 -43.5t42 -5.5q129 46 233 223q22 28 53.5 24.5t51.5 -36t2 -64.5q-80 -137 -194 -221t-245 -88q-45 -2 -65.5 -10.5t-52.5 -40.5q-154 -154 -359 -154 q-165 0 -258.5 95.5t-93.5 261.5zM264 279q0 -52 23 -83.5t61 -31.5q25 0 49 12q56 30 73.5 69t0.5 103q-4 28 -4 43q0 51 31 92t80 54q37 9 50.5 22.5t24.5 50.5q35 107 35 178q0 56 -23 83.5t-59 27.5q-59 0 -123.5 -73.5t-111 -175t-77 -205.5t-30.5 -166zM566 1194 q-9 20 17 51l138 162q34 39 69.5 55.5t85.5 16.5h121q38 0 45 -18.5t-22 -43.5l-209 -182q-72 -61 -166 -61h-29q-41 0 -50 20z" />
<glyph unicode="&#xf4;" horiz-adv-x="1120" d="M-6 330q0 84 23.5 182.5t75 201.5t122 186.5t174.5 136.5t223 53q162 0 253 -92t91 -259t-77 -350q-12 -29 1 -43.5t42 -5.5q129 46 233 223q22 28 53.5 24.5t51.5 -36t2 -64.5q-80 -137 -194 -221t-245 -88q-45 -2 -65.5 -10.5t-52.5 -40.5q-154 -154 -359 -154 q-165 0 -258.5 95.5t-93.5 261.5zM264 279q0 -52 23 -83.5t61 -31.5q25 0 49 12q56 30 73.5 69t0.5 103q-4 28 -4 43q0 51 31 92t80 54q37 9 50.5 22.5t24.5 50.5q35 107 35 178q0 56 -23 83.5t-59 27.5q-59 0 -123.5 -73.5t-111 -175t-77 -205.5t-30.5 -166zM323.5 1170 q-6.5 17 22.5 40l318 250q54 43 124 43h5q38 0 60.5 -14t39.5 -49l96 -203q20 -40 6 -62t-59 -22h-6q-51 0 -82 18t-57 62l-13 18q-37 63 -96 21l-84 -64q-75 -55 -170 -55h-61q-37 0 -43.5 17z" />
<glyph unicode="&#xf5;" horiz-adv-x="1120" d="M-6 330q0 84 23.5 182.5t75 201.5t122 186.5t174.5 136.5t223 53q162 0 253 -92t91 -259t-77 -350q-12 -29 1 -43.5t42 -5.5q129 46 233 223q22 28 53.5 24.5t51.5 -36t2 -64.5q-80 -137 -194 -221t-245 -88q-45 -2 -65.5 -10.5t-52.5 -40.5q-154 -154 -359 -154 q-165 0 -258.5 95.5t-93.5 261.5zM264 279q0 -52 23 -83.5t61 -31.5q25 0 49 12q56 30 73.5 69t0.5 103q-4 28 -4 43q0 51 31 92t80 54q37 9 50.5 22.5t24.5 50.5q35 107 35 178q0 56 -23 83.5t-59 27.5q-59 0 -123.5 -73.5t-111 -175t-77 -205.5t-30.5 -166zM467 1272 q-39 42 0 90q87 117 192 117q49 0 93 -19.5t81.5 -39t69.5 -19.5q35 0 70 24q29 23 46 21.5t40 -27.5q41 -46 2 -96q-90 -109 -191 -109q-49 0 -92.5 19.5t-80.5 39t-70 19.5q-32 0 -68 -28q-29 -23 -47.5 -21.5t-44.5 29.5z" />
<glyph unicode="&#xf6;" horiz-adv-x="1120" d="M-6 330q0 84 23.5 182.5t75 201.5t122 186.5t174.5 136.5t223 53q162 0 253 -92t91 -259t-77 -350q-12 -29 1 -43.5t42 -5.5q129 46 233 223q22 28 53.5 24.5t51.5 -36t2 -64.5q-80 -137 -194 -221t-245 -88q-45 -2 -65.5 -10.5t-52.5 -40.5q-154 -154 -359 -154 q-165 0 -258.5 95.5t-93.5 261.5zM264 279q0 -52 23 -83.5t61 -31.5q25 0 49 12q56 30 73.5 69t0.5 103q-4 28 -4 43q0 51 31 92t80 54q37 9 50.5 22.5t24.5 50.5q35 107 35 178q0 56 -23 83.5t-59 27.5q-59 0 -123.5 -73.5t-111 -175t-77 -205.5t-30.5 -166zM401 1333 q0 63 44 106t106 43t105.5 -43t43.5 -106q0 -62 -44 -106t-105 -44t-105.5 44.5t-44.5 105.5zM776 1333q0 63 44 106t106 43t105.5 -43t43.5 -106q0 -62 -44 -106t-105 -44q-62 0 -106 44.5t-44 105.5z" />
<glyph unicode="&#xf7;" horiz-adv-x="1232" d="M94.5 485.5q-15.5 22.5 3.5 63.5l29 74q20 46 50 66t81 20h735q46 0 61.5 -22.5t-1.5 -65.5l-31 -70q-19 -47 -48.5 -67.5t-80.5 -20.5h-737q-46 0 -61.5 22.5zM270 236q0 67 47 114t113 47q68 0 116 -47t48 -114q0 -65 -48.5 -113.5t-115.5 -48.5q-65 0 -112.5 48.5 t-47.5 113.5zM555 938q0 68 46.5 115t113.5 47q66 0 114 -47.5t48 -114.5q0 -66 -48 -114t-114 -48q-67 0 -113.5 47.5t-46.5 114.5z" />
<glyph unicode="&#xf8;" horiz-adv-x="1120" d="M-6 330q0 66 16 143t46 159t79 158.5t109.5 139.5t142.5 104.5t174 50.5q44 5 66 21t39 57l63 158q13 32 34 45.5t56 13.5h4q63 0 39 -59l-71 -178q-17 -41 -11 -63.5t43 -47.5q133 -88 133 -293q0 -167 -77 -350q-12 -29 1 -43.5t42 -5.5q129 46 233 223 q22 28 53.5 24.5t51.5 -36t2 -64.5q-80 -137 -194 -221t-245 -88q-45 -2 -65.5 -10.5t-52.5 -40.5q-138 -135 -312 -152q-44 -3 -65.5 -18.5t-38.5 -58.5l-17 -43q-13 -32 -33.5 -46t-54.5 -14h-4q-65 0 -43 60l27 67q17 42 9.5 64t-44.5 47q-135 91 -135 297zM266 281 q0 -31 14.5 -34t26.5 25l217 543q11 28 0.5 35.5t-30.5 -14.5q-84 -88 -155 -263.5t-73 -291.5zM428 210.5q11 -7.5 33 14.5q83 88 154 264t71 293q0 19 -6.5 27.5t-15.5 3t-17 -24.5l-219 -542q-11 -28 0 -35.5z" />
<glyph unicode="&#xf9;" horiz-adv-x="1126" d="M-65.5 139q-10.5 57 4.5 144.5t59 195.5l201 496q19 47 48.5 67.5t80.5 20.5h100q46 0 61 -22.5t-2 -65.5l-225 -559q-24 -60 -37.5 -104t-16.5 -69.5t2.5 -40.5t14.5 -19.5t23 -4.5q57 0 122 73t144 206q35 57 61 123l160 395q19 47 48.5 67.5t80.5 20.5h101 q46 0 61 -22.5t-2 -65.5l-225 -559q-26 -64 -40 -112t-16.5 -76t3 -45t15.5 -23t25 -6q66 0 166 110t209 299q22 28 53.5 24.5t51.5 -36t2 -64.5q-293 -514 -582 -514q-69 0 -121.5 28.5t-77.5 86.5q-14 31 -29 34t-40 -20q-129 -129 -271 -129q-54 0 -97 16.5t-74 54.5 t-41.5 95zM358.5 1460.5q6.5 18.5 44.5 18.5h121q51 0 86.5 -16.5t69.5 -55.5l137 -162q26 -31 17 -51t-50 -20h-28q-94 0 -166 61l-209 182q-29 25 -22.5 43.5z" />
<glyph unicode="&#xfa;" horiz-adv-x="1126" d="M-65.5 139q-10.5 57 4.5 144.5t59 195.5l201 496q19 47 48.5 67.5t80.5 20.5h100q46 0 61 -22.5t-2 -65.5l-225 -559q-24 -60 -37.5 -104t-16.5 -69.5t2.5 -40.5t14.5 -19.5t23 -4.5q57 0 122 73t144 206q35 57 61 123l160 395q19 47 48.5 67.5t80.5 20.5h101 q46 0 61 -22.5t-2 -65.5l-225 -559q-26 -64 -40 -112t-16.5 -76t3 -45t15.5 -23t25 -6q66 0 166 110t209 299q22 28 53.5 24.5t51.5 -36t2 -64.5q-293 -514 -582 -514q-69 0 -121.5 28.5t-77.5 86.5q-14 31 -29 34t-40 -20q-129 -129 -271 -129q-54 0 -97 16.5t-74 54.5 t-41.5 95zM544 1194q-9 20 17 51l138 162q34 39 69.5 55.5t85.5 16.5h121q38 0 45 -18.5t-22 -43.5l-209 -182q-72 -61 -166 -61h-29q-41 0 -50 20z" />
<glyph unicode="&#xfb;" horiz-adv-x="1126" d="M-65.5 139q-10.5 57 4.5 144.5t59 195.5l201 496q19 47 48.5 67.5t80.5 20.5h100q46 0 61 -22.5t-2 -65.5l-225 -559q-24 -60 -37.5 -104t-16.5 -69.5t2.5 -40.5t14.5 -19.5t23 -4.5q57 0 122 73t144 206q35 57 61 123l160 395q19 47 48.5 67.5t80.5 20.5h101 q46 0 61 -22.5t-2 -65.5l-225 -559q-26 -64 -40 -112t-16.5 -76t3 -45t15.5 -23t25 -6q66 0 166 110t209 299q22 28 53.5 24.5t51.5 -36t2 -64.5q-293 -514 -582 -514q-69 0 -121.5 28.5t-77.5 86.5q-14 31 -29 34t-40 -20q-129 -129 -271 -129q-54 0 -97 16.5t-74 54.5 t-41.5 95zM327.5 1170q-6.5 17 22.5 40l318 250q54 43 125 43h4q38 0 60.5 -14t39.5 -49l96 -203q20 -40 6 -62t-59 -22h-6q-51 0 -82 18t-57 62l-13 18q-37 63 -96 21l-84 -64q-75 -55 -170 -55h-61q-37 0 -43.5 17z" />
<glyph unicode="&#xfc;" horiz-adv-x="1126" d="M-65.5 139q-10.5 57 4.5 144.5t59 195.5l201 496q19 47 48.5 67.5t80.5 20.5h100q46 0 61 -22.5t-2 -65.5l-225 -559q-24 -60 -37.5 -104t-16.5 -69.5t2.5 -40.5t14.5 -19.5t23 -4.5q57 0 122 73t144 206q35 57 61 123l160 395q19 47 48.5 67.5t80.5 20.5h101 q46 0 61 -22.5t-2 -65.5l-225 -559q-26 -64 -40 -112t-16.5 -76t3 -45t15.5 -23t25 -6q66 0 166 110t209 299q22 28 53.5 24.5t51.5 -36t2 -64.5q-293 -514 -582 -514q-69 0 -121.5 28.5t-77.5 86.5q-14 31 -29 34t-40 -20q-129 -129 -271 -129q-54 0 -97 16.5t-74 54.5 t-41.5 95zM375 1333q0 63 44 106t106 43t105.5 -43t43.5 -106q0 -62 -44 -106t-105 -44t-105.5 44.5t-44.5 105.5zM750 1333q0 63 44 106t106 43t105.5 -43t43.5 -106q0 -62 -44 -106t-105 -44q-62 0 -106 44.5t-44 105.5z" />
<glyph unicode="&#xfd;" horiz-adv-x="1107" d="M-137 -416q3 93 69.5 162.5t159.5 114.5q28 14 90.5 41.5t85.5 38.5q62 27 88 96q8 19 1.5 23t-21.5 -9q-96 -78 -197 -78q-50 0 -91 16t-71 54.5t-41 95t4 144.5t58 196l203 496q19 47 48.5 67.5t80.5 20.5h100q46 0 61 -22.5t-2 -65.5l-227 -559q-24 -60 -37.5 -104 t-16 -69.5t3 -40.5t14 -19.5t22.5 -4.5q59 0 124 73.5t144 209.5q38 62 62 123l159 391q19 47 48.5 67.5t80.5 20.5h101q46 0 61 -22.5t-2 -65.5l-342 -836q-10 -28 1.5 -37.5t37.5 4.5q123 73 224 181.5t196 275.5q21 28 52.5 24.5t51.5 -36t2 -64.5q-70 -120 -145 -213.5 t-153.5 -159.5t-147.5 -110t-154 -86q-36 -17 -56.5 -39.5t-35.5 -60.5q-29 -73 -55 -127.5t-68 -118.5t-87 -105.5t-109.5 -69.5t-137.5 -28q-115 0 -177.5 61.5t-59.5 153.5zM6 -395q0 -24 16 -40.5t41 -15.5q37 2 80.5 42t85.5 130q13 29 1.5 41t-40.5 0 q-54 -25 -89.5 -45t-65 -50.5t-29.5 -61.5zM546 1194q-9 20 17 51l138 162q34 39 69.5 55.5t85.5 16.5h121q38 0 45 -18.5t-22 -43.5l-209 -182q-72 -61 -166 -61h-29q-41 0 -50 20z" />
<glyph unicode="&#xfe;" horiz-adv-x="1087" d="M-327.5 -383q-15.5 23 1.5 66l701 1724q19 47 48.5 67.5t80.5 20.5h98q46 0 61.5 -22.5t-1.5 -65.5l-146 -360q-9 -23 -1 -30t28 7q96 66 192 66q108 0 162.5 -77t54.5 -198q0 -152 -77 -332.5t-166 -306.5q-15 -20 -8 -28t30 4q108 56 204 156t187 255q22 28 53 24.5 t51 -36t3 -64.5q-61 -108 -134.5 -197t-165.5 -162t-206 -114t-238 -41q-177 0 -274 80q-22 17 -22 41t20 43q29 26 49.5 28t41 -9t34.5 -11q57 0 137 116.5t136.5 266.5t56.5 242q0 86 -64 86q-83 0 -186 -115q-46 -54 -64 -104l-387 -954q-19 -48 -48.5 -68.5t-80.5 -20.5 h-100q-46 0 -61.5 23z" />
<glyph unicode="&#xff;" horiz-adv-x="1107" d="M-137 -416q3 93 69.5 162.5t159.5 114.5q28 14 90.5 41.5t85.5 38.5q62 27 88 96q8 19 1.5 23t-21.5 -9q-96 -78 -197 -78q-50 0 -91 16t-71 54.5t-41 95t4 144.5t58 196l203 496q19 47 48.5 67.5t80.5 20.5h100q46 0 61 -22.5t-2 -65.5l-227 -559q-24 -60 -37.5 -104 t-16 -69.5t3 -40.5t14 -19.5t22.5 -4.5q59 0 124 73.5t144 209.5q38 62 62 123l159 391q19 47 48.5 67.5t80.5 20.5h101q46 0 61 -22.5t-2 -65.5l-342 -836q-10 -28 1.5 -37.5t37.5 4.5q123 73 224 181.5t196 275.5q21 28 52.5 24.5t51.5 -36t2 -64.5q-70 -120 -145 -213.5 t-153.5 -159.5t-147.5 -110t-154 -86q-36 -17 -56.5 -39.5t-35.5 -60.5q-29 -73 -55 -127.5t-68 -118.5t-87 -105.5t-109.5 -69.5t-137.5 -28q-115 0 -177.5 61.5t-59.5 153.5zM6 -395q0 -24 16 -40.5t41 -15.5q37 2 80.5 42t85.5 130q13 29 1.5 41t-40.5 0 q-54 -25 -89.5 -45t-65 -50.5t-29.5 -61.5zM377 1333q0 63 43.5 106.5t105.5 43.5t106 -43.5t44 -106.5q0 -61 -44 -105t-106 -44t-105.5 44t-43.5 105zM752 1333q0 63 43.5 106.5t105.5 43.5t106 -43.5t44 -106.5q0 -61 -44 -105t-106 -44q-61 0 -105 44t-44 105z" />
<glyph unicode="&#x102;" horiz-adv-x="1812" d="M-137 334q0 81 30.5 153.5t86.5 129.5t144 90.5t195 33.5q161 0 338 -75q36 -16 61.5 -8.5t45.5 42.5l377 635q15 26 42 72t40.5 69.5t38 60t41 55.5t42 43t49 35t54.5 19.5t65 8.5q82 0 145.5 -40.5t91 -119t1.5 -176.5l-262 -1002q-9 -33 5.5 -50t49.5 -13 q73 8 142.5 65t160.5 201q12 18 31 23t36 -3t31 -22t16.5 -34t-7.5 -40q-81 -143 -145 -222.5t-140.5 -121.5t-175.5 -43q-43 0 -63 -16t-31 -57l-72 -277q-24 -91 -104 -41l-86 55q-43 28 -56 60t0 82l54 198q10 40 -0.5 63t-47.5 40q-68 30 -182 90q-37 19 -61 13t-47 -40 q-225 -305 -523 -305q-189 0 -300 105.5t-111 263.5zM106 346q0 -64 51.5 -104.5t123.5 -40.5q57 0 131.5 40t154.5 142q22 28 15.5 52t-39.5 36q-123 45 -215 45q-111 0 -166.5 -51t-55.5 -119zM985 580q-35 -63 27 -99q21 -12 43.5 -24t48.5 -25.5t41 -21.5q68 -30 86 39 l250 911q3 8 -8 12q-12 4 -15 -4zM1419 1941.5q1 27.5 8 57.5q16 74 93 74q44 0 58.5 -15t14.5 -59q0 -70 74 -70q81 0 150 82q34 39 58 50.5t71 11.5q34 0 46 -20t-3 -52q-17 -39 -42 -73.5t-66.5 -72t-105.5 -59.5t-141 -22q-63 0 -108 15.5t-66.5 38t-31.5 54.5t-9 59.5z " />
<glyph unicode="&#x103;" d="M-35 229q0 57 15.5 140t44.5 180.5t77.5 192.5t107.5 173t140.5 126.5t171.5 48.5q132 0 199 -101q28 -39 49 -45t64 12l178 72q37 15 52 -0.5t1 -52.5l-227 -559q-26 -65 -40 -113.5t-17 -76t2.5 -44.5t14.5 -22.5t23 -5.5q67 0 169 110.5t212 298.5q22 28 53.5 24 t51.5 -36.5t2 -63.5q-51 -88 -100 -160t-108.5 -139.5t-118 -113.5t-126.5 -73.5t-137 -27.5q-142 0 -201 103q-17 32 -32.5 34.5t-41.5 -22.5q-129 -115 -258 -115q-106 0 -163.5 72.5t-57.5 183.5zM246 285q0 -78 65 -78q81 0 172 100q48 60 62 101l114 282q9 21 8 53.5 t-10 53.5q-23 55 -77 55q-60 0 -124 -68.5t-108.5 -162.5t-73 -188t-28.5 -148zM508 1349.5q1 27.5 8 57.5q16 74 92 74q44 0 59 -15t15 -59q0 -70 74 -70q80 0 149 82q34 39 58 50.5t71 11.5q34 0 46 -20t-3 -52q-13 -30 -30.5 -57.5t-48 -60t-67.5 -55.5t-91 -38.5 t-117 -15.5t-108 15.5t-66.5 38t-31.5 54.5t-9 59.5z" />
<glyph unicode="&#x104;" horiz-adv-x="1812" d="M-137 334q0 81 30.5 153.5t86.5 129.5t144 90.5t195 33.5q161 0 338 -75q36 -16 61.5 -8.5t45.5 42.5l377 635q15 26 42 72t40.5 69.5t38 60t41 55.5t42 43t49 35t54.5 19.5t65 8.5q128 0 202 -94t36 -242l-262 -1002q-9 -33 5.5 -50t49.5 -13q73 8 142.5 65t160.5 201 q12 18 31 23t36 -3t31 -22t16.5 -34t-7.5 -40q-81 -143 -145 -222.5t-140.5 -121.5t-175.5 -43q-43 0 -63 -16t-31 -57l-88 -338q-3 -10 -9 -14.5t-15 -6t-13 -4.5q-101 -62 -165.5 -121.5t-64.5 -101.5q0 -64 121 -31q38 11 52.5 -4.5t-0.5 -52.5l-9 -19q-14 -35 -44 -61 t-68 -33q-47 -10 -92 -10t-88 12.5t-69 49t-26 94.5q0 84 72.5 156t222.5 157q60 35 0 78q-32 22 -41 46t0 62l60 219q10 40 -0.5 63t-47.5 40q-68 30 -182 90q-37 19 -61 13t-47 -40q-225 -305 -523 -305q-189 0 -300 105.5t-111 263.5zM106 346q0 -64 51.5 -104.5 t125.5 -40.5q55 0 130 40.5t154 141.5q22 28 15.5 52t-39.5 36q-123 45 -215 45q-111 0 -166.5 -51t-55.5 -119zM985 580q-35 -63 27 -99q21 -12 43.5 -24t48.5 -25.5t41 -21.5q68 -30 86 39l250 911q3 8 -8 12q-12 4 -15 -4z" />
<glyph unicode="&#x105;" d="M-35 229q0 57 15.5 140t44.5 180.5t77.5 192.5t107.5 173t140.5 126.5t171.5 48.5q132 0 199 -101q28 -39 49 -45t64 12l178 72q37 15 52 -0.5t1 -52.5l-227 -559q-26 -65 -40 -113.5t-17 -76t2.5 -44.5t14.5 -22.5t23 -5.5q67 0 169 110.5t212 298.5q22 28 53.5 24 t51.5 -36.5t2 -63.5q-232 -398 -451 -487q-53 -18 -100 -53q-172 -118 -172 -187q0 -63 121 -30q38 10 52 -5.5t-1 -52.5l-8 -18q-14 -35 -44.5 -61t-68.5 -33q-48 -10 -93 -10t-88 12t-69.5 48.5t-26.5 94.5q0 66 46 124t137 120q32 23 34 39.5t-26 44.5q-17 17 -33 41 q-17 34 -32.5 36.5t-41.5 -22.5q-129 -115 -258 -115q-106 0 -163.5 72.5t-57.5 183.5zM246 285q0 -78 65 -78q81 0 172 100q48 60 62 101l114 282q9 21 8 53.5t-10 53.5q-23 55 -77 55q-60 0 -124 -68.5t-108.5 -162.5t-73 -188t-28.5 -148z" />
<glyph unicode="&#x106;" horiz-adv-x="1488" d="M0 1108q0 125 52 234t138 182q73 60 127 -19l25 -35q34 -51 32.5 -79.5t-42.5 -73.5q-88 -99 -88 -225q0 -71 38.5 -136.5t110.5 -107.5q34 -20 61 -11t40 46q62 161 146 305t186 263.5t225 190t247 70.5q108 0 186.5 -53t115 -136.5t36.5 -185.5q0 -142 -77 -297.5 t-226 -275.5q-232 -197 -577 -213q-38 -3 -57 -20t-27 -54q-21 -95 -21 -170q0 -223 197 -223q71 0 156.5 29.5t176.5 85.5t182.5 151t160.5 213q22 28 53.5 24.5t51 -36t1.5 -64.5q-161 -279 -379.5 -441.5t-470.5 -162.5q-109 0 -190 32.5t-128.5 91t-70 134t-22.5 168.5 q0 99 20 205q7 41 -4 62t-49 38q-164 70 -250 201t-86 293zM788 854q-12 -32 1 -48.5t47 -10.5q194 33 325 157q90 83 137.5 183.5t47.5 175.5q0 51 -23 83.5t-70 32.5q-72 0 -158.5 -83.5t-163.5 -209.5t-143 -280zM1275 1794q-9 20 17 51l138 162q34 39 69.5 55.5 t85.5 16.5h121q38 0 45 -18.5t-22 -43.5l-209 -182q-72 -61 -166 -61h-29q-41 0 -50 20z" />
<glyph unicode="&#x107;" horiz-adv-x="991" d="M-10 317q0 86 25.5 188t78.5 205.5t125 188t175 138t218 53.5q186 0 261 -119t-1 -320q-34 -86 -124 -86h-107q-45 0 -59 22.5t6 63.5q74 161 49 194q-10 13 -37 13q-65 0 -130.5 -65.5t-110 -156.5t-72 -182t-27.5 -147q0 -43 18.5 -74.5t50 -47.5t63.5 -23.5t67 -7.5 q151 0 303.5 108.5t263.5 300.5q21 27 52.5 23.5t52 -35.5t2.5 -64q-45 -79 -96 -148.5t-122.5 -138.5t-149.5 -117.5t-178.5 -79t-207.5 -30.5q-192 0 -290.5 90t-98.5 254zM538 1194q-9 20 17 51l138 162q34 39 69.5 55.5t85.5 16.5h121q38 0 45 -18.5t-22 -43.5 l-209 -182q-72 -61 -166 -61h-29q-41 0 -50 20z" />
<glyph unicode="&#x10c;" horiz-adv-x="1488" d="M0 1108q0 125 52 234t138 182q73 60 127 -19l25 -35q34 -51 32.5 -79.5t-42.5 -73.5q-88 -99 -88 -225q0 -71 38.5 -136.5t110.5 -107.5q34 -20 61 -11t40 46q62 161 146 305t186 263.5t225 190t247 70.5q108 0 186.5 -53t115 -136.5t36.5 -185.5q0 -142 -77 -297.5 t-226 -275.5q-232 -197 -577 -213q-38 -3 -57 -20t-27 -54q-21 -95 -21 -170q0 -223 197 -223q71 0 156.5 29.5t176.5 85.5t182.5 151t160.5 213q22 28 53.5 24.5t51 -36t1.5 -64.5q-161 -279 -379.5 -441.5t-470.5 -162.5q-109 0 -190 32.5t-128.5 91t-70 134t-22.5 168.5 q0 99 20 205q7 41 -4 62t-49 38q-164 70 -250 201t-86 293zM788 854q-12 -32 1 -48.5t47 -10.5q194 33 325 157q90 83 137.5 183.5t47.5 175.5q0 51 -23 83.5t-70 32.5q-72 0 -158.5 -83.5t-163.5 -209.5t-143 -280zM1174 2102q14 22 59 22h6q51 0 81.5 -18t55.5 -62l13 -19 q36 -62 96 -20l86 63q76 56 170 56h61q37 0 43.5 -17.5t-22.5 -40.5l-318 -249q-54 -43 -125 -43h-4q-38 0 -60.5 14t-39.5 49l-96 203q-20 40 -6 62z" />
<glyph unicode="&#x10d;" horiz-adv-x="991" d="M-10 317q0 86 25.5 188t78.5 205.5t125 188t175 138t218 53.5q186 0 261 -119t-1 -320q-34 -86 -124 -86h-107q-45 0 -59 22.5t6 63.5q74 161 49 194q-10 13 -37 13q-65 0 -130.5 -65.5t-110 -156.5t-72 -182t-27.5 -147q0 -43 18.5 -74.5t50 -47.5t63.5 -23.5t67 -7.5 q151 0 303.5 108.5t263.5 300.5q21 27 52.5 23.5t52 -35.5t2.5 -64q-45 -79 -96 -148.5t-122.5 -138.5t-149.5 -117.5t-178.5 -79t-207.5 -30.5q-192 0 -290.5 90t-98.5 254zM477.5 1481q14.5 22 59.5 22h6q51 0 81.5 -18t55.5 -62l12 -18q37 -63 96 -21l86 64q75 55 170 55 h62q37 0 43 -17t-23 -40l-317 -250q-54 -43 -125 -43h-4q-38 0 -60.5 14.5t-39.5 49.5l-97 202q-20 40 -5.5 62z" />
<glyph unicode="&#x10e;" horiz-adv-x="1980" d="M-61 227q0 53 19.5 106t58 100t105.5 76.5t152 29.5q139 0 297 -105q58 -38 95 25q31 60 55 119l209 518q40 97 118 174t179 102q37 9 64.5 -6t39.5 -51q18 -55 12.5 -77.5t-43.5 -55.5q-71 -63 -108 -156l-215 -532q-46 -116 -100 -203q-19 -32 -13.5 -55t37.5 -43 q108 -70 213 -70q116 0 224 79t182 202t118.5 274.5t44.5 296.5q0 110 -27 201.5t-82 162.5t-145.5 110.5t-209.5 39.5q-104 0 -196 -31.5t-156.5 -83t-111 -116.5t-69 -132.5t-22.5 -130.5q0 -48 14 -102q15 -57 4.5 -87t-57.5 -65l-39 -28q-35 -26 -65.5 -18t-47.5 48 q-45 112 -45 244q0 113 35.5 220t105.5 198.5t166 160t225.5 107.5t276.5 39q230 0 395.5 -92.5t249.5 -257.5t84 -387q0 -119 -25 -245t-72 -248t-120.5 -229.5t-164.5 -189.5t-210 -130t-250 -48q-109 0 -190 33.5t-174 104.5q-36 27 -60 27.5t-61 -23.5 q-150 -103 -336 -103q-96 0 -169.5 28t-114 73.5t-60.5 96.5t-20 105zM156 242q0 -43 36.5 -66.5t98.5 -23.5q73 0 147 41q31 19 32 43.5t-30 46.5q-89 63 -159 63q-56 0 -90.5 -31t-34.5 -73zM1346 2102q14 22 59 22h6q51 0 81.5 -18t55.5 -62l13 -19q36 -62 96 -20l86 63 q76 56 170 56h61q37 0 43.5 -17.5t-22.5 -40.5l-318 -249q-54 -43 -125 -43h-4q-38 0 -60.5 14t-39.5 49l-96 203q-20 40 -6 62z" />
<glyph unicode="&#x10f;" horiz-adv-x="1165" d="M-37 227q0 58 16.5 142t47 181.5t79.5 192.5t108.5 173t140 126t167.5 48q130 0 197 -101q37 -52 61 8l158 383q19 47 48.5 67.5t80.5 20.5h100q46 0 61.5 -22.5t-1.5 -65.5l-391 -964q-26 -66 -40 -115.5t-16.5 -77t3.5 -43.5t14.5 -21t21.5 -5q67 0 170 111t211 298 q22 28 53.5 24.5t51.5 -36t2 -64.5q-65 -112 -127.5 -198t-136.5 -161t-156.5 -115t-167.5 -40q-142 0 -201 103q-17 32 -32.5 34.5t-41.5 -22.5q-129 -115 -262 -115q-104 0 -161.5 72.5t-57.5 181.5zM244 285q0 -78 67 -78q83 0 170 100q45 52 62 101l114 282q9 21 8 53.5 t-10 53.5q-23 55 -77 55q-60 0 -124 -68.5t-108.5 -162.5t-73 -188t-28.5 -148zM1204 1073q-20 36 13 60q25 20 40.5 36.5t26.5 37.5t8 46t-20 54q-17 31 -17 63q0 46 33 79.5t82 33.5q44 0 79.5 -30.5t35.5 -90.5q0 -144 -228 -305q-34 -24 -51 12z" />
<glyph unicode="&#x110;" horiz-adv-x="1980" d="M-61 227q0 53 19.5 106t58 100t105.5 76.5t152 29.5q138 0 297 -103q62 -44 95 23q11 20 3.5 39.5t-32.5 19.5h-4q-59 0 -37 55l33 82q12 31 31 43.5t51 12.5h4q33 0 51.5 12.5t30.5 42.5l133 330q40 97 118 174t179 102q37 9 64.5 -6t39.5 -51q18 -55 12.5 -77.5 t-43.5 -55.5q-67 -59 -108 -156l-100 -248q-14 -32 -2 -49.5t47 -17.5h10q38 0 51 -19.5t-2 -54.5l-18 -45q-15 -39 -40 -56.5t-67 -17.5h-8q-41 0 -64.5 -15t-40.5 -52q-58 -123 -81 -160q-19 -32 -13.5 -55t37.5 -43q108 -70 213 -70q116 0 224 79t182 202t118.5 274.5 t44.5 296.5q0 110 -27 201.5t-82 162.5t-145.5 110.5t-209.5 39.5q-104 0 -196 -31.5t-156.5 -83t-111 -116.5t-69 -132.5t-22.5 -130.5q0 -48 14 -102q15 -57 4.5 -87t-57.5 -65l-39 -28q-35 -26 -65.5 -18t-47.5 48q-45 112 -45 244q0 113 35.5 220t105.5 198.5t166 160 t225.5 107.5t276.5 39q230 0 395.5 -92.5t249.5 -257.5t84 -387q0 -119 -25 -245t-72 -248t-120.5 -229.5t-164.5 -189.5t-210 -130t-250 -48q-109 0 -190 33.5t-174 104.5q-36 27 -60 27.5t-61 -23.5q-150 -103 -336 -103q-96 0 -169.5 28t-114 73.5t-60.5 96.5t-20 105z M156 242q0 -43 36.5 -66.5t98.5 -23.5q73 0 147 41q31 19 32 43.5t-30 46.5q-89 63 -159 63q-56 0 -90.5 -31t-34.5 -73z" />
<glyph unicode="&#x111;" horiz-adv-x="1165" d="M-37 227q0 58 16.5 142t47 181.5t79.5 192.5t108.5 173t140 126t167.5 48q130 0 197 -101q37 -52 61 8l43 103q25 67 -47 67h-14q-75 0 -47 72q17 41 41 57.5t65 16.5h13q40 0 63.5 15.5t38.5 51.5l4 13q19 41 45 58t70 17h125q82 0 51 -75l-4 -13q-14 -32 -2 -49.5 t47 -17.5h6q75 0 47 -70q-19 -42 -42.5 -59t-63.5 -17h-7q-40 0 -63.5 -15.5t-36.5 -51.5l-276 -684q-26 -66 -40 -115.5t-16.5 -77t3.5 -43.5t14.5 -21t21.5 -5q67 0 170 111t211 298q22 28 53.5 24.5t51.5 -36t2 -64.5q-65 -112 -127.5 -198t-136.5 -161t-156.5 -115 t-167.5 -40q-142 0 -201 103q-17 32 -32.5 34.5t-41.5 -22.5q-129 -115 -262 -115q-104 0 -161.5 72.5t-57.5 181.5zM244 285q0 -78 67 -78q83 0 170 100q45 52 62 101l114 282q9 21 8 53.5t-10 53.5q-23 55 -77 55q-60 0 -124 -68.5t-108.5 -162.5t-73 -188t-28.5 -148z " />
<glyph unicode="&#x118;" horiz-adv-x="1296" d="M0 379q0 120 44.5 228.5t119 186.5t173.5 125.5t206 51.5q38 2 50.5 16.5t6.5 52.5q-8 50 -8 88q0 129 51 240q18 39 20.5 65t-8.5 68q-23 95 -26 205q-3 90 88 78q53 -7 74 -29t24 -72v-8q6 -77 72 -39q130 70 276 70q96 0 172 -29.5t120 -78t66.5 -105.5t22.5 -117 q-2 -141 -105.5 -243.5t-275.5 -102.5q-147 0 -258 82q-25 19 -38.5 10.5t-10.5 -39.5q8 -97 55 -172q34 -57 33.5 -86t-37.5 -84l-10 -16q-32 -50 -59 -58t-80 17q-84 35 -164 35q-140 0 -227.5 -94t-87.5 -240q0 -144 86.5 -242t232.5 -98q79 0 145.5 32.5t108.5 85 t62.5 119.5t13.5 136q-6 58 10 82t72 39l51 14q93 25 108 -68q24 -127 0.5 -238t-83.5 -199t-149.5 -149.5t-197.5 -88.5q-60 -15 -112 -52q-148 -107 -148 -170t121 -30q38 10 51.5 -6.5t-0.5 -53.5l-6 -16q-14 -35 -44.5 -61t-68.5 -33q-37 -8 -73 -10.5t-73.5 4t-65.5 23 t-46 49t-18 79.5q0 62 39.5 116.5t120.5 112.5q25 19 22 34t-32 24q-182 56 -294 209t-112 350zM954.5 1357q-1.5 -30 24.5 -52q76 -64 168 -64q66 0 108.5 32t42.5 77q0 44 -41.5 75t-111.5 31q-86 0 -160 -49q-29 -20 -30.5 -50z" />
<glyph unicode="&#x119;" horiz-adv-x="991" d="M-10 317q0 87 25 188.5t78 205t124.5 188t175.5 138t221 53.5q114 0 194 -52t104 -149.5t-38 -237.5q-69 -146 -196 -211.5t-344 -48.5q-32 3 -52 -15t-20 -52q-1 -31 6.5 -57.5t26.5 -53.5t60 -43t100 -16q155 0 308.5 108.5t262.5 300.5q21 28 52.5 24.5t52 -36 t2.5 -64.5q-46 -81 -101 -153t-125.5 -140.5t-158.5 -119.5t-185 -76q-63 -15 -114 -51q-168 -122 -168 -187q0 -63 120 -30q38 11 52.5 -5t-0.5 -53l-9 -18q-14 -35 -44 -61t-68 -33q-37 -8 -73 -10.5t-73.5 4t-65 23t-45.5 49t-18 79.5q0 117 164 234q17 11 22 22t-3 19.5 t-27 13.5q-223 67 -223 323zM348 569q13 -20 47 -22q93 0 144 45t86 125q32 63 28 102t-55 39q-39 0 -78 -24t-71.5 -63.5t-55.5 -76t-43 -76.5q-15 -29 -2 -49z" />
<glyph unicode="&#x11a;" horiz-adv-x="1296" d="M0 379q0 120 44.5 228.5t119 186.5t173.5 125.5t206 51.5q38 2 50.5 16.5t6.5 52.5q-8 50 -8 88q0 129 51 240q18 39 20.5 65t-8.5 68q-23 95 -26 205q-3 90 88 78q53 -7 74 -29t24 -72v-8q6 -77 72 -39q130 70 276 70q96 0 172 -29.5t120 -78t66.5 -105.5t22.5 -117 q-2 -141 -105.5 -243.5t-275.5 -102.5q-147 0 -258 82q-25 19 -38.5 10.5t-10.5 -39.5q8 -97 55 -172q34 -57 33.5 -86t-37.5 -84l-10 -16q-32 -50 -59 -58t-80 17q-84 35 -164 35q-140 0 -227.5 -94t-87.5 -240q0 -144 86.5 -242t232.5 -98q79 0 145.5 32.5t108.5 85 t62.5 119.5t13.5 136q-6 58 10 82t72 39l51 14q93 25 108 -68q27 -144 -9 -274.5t-117.5 -221.5t-201 -144.5t-253.5 -53.5q-167 0 -302.5 79t-210.5 213.5t-75 295.5zM954.5 1357q-1.5 -30 24.5 -52q76 -64 168 -64q66 0 108.5 32t42.5 77q0 44 -41.5 75t-111.5 31 q-86 0 -160 -49q-29 -20 -30.5 -50zM1051 2114q14 22 59 22h6q51 0 81.5 -18t55.5 -62l13 -18q37 -63 96 -21l86 64q75 55 170 55h61q37 0 43.5 -17t-22.5 -40l-318 -250q-54 -43 -125 -43h-4q-38 0 -60.5 14t-39.5 49l-96 203q-20 40 -6 62z" />
<glyph unicode="&#x11b;" horiz-adv-x="991" d="M-10 317q0 87 25 188.5t78 205t124.5 188t175.5 138t221 53.5q114 0 194 -52t104 -149.5t-38 -237.5q-69 -146 -196 -211.5t-344 -48.5q-32 3 -52 -15t-20 -52q-1 -31 6.5 -57.5t26.5 -53.5t60 -43t100 -16q155 0 308.5 108.5t262.5 300.5q21 28 52.5 24.5t52 -36 t2.5 -64.5q-45 -79 -97 -148.5t-123.5 -138.5t-149.5 -117.5t-178.5 -79t-207.5 -30.5q-191 0 -289 90t-98 254zM348 569q13 -20 47 -22q93 0 144 45t86 125q32 63 28 102t-55 39q-39 0 -78 -24t-71.5 -63.5t-55.5 -76t-43 -76.5q-15 -29 -2 -49zM451 1481q14 22 59 22h6 q51 0 81.5 -18t55.5 -62l13 -18q37 -63 96 -21l86 64q75 55 170 55h61q37 0 43.5 -17t-22.5 -40l-318 -250q-54 -43 -125 -43h-4q-38 0 -60.5 14.5t-39.5 49.5l-96 202q-20 40 -6 62z" />
<glyph unicode="&#x131;" horiz-adv-x="591" d="M-65.5 246.5q10.5 100.5 63.5 232.5l203 496q19 47 48.5 67.5t80.5 20.5h100q46 0 61 -22.5t-2 -65.5l-227 -559q-27 -68 -41.5 -118.5t-16 -77t5 -42.5t15 -20t21.5 -4q67 0 170 111t211 298q22 28 53.5 24.5t51 -36t1.5 -64.5q-295 -514 -583 -514q-70 0 -120.5 28.5 t-78 86.5t-17 158.5z" />
<glyph unicode="&#x139;" horiz-adv-x="1597" d="M-133 162q0 56 21.5 113t62 106t108 80t150.5 31q124 0 244 -70q60 -38 90 29q4 9 9 19.5t10 24t9 21.5q15 38 6.5 59.5t-45.5 38.5q-166 72 -251.5 202t-85.5 292q0 125 52 234t138 182q72 60 127 -17l27 -41q34 -50 31 -77t-44 -70q-86 -90 -86 -215q0 -29 8 -61.5 t26 -70.5t54 -74.5t86 -61.5q34 -19 62 -9t43 45q43 106 80 187.5t84.5 173t93.5 158t103.5 130.5t117.5 103.5t133 63.5t152 24q153 0 253.5 -103.5t100.5 -269.5q0 -143 -77.5 -299t-227.5 -276q-239 -199 -588 -215q-40 -2 -61.5 -17t-36.5 -53q-56 -144 -90 -213 q-18 -35 -13.5 -61t33.5 -53q272 -250 373 -332q75 -58 125.5 -82.5t99.5 -24.5q92 0 203 82q41 33 72 30t65 -42l41 -47q61 -70 -12 -129q-186 -146 -365 -146q-92 0 -182 42.5t-192 121.5q-74 60 -363 328q-32 29 -56.5 30.5t-58.5 -24.5q-126 -101 -301 -104 q-90 -1 -161.5 27t-113 74t-62.5 98.5t-21 107.5zM94 174q0 -41 31 -68.5t78 -27.5q63 0 127 51q28 23 26.5 51.5t-30.5 50.5q-68 48 -121 48q-50 0 -80.5 -31.5t-30.5 -73.5zM992 803.5q12 -15.5 46 -10.5q183 34 322 159q90 83 137 182.5t47 172.5q0 118 -104 118 q-207 0 -447 -575q-13 -31 -1 -46.5zM1439 1792q-9 20 17 51l138 162q34 39 69.5 55.5t85.5 16.5h121q38 0 45 -18.5t-22 -43.5l-209 -182q-72 -61 -166 -61h-29q-41 0 -50 20z" />
<glyph unicode="&#x13a;" horiz-adv-x="591" d="M-65.5 245q10.5 101 63.5 234l367 901q19 47 48.5 67.5t80.5 20.5h100q46 0 61 -22.5t-2 -65.5l-391 -964q-26 -66 -40 -115.5t-16.5 -77t3.5 -43.5t15 -21t22 -5q67 0 170 111t211 298q22 28 53.5 24.5t51 -36t1.5 -64.5q-295 -514 -583 -514q-70 0 -120 28t-78 85.5 t-17.5 158.5zM472 1600q-9 20 17 51l138 162q34 39 69.5 55.5t85.5 16.5h121q38 0 45 -18.5t-22 -43.5l-209 -182q-72 -61 -166 -61h-29q-41 0 -50 20z" />
<glyph unicode="&#x13d;" horiz-adv-x="1597" d="M-133 162q0 56 21.5 113t62 106t108 80t150.5 31q124 0 244 -70q60 -38 90 29q4 9 9 19.5t10 24t9 21.5q15 38 6.5 59.5t-45.5 38.5q-166 72 -251.5 202t-85.5 292q0 125 52 234t138 182q72 60 127 -17l27 -41q34 -50 31 -77t-44 -70q-86 -90 -86 -215q0 -29 8 -61.5 t26 -70.5t54 -74.5t86 -61.5q34 -19 62 -9t43 45q43 106 80 187.5t84.5 173t93.5 158t103.5 130.5t117.5 103.5t133 63.5t152 24q153 0 253.5 -103.5t100.5 -269.5q0 -143 -77.5 -299t-227.5 -276q-239 -199 -588 -215q-40 -2 -61.5 -17t-36.5 -53q-56 -144 -90 -213 q-18 -35 -13.5 -61t33.5 -53q272 -250 373 -332q75 -58 125.5 -82.5t99.5 -24.5q92 0 203 82q41 33 72 30t65 -42l41 -47q61 -70 -12 -129q-186 -146 -365 -146q-92 0 -182 42.5t-192 121.5q-74 60 -363 328q-32 29 -56.5 30.5t-58.5 -24.5q-126 -101 -301 -104 q-90 -1 -161.5 27t-113 74t-62.5 98.5t-21 107.5zM94 174q0 -41 31 -68.5t78 -27.5q63 0 127 51q28 23 26.5 51.5t-30.5 50.5q-68 48 -121 48q-50 0 -80.5 -31.5t-30.5 -73.5zM992 803.5q12 -15.5 46 -10.5q183 34 322 159q90 83 137 182.5t47 172.5q0 118 -104 118 q-207 0 -447 -575q-13 -31 -1 -46.5zM1858 1094q-33 52 16 90q54 42 102 90q66 69 0 135q-49 49 -49 121q0 71 49 120.5t119 49.5q65 0 116.5 -46.5t51.5 -137.5q0 -56 -22.5 -113.5t-56 -103.5t-79.5 -92t-84 -76t-79 -58q-52 -34 -84 21z" />
<glyph unicode="&#x13e;" horiz-adv-x="591" d="M-65.5 245q10.5 101 63.5 234l367 901q19 47 48.5 67.5t80.5 20.5h100q46 0 61 -22.5t-2 -65.5l-391 -964q-26 -66 -40 -115.5t-16.5 -77t3.5 -43.5t15 -21t22 -5q67 0 170 111t211 298q22 28 53.5 24.5t51 -36t1.5 -64.5q-295 -514 -583 -514q-70 0 -120 28t-78 85.5 t-17.5 158.5zM622.5 1104.5q2.5 13.5 20.5 25.5l37 31q38 34 43 68.5t-23 77.5q-18 27 -18 61q0 46 34 80.5t81 34.5q44 0 79 -30.5t35 -92.5q0 -48 -23.5 -96t-62 -88t-72 -68t-69.5 -51q-34 -21 -51 12l-2 4q-11 18 -8.5 31.5z" />
<glyph unicode="&#x141;" horiz-adv-x="1597" d="M-133 162q0 56 21.5 113t62 106t108 80t150.5 31q124 0 244 -70q60 -38 90 29q30 61 57 129q12 31 -0.5 45t-44.5 6l-66 -13q-41 -9 -55.5 9.5t0.5 56.5q20 49 48.5 73.5t78.5 35.5l66 14q38 9 60.5 28t37.5 56q41 101 76.5 179.5t82 167t91 154.5t101 129t115 103 t129.5 64t148 24q157 0 249 -85t110 -226q6 -44 -16 -69t-66 -25h-105q-53 0 -70 10.5t-46 62.5q-22 45 -84 45q-191 0 -404 -464q-12 -29 -0.5 -44t43.5 -8l88 21q40 9 55.5 -9.5t0.5 -56.5q-20 -51 -48.5 -75t-78.5 -35l-84 -19q-40 -9 -63 -28.5t-36 -57.5 q-79 -216 -157 -383q-18 -35 -13.5 -61t33.5 -53q272 -250 373 -332q75 -58 125.5 -82.5t99.5 -24.5q92 0 203 82q41 33 72 30t65 -42l41 -47q61 -70 -12 -129q-190 -149 -365 -146q-171 5 -374 164q-115 89 -365 328q-31 29 -55 30.5t-58 -24.5q-126 -101 -301 -104 q-90 -1 -161.5 27t-113 74t-62.5 98.5t-21 107.5zM94 174q0 -41 31 -68.5t78 -27.5q63 0 127 51q28 23 26.5 51.5t-30.5 50.5q-68 48 -121 48q-50 0 -80.5 -31.5t-30.5 -73.5z" />
<glyph unicode="&#x142;" horiz-adv-x="591" d="M-76 551.5q-12 11.5 0 42.5l10 27q17 40 41 64.5t62 41.5l8 4q37 18 59 40t37 58l224 551q19 47 48.5 67.5t80.5 20.5h100q46 0 61 -22.5t-2 -65.5l-159 -395q-12 -28 -1 -39.5t39 0.5l11 6q32 13 44.5 1t0.5 -44l-10 -22q-17 -42 -41.5 -67t-63.5 -42l-10 -4 q-37 -18 -59 -40t-37 -58l-105 -260q-26 -66 -40 -115.5t-16.5 -77t3.5 -43.5t15 -21t22 -5q67 0 170 111t211 298q22 28 53.5 24.5t51 -36t1.5 -64.5q-295 -514 -583 -514q-55 0 -98.5 17t-74.5 55.5t-42 95.5t4 144t59 194l22 56q9 22 1.5 29.5t-29.5 -1.5l-25 -10 q-31 -13 -43 -1.5z" />
<glyph unicode="&#x143;" horiz-adv-x="1683" d="M0 909q0 58 14.5 110t38 93.5t62.5 80t79 68t97 59.5t107.5 51t119.5 46.5t123 43.5t128 43t126 44q50 17 81 7t62 -52l84 -121q42 -62 101 -14q234 195 397 195q90 0 141 -56.5t51 -146.5t-77 -283l-430 -1073q-26 -67 -27.5 -111.5t29.5 -87.5q43 -55 46.5 -83.5 t-22.5 -94.5l-10 -24q-17 -43 -48 -54t-71 11q-102 55 -153.5 135t-51 171.5t40.5 196.5l367 914q9 23 28 69t27 67.5t19 51.5t15.5 47.5t4.5 28.5q0 24 -13 38.5t-36 14.5q-51 0 -156 -69.5t-200 -159.5q-52 -52 -76 -113l-356 -891q-19 -47 -49 -67.5t-81 -20.5h-100 q-46 0 -61 22.5t2 65.5l469 1168q11 29 -0.5 41.5t-42.5 3.5q-236 -78 -298 -103q-198 -82 -242 -180q-15 -33 -15 -69q0 -76 59 -115q65 -42 77.5 -65.5t12.5 -102.5v-10q0 -44 -25 -65t-69 -13q-138 28 -219.5 125.5t-79.5 232.5zM1326 1703.5q-9 20.5 17 51.5l138 162 q34 39 69.5 55.5t85.5 16.5h121q38 0 45 -18.5t-22 -43.5l-209 -182q-74 -62 -166 -62h-29q-41 0 -50 20.5z" />
<glyph unicode="&#x144;" horiz-adv-x="1140" d="M-161.5 22.5q-15.5 22.5 1.5 65.5l361 887q36 88 121 49l84 -37q41 -19 68 -16.5t65 28.5q133 91 260 91q88 0 136 -45t48 -127q0 -83 -63 -238l-109 -264q-27 -68 -40.5 -118.5t-15.5 -77t5 -42.5t15.5 -20t21.5 -4q65 0 167 110.5t212 298.5q22 28 53.5 24.5t51 -36 t1.5 -64.5q-66 -114 -129.5 -201.5t-137.5 -161t-155.5 -112.5t-165.5 -39q-76 0 -126.5 29.5t-74 90t-9.5 160.5t67 232l49 117q7 18 22 55.5t21 53.5t14.5 39.5t11.5 37t3 23.5q0 21 -16 33t-42 12q-72 0 -182 -96q-47 -41 -72 -103l-231 -569q-19 -47 -48.5 -67.5 t-80.5 -20.5h-100q-46 0 -61.5 22.5zM493 1194q-9 20 17 51l137 162q34 39 69.5 55.5t86.5 16.5h121q38 0 44.5 -18.5t-22.5 -43.5l-209 -182q-72 -61 -166 -61h-28q-41 0 -50 20z" />
<glyph unicode="&#x147;" horiz-adv-x="1683" d="M0 909q0 58 14.5 110t38 93.5t62.5 80t79 68t97 59.5t107.5 51t119.5 46.5t123 43.5t128 43t126 44q50 17 81 7t62 -52l84 -121q42 -62 101 -14q234 195 397 195q90 0 141 -56.5t51 -146.5t-77 -283l-430 -1073q-26 -67 -27.5 -111.5t29.5 -87.5q43 -55 46.5 -83.5 t-22.5 -94.5l-10 -24q-17 -43 -48 -54t-71 11q-102 55 -153.5 135t-51 171.5t40.5 196.5l367 914q9 23 28 69t27 67.5t19 51.5t15.5 47.5t4.5 28.5q0 24 -13 38.5t-36 14.5q-51 0 -156 -69.5t-200 -159.5q-52 -52 -76 -113l-356 -891q-19 -47 -49 -67.5t-81 -20.5h-100 q-46 0 -61 22.5t2 65.5l469 1168q11 29 -0.5 41.5t-42.5 3.5q-236 -78 -298 -103q-198 -82 -242 -180q-15 -33 -15 -69q0 -76 59 -115q65 -42 77.5 -65.5t12.5 -102.5v-10q0 -44 -25 -65t-69 -13q-138 28 -219.5 125.5t-79.5 232.5zM1229 2016q14 22 59 22h6q51 0 82 -18 t56 -62l12 -19q36 -62 96 -20l86 63q76 56 170 56h62q37 0 43 -17.5t-23 -40.5l-317 -249q-54 -43 -125 -43h-4q-39 0 -61.5 14t-39.5 49l-96 203q-20 40 -6 62z" />
<glyph unicode="&#x148;" horiz-adv-x="1140" d="M-161.5 22.5q-15.5 22.5 1.5 65.5l361 887q36 88 121 49l84 -37q41 -19 68 -16.5t65 28.5q133 91 260 91q88 0 136 -45t48 -127q0 -83 -63 -238l-109 -264q-27 -68 -40.5 -118.5t-15.5 -77t5 -42.5t15.5 -20t21.5 -4q65 0 167 110.5t212 298.5q22 28 53.5 24.5t51 -36 t1.5 -64.5q-66 -114 -129.5 -201.5t-137.5 -161t-155.5 -112.5t-165.5 -39q-76 0 -126.5 29.5t-74 90t-9.5 160.5t67 232l49 117q7 18 22 55.5t21 53.5t14.5 39.5t11.5 37t3 23.5q0 21 -16 33t-42 12q-72 0 -182 -96q-47 -41 -72 -103l-231 -569q-19 -47 -48.5 -67.5 t-80.5 -20.5h-100q-46 0 -61.5 22.5zM412 1481q14 22 59 22h6q51 0 81.5 -18t55.5 -62l13 -18q37 -63 96 -21l86 64q75 55 170 55h61q37 0 43.5 -17t-22.5 -40l-318 -250q-54 -43 -125 -43h-4q-38 0 -60.5 14.5t-39.5 49.5l-96 202q-20 40 -6 62z" />
<glyph unicode="&#x150;" horiz-adv-x="1464" d="M0 322q0 142 43.5 312.5t121.5 336.5t199.5 311.5t262.5 224.5q68 38 125 88q118 111 276 111q77 0 143.5 -27.5t119.5 -83t83.5 -148.5t30.5 -214q0 -181 -55.5 -394t-155.5 -409q-15 -29 -3 -46.5t44 -14.5q158 18 262 194q22 28 54 24t52 -36.5t1 -63.5 q-75 -121 -200.5 -202.5t-270.5 -73.5q-43 3 -65 -6.5t-46 -42.5q-126 -162 -276.5 -254t-315.5 -92q-112 0 -197 41t-134.5 112.5t-74 160t-24.5 192.5zM270 301q0 -112 42.5 -186t133.5 -74q157 0 328 233q22 31 20 52t-28 47q-30 28 -58 63t-63 96t-59.5 130t-39.5 167 t-11 205q2 25 -8.5 28t-22.5 -20q-97 -172 -165.5 -382.5t-68.5 -358.5zM762 975q0 -246 106 -408q20 -29 42.5 -28t37.5 32q81 174 130.5 353t49.5 286q0 102 -36 154.5t-99 52.5q-94 0 -162.5 -123.5t-68.5 -318.5zM808.5 1792.5q-10.5 20.5 14.5 54.5l107 154 q31 41 64.5 58.5t84.5 17.5h95q40 0 48 -19.5t-20 -48.5l-168 -170q-35 -36 -72 -51.5t-88 -15.5h-12q-43 0 -53.5 20.5zM1171.5 1792.5q-10.5 20.5 14.5 54.5l106 154q31 41 65 58.5t85 17.5h94q40 0 48.5 -19.5t-19.5 -48.5l-168 -170q-35 -36 -72 -51.5t-88 -15.5h-12 q-43 0 -53.5 20.5z" />
<glyph unicode="&#x151;" horiz-adv-x="1120" d="M-6 330q0 84 23.5 182.5t75 201.5t122 186.5t174.5 136.5t223 53q162 0 253 -92t91 -259t-77 -350q-12 -29 1 -43.5t42 -5.5q129 46 233 223q22 28 53.5 24.5t51.5 -36t2 -64.5q-80 -137 -194 -221t-245 -88q-45 -2 -65.5 -10.5t-52.5 -40.5q-154 -154 -359 -154 q-165 0 -258.5 95.5t-93.5 261.5zM264 279q0 -52 23 -83.5t61 -31.5q25 0 49 12q56 30 73.5 69t0.5 103q-4 28 -4 43q0 51 31 92t80 54q37 9 50.5 22.5t24.5 50.5q35 107 35 178q0 56 -23 83.5t-59 27.5q-59 0 -123.5 -73.5t-111 -175t-77 -205.5t-30.5 -166zM423.5 1194.5 q-10.5 20.5 14.5 54.5l106 154q31 41 65 58.5t85 17.5h94q40 0 48.5 -19.5t-19.5 -48.5l-168 -170q-35 -36 -72 -51.5t-88 -15.5h-12q-43 0 -53.5 20.5zM785.5 1194.5q-10.5 20.5 14.5 54.5l107 154q31 41 64.5 58.5t84.5 17.5h94q40 0 48.5 -19.5t-19.5 -48.5l-168 -170 q-35 -36 -72 -51.5t-88 -15.5h-12q-43 0 -53.5 20.5z" />
<glyph unicode="&#x152;" horiz-adv-x="2232" d="M4 375q7 143 52.5 305.5t122.5 320t194.5 294t253.5 212.5q68 38 125 88q118 111 276 111q137 0 236.5 -89t126.5 -259q15 -76 12 -174q-2 -59 -17 -156q-4 -37 9.5 -50.5t50.5 -8.5q5 0 16.5 1t16.5 1q38 2 50.5 16.5t6.5 52.5q-8 50 -8 88q0 129 51 240q18 39 20.5 65 t-8.5 68q-26 107 -26 205q-3 90 88 78q56 -7 77 -33.5t21 -75.5q1 -37 20.5 -47.5t51.5 6.5q128 72 276 72q96 0 172 -29.5t120 -78t66.5 -105.5t22.5 -117q0 -141 -104.5 -243.5t-278.5 -102.5q-145 0 -256 82q-25 19 -38.5 10.5t-10.5 -39.5q8 -97 55 -172 q34 -58 33.5 -86.5t-37.5 -83.5l-10 -16q-32 -50 -59 -58t-80 17q-84 35 -164 35q-140 0 -228 -94t-88 -238q0 -143 86.5 -239.5t229.5 -96.5q103 0 181.5 53.5t114 136t25.5 173.5q-6 58 10 82t72 39l66 18q93 25 108 -68q26 -144 -11.5 -274.5t-120 -221.5t-202 -144.5 t-253.5 -53.5q-158 0 -287.5 73.5t-206.5 198.5q-20 31 -39.5 33t-44.5 -24q-238 -256 -512 -256q-100 0 -178 33t-128.5 92t-79.5 133.5t-38 163.5q-5 58 -2 137zM270 301q0 -112 42.5 -186t133.5 -74q157 0 328 233q22 29 20 51t-28 48q-30 29 -58.5 64.5t-63.5 97.5 t-59.5 130.5t-39.5 166t-10 202.5q2 25 -8.5 28t-22.5 -20q-97 -172 -165.5 -382.5t-68.5 -358.5zM762 975q0 -243 106 -408q20 -29 42.5 -28t37.5 32q81 174 130.5 353t49.5 286q0 102 -36 154.5t-99 52.5q-94 0 -162.5 -123.5t-68.5 -318.5zM1890 1357q-1 -30 25 -52 q73 -64 168 -64q66 0 108.5 32t42.5 77q0 44 -41.5 75t-111.5 31q-88 0 -162 -49q-28 -20 -29 -50z" />
<glyph unicode="&#x153;" horiz-adv-x="1609" d="M-6 330q0 84 23.5 182.5t75 201.5t122 186.5t174.5 136.5t223 53q152 0 240 -82q30 -28 48 -30t54 21q132 91 277 91q115 0 195.5 -52t104 -149.5t-39.5 -237.5q-67 -145 -194.5 -211t-344.5 -49q-32 3 -51.5 -15t-19.5 -52q-1 -31 6.5 -57.5t26 -53.5t59.5 -43t100 -16 q155 0 309 108.5t263 300.5q21 28 52.5 24t51.5 -36.5t2 -63.5q-45 -79 -97 -148.5t-123.5 -138.5t-149.5 -117.5t-178.5 -79t-207.5 -30.5q-173 0 -274 78q-33 27 -52 27.5t-55 -23.5q-127 -82 -268 -82q-165 0 -258.5 95.5t-93.5 261.5zM264 279q0 -52 23 -83.5t61 -31.5 q59 0 122.5 73t110 174.5t77 206.5t30.5 170q0 56 -23 83.5t-59 27.5q-59 0 -123.5 -73.5t-111 -175t-77 -205.5t-30.5 -166zM967 569q13 -20 47 -22q92 0 143 45t86 125q21 45 27 74.5t-6 48t-47 18.5q-39 0 -78 -24t-71.5 -63.5t-55.5 -76t-43 -76.5q-15 -29 -2 -49z" />
<glyph unicode="&#x154;" horiz-adv-x="1388" d="M-4 1012q0 98 30.5 198.5t96.5 197t159 172t230 121.5t297 46q168 0 303 -50t219.5 -134t129 -189t44.5 -221q0 -129 -49.5 -248.5t-147.5 -210t-227 -125.5q-34 -9 -39 -24t15 -43q84 -115 43 -344l-58 -322q-13 -73 -4 -116.5t45 -63.5q63 -34 78 -56.5t15 -86.5 q0 -46 -24.5 -70t-70.5 -23q-115 3 -194.5 60.5t-110 150.5t-10.5 205l49 277q10 56 15 94t9.5 93.5t-0.5 94.5t-17 80t-38.5 68t-66.5 41l-53 18q-35 12 -56.5 3t-34.5 -42l-202 -502q-19 -47 -48.5 -67.5t-80.5 -20.5h-101q-46 0 -61 22.5t2 65.5l434 1076 q41 98 119 174.5t178 101.5q37 9 65 -6t40 -51q18 -55 12 -77.5t-45 -55.5q-68 -60 -107 -156l-80 -195q-25 -68 43 -92q97 -37 186 -17.5t156.5 73.5t107.5 138t40 175q0 68 -24 131.5t-72.5 119t-132.5 89t-193 33.5q-107 0 -201.5 -32t-161 -84.5t-115 -118.5t-72 -134.5 t-23.5 -132.5q0 -48 14 -102q15 -57 4.5 -87t-57.5 -65l-35 -27q-37 -26 -67.5 -18t-47.5 49q-51 120 -51 242zM964 1837q-9 20 17 51l138 162q34 39 69.5 55.5t85.5 16.5h121q38 0 45 -18.5t-22 -43.5l-209 -182q-72 -61 -166 -61h-29q-41 0 -50 20z" />
<glyph unicode="&#x155;" horiz-adv-x="876" d="M35 563q73 131 129 252q22 45 21.5 74t-25.5 74q-19 32 -19 67q0 56 36 110.5t89 90.5q25 17 55.5 18t55.5 -14l16 -10q33 -20 41 -44t-6 -59l-16 -39q-26 -69 32 -110q9 -7 43.5 -31t49.5 -36t44 -36t44 -41.5t32.5 -41.5t25 -48t7.5 -49q0 -39 -24 -102l-68 -172 q-27 -66 -40.5 -116t-14.5 -77t6 -43.5t15.5 -21t19.5 -4.5q46 0 124 99t203 310q22 28 53.5 24t51.5 -36.5t2 -63.5q-54 -94 -96 -159.5t-98 -137.5t-106 -116t-111.5 -72.5t-123.5 -28.5q-50 0 -92 15.5t-74 51.5t-45 90t-0.5 138t54.5 187l67 172q19 49 19 71 q0 34 -45 76q-26 26 -49.5 22t-38.5 -38q-60 -135 -138 -271q-21 -28 -52 -24.5t-51 36t-3 64.5zM318 1344q-9 20 17 51l138 162q34 39 69.5 55.5t85.5 16.5h121q38 0 45 -18.5t-22 -43.5l-209 -182q-72 -61 -166 -61h-29q-41 0 -50 20z" />
<glyph unicode="&#x158;" horiz-adv-x="1388" d="M-4 1012q0 98 30.5 198.5t96.5 197t159 172t230 121.5t297 46q168 0 303 -50t219.5 -134t129 -189t44.5 -221q0 -129 -49.5 -248.5t-147.5 -210t-227 -125.5q-34 -9 -39 -24t15 -43q84 -115 43 -344l-58 -322q-13 -73 -4 -116.5t45 -63.5q63 -34 78 -56.5t15 -86.5 q0 -46 -24.5 -70t-70.5 -23q-115 3 -194.5 60.5t-110 150.5t-10.5 205l49 277q10 56 15 94t9.5 93.5t-0.5 94.5t-17 80t-38.5 68t-66.5 41l-53 18q-35 12 -56.5 3t-34.5 -42l-202 -502q-19 -47 -48.5 -67.5t-80.5 -20.5h-101q-46 0 -61 22.5t2 65.5l434 1076 q41 98 119 174.5t178 101.5q37 9 65 -6t40 -51q18 -55 12 -77.5t-45 -55.5q-68 -60 -107 -156l-80 -195q-25 -68 43 -92q97 -37 186 -17.5t156.5 73.5t107.5 138t40 175q0 68 -24 131.5t-72.5 119t-132.5 89t-193 33.5q-107 0 -201.5 -32t-161 -84.5t-115 -118.5t-72 -134.5 t-23.5 -132.5q0 -48 14 -102q15 -57 4.5 -87t-57.5 -65l-35 -27q-37 -26 -67.5 -18t-47.5 49q-51 120 -51 242zM891 2147q14 22 59 22h6q51 0 82 -18t56 -62l12 -18q37 -63 96 -21l86 64q75 55 170 55h62q37 0 43 -17.5t-23 -40.5l-317 -249q-54 -43 -125 -43h-4 q-39 0 -61.5 14t-39.5 49l-96 203q-20 40 -6 62z" />
<glyph unicode="&#x159;" horiz-adv-x="876" d="M35 563q73 131 129 252q22 45 21.5 74t-25.5 74q-19 32 -19 67q0 56 36 110.5t89 90.5q25 17 55.5 18t55.5 -14l16 -10q33 -20 41 -44t-6 -59l-16 -39q-26 -69 32 -110q9 -7 43.5 -31t49.5 -36t44 -36t44 -41.5t32.5 -41.5t25 -48t7.5 -49q0 -39 -24 -102l-68 -172 q-27 -66 -40.5 -116t-14.5 -77t6 -43.5t15.5 -21t19.5 -4.5q46 0 124 99t203 310q22 28 53.5 24t51.5 -36.5t2 -63.5q-54 -94 -96 -159.5t-98 -137.5t-106 -116t-111.5 -72.5t-123.5 -28.5q-50 0 -92 15.5t-74 51.5t-45 90t-0.5 138t54.5 187l67 172q19 49 19 71 q0 34 -45 76q-26 26 -49.5 22t-38.5 -38q-60 -135 -138 -271q-21 -28 -52 -24.5t-51 36t-3 64.5zM199 1653q14 22 59 22h6q51 0 81.5 -18t55.5 -62l13 -18q37 -63 96 -21l86 64q75 55 170 55h61q37 0 43.5 -17t-22.5 -40l-318 -250q-54 -43 -124 -43h-5q-38 0 -60.5 14.5 t-39.5 49.5l-96 202q-20 40 -6 62z" />
<glyph unicode="&#x15a;" horiz-adv-x="1372" d="M-96 -393q0 192 127 387q25 39 26.5 62.5t-20.5 62.5q-78 140 -78 309q0 88 21 168.5t59 144t89.5 115t113.5 85t129.5 51.5t140 16t141.5 -23q44 -12 59 -43t-3 -72l-15 -39q-22 -54 -48 -68t-83 -3q-142 26 -244 -70t-102 -252q0 -61 14 -110q10 -35 34 -41.5t50 18.5 q79 75 277 257t285 263q30 27 39.5 55t1.5 68q-35 182 -35 305q0 224 107 354t286 130q77 0 137 -26t96 -69.5t54 -95.5t18 -108q0 -66 -24 -133.5t-71.5 -135.5t-97.5 -125t-122 -129q-29 -28 -38 -55t-3 -67q35 -194 35 -316q0 -197 -85.5 -348t-234.5 -232t-338 -81 q-173 0 -323 75q-34 17 -57.5 11t-43.5 -37q-84 -127 -84 -258q0 -52 -20.5 -72t-73.5 -20h-4q-44 0 -68 24t-24 68zM439.5 118q5.5 -23 37.5 -32q53 -18 117 -18q173 0 284 118t111 303q0 35 -6 78q-3 34 -20.5 40t-40.5 -17l-463 -426q-25 -23 -19.5 -46zM1151 1276 q0 -44 6 -96q3 -33 21 -39t41 18q71 78 104 136t33 110q0 39 -19 64.5t-59 25.5q-45 0 -75 -36t-41 -83t-11 -100zM1285 1837q-9 20 18 51l137 162q34 39 69.5 55.5t85.5 16.5h121q38 0 45 -18.5t-22 -43.5l-209 -182q-72 -61 -166 -61h-29q-41 0 -50 20z" />
<glyph unicode="&#x15b;" horiz-adv-x="811" d="M-19 103q1 31 35 53q42 26 70.5 30t58 -4t43.5 -8q56 0 83.5 54.5t27.5 195.5q0 37 -3 131.5t-3 146.5q0 26 -10.5 29t-20.5 -20q-80 -152 -121 -224q-22 -29 -53.5 -25.5t-51 36.5t-1.5 65q124 212 256 486q23 46 53 59t80 0l59 -18q51 -13 68.5 -40.5t9.5 -78.5 q-12 -90 -14 -196t2 -182.5t9 -157.5t5 -111q0 -44 -2 -60q-3 -29 10 -35.5t35 13.5q113 103 240 321q21 28 52 24.5t51 -36t3 -64.5q-49 -88 -95 -156.5t-109.5 -138.5t-131 -115.5t-156 -74.5t-186.5 -29q-161 0 -260 76q-34 23 -33 54zM337 1230.5q-9 20.5 17 51.5 l138 162q34 39 69.5 55.5t85.5 16.5h121q38 0 45 -18.5t-22 -43.5l-209 -182q-74 -62 -166 -62h-29q-41 0 -50 20.5z" />
<glyph unicode="&#x15e;" horiz-adv-x="1372" d="M-96 -393q0 192 127 387q25 39 26.5 62.5t-20.5 62.5q-78 140 -78 309q0 88 21 168.5t59 144t89.5 115t113.5 85t129.5 51.5t140 16t141.5 -23q44 -12 59 -43t-3 -72l-15 -39q-22 -54 -48 -68t-83 -3q-142 26 -244 -70t-102 -252q0 -61 14 -110q10 -35 34 -41.5t50 18.5 q79 75 277 257t285 263q30 27 39.5 55t1.5 68q-35 182 -35 305q0 224 107 354t286 130q77 0 137 -26t96 -69.5t54 -95.5t18 -108q0 -66 -24 -133.5t-71.5 -135.5t-97.5 -125t-122 -129q-29 -28 -38 -55t-3 -67q35 -194 35 -316q0 -257 -142 -430t-373 -217q-31 -6 -48 -18 t-27 -35q-15 -28 -10.5 -43.5t32.5 -30.5q60 -32 60 -115q0 -56 -26 -99.5t-69 -68.5t-96 -38t-108 -11.5t-105 15.5q-34 7 -43 31t10 53q26 39 45.5 47t73.5 2q44 -3 74.5 10t30.5 47q0 44 -62 47q-62 6 -33 60l37 69q36 65 -37 80q-87 18 -165 59q-34 17 -57.5 11 t-43.5 -37q-84 -127 -84 -258q0 -52 -20.5 -72t-73.5 -20h-4q-44 0 -68 24t-24 68zM440 116.5q5 -22.5 37 -32.5q56 -16 117 -16q173 0 284 118t111 303q0 35 -6 78q-3 34 -20.5 40t-40.5 -17l-463 -428q-24 -23 -19 -45.5zM1151 1276q0 -44 6 -96q3 -33 21 -39t41 18 q71 78 104 136t33 110q0 39 -19 64.5t-59 25.5q-45 0 -75 -36t-41 -83t-11 -100z" />
</font>
</defs>
</svg>
