<?xml version="1.0" encoding="utf-8"?>
<!-- Generator: Adobe Illustrator 18.0.0, SVG Export Plug-In . SVG Version: 6.00 Build 0)  -->
<!DOCTYPE svg PUBLIC "-//W3C//DTD SVG 1.1//EN" "http://www.w3.org/Graphics/SVG/1.1/DTD/svg11.dtd">
<svg version="1.1" id="Layer_1" xmlns="http://www.w3.org/2000/svg" xmlns:xlink="http://www.w3.org/1999/xlink" x="0px" y="0px"
	 viewBox="0 0 224.7 77.3" enable-background="new 0 0 224.7 77.3" xml:space="preserve">
<g>
	<path fill="#231F20" d="M38.1,12.6c0,0-5.4,0.9-11,0.7c-1,6.9-4.4,18.1-5.8,21.5c-0.8,1.8-1.7,1.4-1.9-0.4c-0.5-4.8-0.3-14.9,0-20
		c0,0-5.4,0.8-10.1,0.4c1.3,9.5,3,41.9,2.3,53.3c4.8-0.5,10.3-0.3,10.3-0.3c-1.2-6.7-2.1-16.8-1.9-20.7c0-1.7,0.9-1.9,1.6-0.6
		c2.1,4.1,6,14,7.8,21.4c5.8-0.6,11.7-0.4,11.7-0.4c-5.3-9-11.4-23-11.6-27.5C29.4,35.8,33.9,21.5,38.1,12.6z"/>
	<path fill="#231F20" d="M41.4,9.3c0.7,10.1,0.2,41.1-1,52.4c5.2-0.1,10.2,0.3,10.2,0.3c-1.1-11.5-0.4-42.8,0.9-52.5
		C51.5,9.6,46.5,9.7,41.4,9.3z"/>
	<path fill="#231F20" d="M78.3,24.2c-0.7-4.3-3.3-9.7-10.2-9.9c-7.1-0.2-10.7,6.1-12.6,14.9c-1.6,7.4-2.6,20-0.8,28.3
		c1.7,8,6,11.9,11.7,12.1c5.6,0.2,9.2-3.5,10.2-7.6c0.9-3.5,0.6-7.3,1-11.7c0,0-4.2,0.6-9,0.1c0.1,4.2,0,10.4-2.8,10.3
		c-3.1-0.1-3.7-7.5-3.2-18.3c0.5-9.1,2.1-19.6,5-19.5c2.4,0.1,2.9,7.2,2.2,15.3c4.4-0.4,8.9,0.1,8.9,0.1l-0.3-12.9
		C78.4,25,78.3,24.6,78.3,24.2z"/>
	<path fill="#231F20" d="M126.5,14.5c-3.5,0.4-8.2,0.4-11.7,0.2c-0.5,0-1.1-0.1-1.6-0.1c-0.2,2.9-0.7,7-1.2,11.6
		c-1.7,14.7-4.6,35.3-6.1,42.5c5.2-0.5,9.3,0,9.3,0c-0.3-3.2-0.1-6.7,0.4-8.9c0.5-2.2,1.9-2.8,4.3-2.8c2.7,0,4,0.8,4.4,3.3
		c0.3,2.4,0.6,5.7,0.7,8.7c6.4-0.5,9.9-0.1,9.9-0.1C132.3,59.3,127.2,24.9,126.5,14.5z M120.2,49.2c-2,0-2.8-0.8-2.8-2.6
		c0-3.2,1.2-14.3,1.9-18c0.3-1.1,0.9-1,1.2,0c0.8,3.4,2.3,14.4,2.3,17.8C122.8,48.3,122.3,49.2,120.2,49.2z"/>
	<path fill="#231F20" d="M134.2,10.5c0.9,9.5,1.6,40.5,1,53.9c4.7-0.5,9.6-0.2,9.6-0.2c-0.6-2.9-1-7.6-0.8-10c0-2.6,0.7-3.2,2.6-3.9
		c8.8-2.8,12.2-9.9,12.1-20.9C158.5,14.5,151.6,8,134.2,10.5z M145.6,41.7c-1.2,0-1.7-1.1-1.8-3.3c-0.2-4-0.2-12.6-0.1-16.5
		c0.1-2.3,0.4-3.1,1.5-3.1c2.8,0,4.8,4.6,4.9,10.9C150.1,36.2,148,41.7,145.6,41.7z"/>
	<path fill="#231F20" d="M174.6,7.3c-7-0.1-10.6,5.8-12.6,15c-1.5,6.9-1.9,19.8,0,28.3c2,8.3,5.7,11.8,11.6,12
		c5.8,0.1,9.7-3.3,12-11.5c2.3-8.5,2.3-21.4,1.1-28.3C184.9,13.5,181.6,7.5,174.6,7.3z M178.6,36c-0.2,12.1-1.7,18.1-4.9,18
		c-3.3-0.1-4.5-6.1-4.3-18.2c0.2-12.3,1.9-19.9,5-19.8C177.5,16.1,178.9,23.2,178.6,36z"/>
	<path fill="#231F20" d="M215.9,26.7c-2-9.3-5.5-15.2-12.5-15.1c-7,0.1-10.4,6.1-12.2,15.4c-1.3,6.9-1.3,19.8,0.9,28.3
		c2.2,8.2,6.1,11.7,12,11.6c5.8-0.1,9.6-3.6,11.6-11.9C217.7,46.5,217.4,33.5,215.9,26.7z M204,58.2c-3.3,0-4.7-6-4.8-18
		c-0.1-12.3,1.3-19.9,4.4-19.9c3.1,0,4.6,7,4.8,19.8C208.5,52.1,207.2,58.2,204,58.2z"/>
	<path fill="#231F20" d="M109.4,8.8c0,0-5.5,0.7-11,0.4c-1.2,6.9-4.9,18-6.5,21.3c-0.8,1.8-1.8,1.4-1.9-0.4
		c-0.4-4.9,0.1-14.9,0.6-20c0,0-5.4,0.6-10.1,0.1c1,9.5,1.7,41.9,0.7,53.3c4.8-0.4,10.3,0,10.3,0c-0.9-6.7-1.5-16.9-1.3-20.7
		c0.1-1.7,1-1.9,1.6-0.6c2,4.1,5.5,14.2,7.2,21.6c1.7-0.1,3.4-0.2,5-0.2l1.7-10.2c-3.2-7.2-5.7-14.5-5.7-17.5
		C99.9,31.7,104.9,17.5,109.4,8.8z"/>
</g>
</svg>
